/* XPM */
static char *chest1690486963[] = {
/* columns rows colors chars-per-pixel */
"64 64 170 2 ",
"   c None",
".  c #8D5E5C",
"X  c #8F605D",
"o  c #996C57",
"O  c #92645C",
"+  c #95695E",
"@  c #9A6C5D",
"#  c #9A7255",
"$  c #9C735F",
"%  c #9F785A",
"&  c #A17457",
"*  c #A27C53",
"=  c #A67559",
"-  c #A87658",
";  c #A27B5E",
":  c #AA7959",
">  c #946760",
",  c #956860",
"<  c #986D61",
"1  c #9E7561",
"2  c #A07466",
"3  c #A37B61",
"4  c #A57A6A",
"5  c #A4824E",
"6  c #AB8B4D",
"7  c #AE9249",
"8  c #B19647",
"9  c #B1934D",
"0  c #B49A4B",
"q  c #A68451",
"w  c #A88153",
"e  c #A98954",
"r  c #AD8159",
"t  c #AD8D58",
"y  c #B28C57",
"u  c #B1845B",
"i  c #B58C5C",
"p  c #B59952",
"a  c #B99C55",
"s  c #B3935D",
"d  c #BA955E",
"f  c #BD9F59",
"g  c #B7A048",
"h  c #BBA44D",
"j  c #BEA94F",
"k  c #BCA453",
"l  c #BFAA53",
"z  c #BAA25B",
"x  c #BDA859",
"c  c #A68061",
"v  c #A98562",
"b  c #AE8B63",
"n  c #A6826D",
"m  c #A9866E",
"M  c #AD8B6C",
"N  c #B18C64",
"B  c #B0846A",
"V  c #B4896F",
"C  c #B49464",
"Z  c #B79863",
"A  c #BD9A61",
"S  c #B3946A",
"D  c #BC9A69",
"F  c #AF8F70",
"G  c #BB9377",
"H  c #B79A72",
"J  c #BC9578",
"K  c #BEA265",
"L  c #BFA569",
"P  c #BDA572",
"I  c #C2AC55",
"U  c #C1A45E",
"Y  c #C2AC5B",
"T  c #C3B056",
"R  c #C6B25A",
"E  c #CAB75D",
"W  c #CBB85E",
"Q  c #C09E61",
"!  c #C2976B",
"~  c #C49A6C",
"^  c #C09670",
"/  c #C69E77",
"(  c #C89F71",
")  c #C1A464",
"_  c #C4AA66",
"`  c #CAAF65",
"'  c #C2A56B",
"]  c #C9A46D",
"[  c #C6AE6D",
"{  c #CCAA6E",
"}  c #CBB265",
"|  c #CEB866",
" . c #C7B06E",
".. c #CBB46A",
"X. c #CEBA69",
"o. c #D1BC66",
"O. c #D1B26F",
"+. c #D2BE69",
"@. c #CAA274",
"#. c #C1A871",
"$. c #CEA77A",
"%. c #CFA87A",
"&. c #D2AC7C",
"*. c #C8B274",
"=. c #C6B17F",
"-. c #CBB77B",
";. c #CBB97D",
":. c #D3B671",
">. c #D7BD71",
",. c #D8BF72",
"<. c #CFC16C",
"1. c #D4C266",
"2. c #D5C26A",
"3. c #D8C76B",
"4. c #DCCC6D",
"5. c #DFD16E",
"6. c #CFC179",
"7. c #D3C372",
"8. c #DAC372",
"9. c #DECC74",
"0. c #D3C57C",
"q. c #DFD175",
"w. c #DCD27B",
"e. c #E1D36F",
"r. c #E0CE75",
"t. c #E2D375",
"y. c #E6DA75",
"u. c #E8DD77",
"i. c #E1D67D",
"p. c #E5DB7B",
"a. c #E9DF78",
"s. c #EAE177",
"d. c #EBE37A",
"f. c #EEE879",
"g. c #F0EB7D",
"h. c #C3AD81",
"j. c #D1AD83",
"k. c #C5B082",
"l. c #C8B480",
"z. c #CCBA83",
"x. c #D6B182",
"c. c #D9B586",
"v. c #DBB788",
"b. c #DDBA8B",
"n. c #E0BD8D",
"m. c #D4C584",
"M. c #DBCF88",
"N. c #DED386",
"B. c #DFD693",
"V. c #E2DB84",
"C. c #E4DC8B",
"Z. c #E0D793",
"A. c #E3DC93",
"S. c #E7E185",
"D. c #EDE683",
"F. c #EEE983",
"G. c #E7E08C",
"H. c #EAE489",
"J. c #EFEB8A",
"K. c #F2EE87",
"L. c #F1ED88",
"P. c #F3F08C",
"I. c #E6E193",
"U. c #EBE696",
"Y. c #EEEB94",
"T. c #EFEC98",
"R. c #F1EE94",
"E. c #F1EF9B",
"W. c #F4F395",
"Q. c #F2F19B",
/* pixels */
"                                                                                                                                ",
"                                                                                                                                ",
"                                                                                                                                ",
"                                                                                                                                ",
"                                                                                                                                ",
"                                                                                                                                ",
"                                                                                                                                ",
"                        . . . . .                                                             . . . . .                         ",
"                      O X O O X X X                                                         O X X X O X O                       ",
"                    @ $ $ $ $ 1 1 $                                                         1 $ $ $ 1 $ 1 @                     ",
"                  + 1 v b b b b b ; 1                                                     1 w v b b b b c % +                   ",
"                . @ v Z K _ _ K A C 1 O . . . . X . X . X . . . X . X . . X . X . . . . > 1 b K ) _ _ K Z v < .                 ",
"              > < 1 b _ X.1.2.2...Z c < > > > > + , , , > > > > + , > > > > > > , > O O @ c D } 2.2.2.X._ S 1 , O               ",
"            1 3 v C L X.4.5.e.4.2._ b 3 < 1 4 4 4 4 4 4 4 4 4 4 4 4 4 4 4 4 4 4 4 4 2 2 3 N ' 2.4.5.5.4.X.L C v 3 1             ",
"          @ c S L  .<.9.5.y.y.y.9...D B B V V J J G G G G G G G G G G G G G G J G V V B B D ..4.e.y.y.t.9.X.*.' S c <           ",
"        X < b ' 7.q.y.y.u.s.s.y.t.>.] ^ ^ / j.j.j.j.j.j.j.j.j.j.j.j.j.j.j.j.j.j.j.j./ J ! ] >.t.s.s.s.u.y.y.q.7.L b @ .         ",
"        . @ b [ q.d.f.d.s.s.u.t.r.>.{ ] ( $.&.c.v.v.v.v.b.b.b.b.b.b.b.b.v.c.c.n.c.&.%.( ( { >.r.y.u.s.u.s.f.d.q.[ b < .         ",
"        X < b #.t.f.f.d.s.y.t.9.,.:.] @.( $.&.x.v.v.b.n.m.n.b.n.n.n.v.n.n.n.n.c.x.&.$.] ( ] :.8.9.q.y.d.f.g.f.t.[ b @ X         ",
"        . < b  .t.d.g.d.u.t.8.:.{ ] ] ~ ( ( @.%.&.v.v.n.n.n.n.n.v.n.n.n.n.n.c.&.%.@.( ~ ( ~ ] { :.8.t.u.f.f.s.t.[ b , X         ",
"        . < b [ t.s.f.f.u.r.>.{ ~ ~ ~ ~ ~ ~ ~ ( &.&.v.v.n.v.v.v.v.b.b.b.c.c.&.$.( ~ ~ ~ ~ ~ ~ ( { >.9.u.s.f.d.q.[ b @ .         ",
"        . < b [ q.s.f.d.u.9.:.] ! ! ~ ~ ~ ! ! ~ @.&.j.x.x.x.x.x.j.x.j.x.&.&.&.@.( ~ ~ ~ ~ ! ! ! ] :.9.u.d.f.d.q.[ b @ .         ",
"        X @ b [ t.s.f.d.u.9.:.] ! ! ~ ~ ~ ~ ~ ~ ( @.$.$.%.%.$.$.&.%.%.&.%.$.$.] ~ ~ ! ~ ~ ~ ! ! ] :.r.u.d.f.d.q.[ b < X         ",
"        X @ v #.9.d.f.d.u.r.:.] ~ ! ~ ~ ~ ~ ~ ~ ~ ] ( @.@.~ @.( ( ( ( ( ( ( ( ~ ~ ~ ~ ~ ~ ! ! ~ ] :.9.u.d.f.s.t.[ v < .         ",
"        . < b  .t.s.f.d.u.9.:.@.~ ! ~ ~ ~ ~ ~ ~ ~ ~ ! ~ ~ ~ ~ ~ ~ ~ ~ ~ ~ ~ ~ ~ ! ~ ~ ~ ~ ! ! ~ @.:.9.u.s.g.s.t.[ M @ X         ",
"        . < b [ 9.s.f.d.u.9.:.] ~ ! ! ! ~ ! ~ ~ ! ! ! ! ! ! ! ! ~ ! ! ! ! ! ! ~ ~ ! ~ ~ ! ! ! ! ] :.9.u.s.f.s.q.[ b < .         ",
"        X @ b [ q.s.f.d.u.9.:.] ! ! ! ! ~ ! ! ! ! ! ! ! ~ ~ ! ! ! ! ! ~ ! ! ! ! ~ ~ ! ! ! ! ! ! ] :.9.u.f.f.s.q.[ v @ .         ",
"        . < b  .q.d.f.f.u.9.>.] ~ ~ ~ ~ ] ~ ~ ~ ] ~ ~ ~ ~ ~ ~ ~ ~ ~ ~ ~ ~ ( ~ ~ ~ ~ ~ ~ ~ ~ ~ ( ] >.9.u.s.f.d.q.[ b < .         ",
"        . < M *.w.F.f.d.u.t.,.O.{ ] { { { { { @.{ { { { { { { { { { { { { { { ` { { { { { { { { :.,.q.d.f.g.F.w.*.M < .         ",
"        . < M ;.G.P.P.f.s.t.9.8.,.,.>.,.>.,.,.,.>.>.>.>.>.>.>.,.>.,.>.>.>.+.>.>.,.,.>.>.,.,.>.>.,.r.y.u.f.P.J.C.;.M < .         ",
"        X < M z.I.W.P.F.s.u.y.t.t.t.t.r.t.t.t.t.t.t.t.t.t.t.t.t.t.t.t.t.y.t.t.t.t.t.t.t.t.t.r.t.t.t.u.d.F.P.W.I.z.F < .         ",
"        . < F =.B.Y.L.D.d.d.d.d.a.d.d.D.a.d.d.d.d.d.d.d.S.d.a.a.V.d.a.d.d.D.a.d.d.d.S.d.a.d.D.d.a.d.d.d.F.J.J.B.l.F < .         ",
"        X @ n P 0.w.S.D.J.J.J.L.K.K.K.L.L.L.L.L.L.L.L.L.L.L.L.J.L.K.L.L.L.L.L.L.K.L.L.L.L.L.L.L.L.L.L.D.D.S.N.0.P n @ X         ",
"        X + c s x 7.w.H.W.W.W.W.W.W.W.W.W.W.W.W.W.W.W.W.W.W.R.W.R.R.W.W.W.W.W.W.W.W.W.W.W.W.W.W.W.W.Q.W.H.w.<.L C c + X         ",
"        X O # q z l 7.V.T.Q.Q.Q.Q.E.Q.E.Q.E.Q.E.Q.Q.Q.Q.Q.Q.Q.Q.Q.Q.Q.Q.E.E.E.E.E.E.Q.E.E.Q.E.E.Q.Q.Q.E.V.<.l g q # + X         ",
"        X O # 5 7 h <.w.G.I.A.B.Z.Z.Z.Z.Z.Z.Z.Z.B.B.Z.A.U.Y.R.Q.E.R.U.A.A.Z.Z.Z.Z.Z.Z.A.Z.Z.Z.Z.A.A.I.C.w.| k 7 5 # O X         ",
"        X O # 5 0 h l X.7.6.;.=.h.k.h.h.h.h.h.k.h.h.l.z.M.C.Y.L.H.C.V.m.x.h.h.h.h.h.h.h.h.h.h.h.=.-.0.7.<.R k 7 5 # O X         ",
"        X + # e p h l l I f C m n 4 m m 4 B m 4 4 n m H -.w.S.d.p.w.>.#.S m n n 4 B 4 4 n n 4 n M C z x l l j 0 6 % + X         ",
"        X + % t z h h h 8 6 * $ < > > > O @ , , > > < c ' 9.y.y.q.2.[ Z 3 < O > O @ < < , > < @ @ * 6 0 h j k a e % + X         ",
"        X O % t z j h g 8 6 * o O O O O O O O O O O + 3 D 7.5.y.4.1.` C = @ O O O O O O O O O O o * 6 8 h h k k t % + X         ",
"        X > % t g l l h 0 9 w & o @ = o = o o o o @ & r Q o.4.5.4.1.` A : o o o = o o @ = o @ @ & w 6 0 h h k k t % + O         ",
"        O + % t a I I j h p y : - - - - - - - - - = - i A ..+.3.2.+.} A u : - = = = = = - = = - : y a k l I k z t % + X         ",
"        X + % t U I T I I a y r - - : : - : : - : : : u A ` ..o.o.} ` d i : - - : : : : : : - - : y a k I T T x t % + X         ",
"        X O w C Y R R I z a y r : - : : : : : : : : : u i A Q Q ) Q d i u : : : : : : : : : : : u y a k T R R x s % + X         ",
"        X + c Z } W W T I p y : - : : : : : : : : : : : u u i i i i i u : : : : : : : : : : : : r y a l T E W ` Z c + X         ",
"        X + c Z ..o.o.R I a y u : : - : : : : : : : : : : : : : : : : : : : : : : : : : : - - : r y a I R W 1.} Z c , X         ",
"        X + c K o.1.o.E Y f i u - - - - : : : - : - - - : - : - : : - - : : - - : : : - : - - - r y z Y E 1.1...K c + .         ",
"        X + c K | 1.1.o.E U i : - - - - - - - - - - - - - - - - - - - - - - - - - - - - - - = - : i U E 1.1.2.X.Z c @ X         ",
"        X + c Z | 1.3.+.| _ Q : : - : - : : : : : : : : : : : : : : - : : : : : : : : : : - - : u d ` | 1.2.2.X.Z c @ X         ",
"        . + 3 C _ | X.2.+.} A i u r u u u u : u u u u u u u u u u u u u u u u u u u u u u u r u i Q ` o.2.<..._ C ; + X         ",
"          + 3 v C K [ | 1.o.` ) A A A A d A A Q Q Q Q d d A Q d A A A A Q d A A Q d A Q d A A A U ` o.2.X._ K s b 3 +           ",
"            $ 1 3 b A } +.+.o.} ` ` ` } ` ` ` ` ` ` ` ` ` ` ` } ` ` ` } ` ` } ` ` ` ` ` ` ` } ` ` o.+.+.} D b 3 $ @             ",
"              O + 1 b _ O.o.o.o.| | | | | o.o...O.o.| | | | | ..o.| ..| | | | | | | | ..o.o.| | o.+.+.o._ b $ + O               ",
"                X @ c Z ) _ _ _ _ _ _ _ _ _ _ K _ _ _ _ ) _ _ _ ] _ _ _ _ _ _ _ _ _ _ _ _ _ _ _ ] _ _ K Z r 1 .                 ",
"                  + 3 v b b b N b C b b b b b b N N b b b b C b i b b b b b b b N N N b b b b b N N b b b 1 +                   ",
"                    $ $ $ 1 $ $ $ $ $ 1 $ $ 1 1 $ $ $ $ $ 1 $ $ $ $ $ $ 1 $ 1 @ $ 1 $ $ 1 $ 1 1 $ $ $ $ $ $                     ",
"                      O X O O O X O X O O O O O O O O O O O O X X O O O O O X O O X O O O X . O O O O O X                       ",
"                        . . . . . . . . . . . . . . . . . . . . . . . . . . . . . . . . . . . . . . . .                         ",
"                                                                                                                                ",
"                                                                                                                                ",
"                                                                                                                                ",
"                                                                                                                                ",
"                                                                                                                                ",
"                                                                                                                                ",
"                                                                                                                                "
};
