/* XPM */
static char *_ab28ea1008d4445828ca5bb5af5133a1hx70pPr0RGOm1Mt[] = {
/* columns rows colors chars-per-pixel */
"64 64 88 1 ",
"  c #020101",
". c #090705",
"X c #0E0A07",
"o c #100B07",
"O c #130D09",
"+ c #1C130D",
"@ c #21160F",
"# c #221710",
"$ c #251911",
"% c #2A1D14",
"& c #2F2116",
"* c #312117",
"= c #35241A",
"- c #39261B",
"; c #3C291D",
": c #412C1F",
"> c #4B331F",
", c #452E21",
"< c #473122",
"1 c #4D3424",
"2 c #503625",
"3 c #533926",
"4 c #5A3D25",
"5 c #553B29",
"6 c #593E2A",
"7 c #5E422D",
"8 c #624325",
"9 c #6B4A27",
"0 c #62442D",
"q c #6C4B2B",
"w c #724F2A",
"e c #75512A",
"r c #7A542B",
"t c #644730",
"y c #664931",
"u c #6D4D34",
"i c #704F35",
"p c #6C5236",
"a c #745237",
"s c #765438",
"d c #79563A",
"f c #7C5A3C",
"g c #845C2E",
"h c #825B31",
"j c #8C622F",
"k c #8B6335",
"l c #926632",
"z c #976932",
"x c #9B6C34",
"c c #936D3C",
"v c #A47236",
"b c #AC7C3E",
"n c #B47E3B",
"m c #846A43",
"M c #8C6F44",
"N c #897047",
"B c #977443",
"V c #93784A",
"C c #AB7E42",
"Z c #BC843D",
"A c #B3894A",
"S c #A38A55",
"D c #A78E58",
"F c #B19054",
"G c #B4995D",
"H c #C68D42",
"J c #C98E41",
"K c #CE9244",
"L c #C9964C",
"P c #DA9B47",
"I c #D69B49",
"U c #DFA04A",
"Y c #D3A051",
"T c #DDA551",
"R c #D1A458",
"E c #E4A44B",
"W c #E4AC55",
"Q c #EBAC51",
"! c #EDB055",
"~ c #E5B45E",
"^ c #F3B759",
"/ c #F1BB5F",
"( c #CCAE67",
") c #D2AD62",
"_ c #D8B467",
"` c #D0B36A",
"' c #EAB962",
"] c #E3BE6C",
/* pixels */
"ssassssasssassasssssssssssssssssasassssaspsssssasssasspsssasaass",
"ssasssssssssssasssssssssisssssssssssassssssssssasassassssssssssa",
"asssssssisssasssssssisssssassssssassssisssssssssasassssssssssssa",
"ssssssssssssssssssssssssssssssssssssssssssssssssssssssssssssssss",
"sssssssdsdsssssssssssssssssssdssdsdsssdssdssdssdssdssdsddsssssss",
"sssssdssssssssdssssssssssssssssssssssddsssdssdsdsdssssssssssssss",
"assasaaissaaasssssissssssssssasassaaassaaaaapspssaaasaasssssssss",
"iuuiiuuuuuuuyuyuuyuuuuuiypyuuuyuuyuuyuuyuyuuuuypuuuyuuuyuyuuuupp",
"yyyyt77777777777677t6666777677777777777777777777777777776t7ttyut",
"7766555221222211112252222211221222222221122221222111221222556667",
"66521<,:::::::::,,,,,,::,;,,,,,;;,;::,:,::::::::,::::::;:,<12566",
"5222<;;====------======----===-;----=;==---==---------==--:,1255",
"6651<;======----====*===--------------=;===&==--------====;,2556",
"t665<:====;;;::;-===**==;;;,;,;;;;;;:;;;-=====-;;;;:;--===:1567t",
"uyt62;;==;:<<<<<,,;====,,,,,,,,,<,,,,,,,;-===-:,<<<<,:--=-,16tyu",
"aiut5<;=-:<1<12<,,,-=-;,,11111122112111<,;---;:<11111,,-=-,57uis",
"dait5<;-;:1122222,::--:,1222222222222221,;;==,<1222211:;=;,5tisd",
"ddat5<--;:11333221:::::1122222222222222<,,-==,,1252521:;=;15tisd",
"ddit5<;-;:12232221,,::,12222222223232322,,-==,,125512,:;=;,6tisd",
"dsit5<--;:,2232221111112222222222222222<,-===,,1121521:;-;12tisd",
"dsit5<;--:113222222222222122222222222222,,==;,,1222221:;-;<5yisd",
"dsit5<;-;:<2222222222212222222222222222<,,,;;,,1155211:;--<5tisd",
"dsit5<--;:122222222222222222222122222222<,,;,,1122222,,;--,5tisd",
"dsit5<;-;,<2222221222222222212222222222221,,<112222211:;-;15tisd",
"dsit5<;-;:<2222222222222222222222222212211111112222221,;--<5tisd",
"dsit5<;-;:<232322222222222122222222222222222222222221,:---<5tisd",
"dsit5<;--:1222222222222122222122222211222222221111111,,---<6tisd",
"dsit5<--;,<222222221222222222222222221222222211<11111,:--;<6tisd",
"dsit5<;--,1222222222222222212222222222222222211111111,,-;;,6tisd",
"ssit5<---,<1222222222222122222222212222222222335236322,;=;<5tisd",
"dsit5<---,<22222222122222222222122222222212256tyuiuq062,;;,5tisd",
"dsit5<;-::<1222222222222222222222222222122256afmMMkkhi71;;,5tiid",
"dsit6<---,>232222222222222222222222222211115yhVSDFACxge4::,5tusd",
"dsit6,;--,,222222222222222222122222221221115aNS(((RLHvg8>:,3tusd",
"dsi06,;-;,>222222212222122212222222222211114sVG`]]~TKnj9>;:3tisd",
"dsi06,---,>223222223122212222222122223132,16sVG_]//WPZz9>::3tusd",
"dsi06,;-;,>122221222222222222212221212221,26aBL)'/^QPHzw1;,2tusd",
"dsit31---,,123222222222222222222222232221117icAYW^!EPZzw<:,26asd",
"dsit31--;:1222222222212222221222222222221<24wkbJIPUPKnl91;,2tasd",
"dsit4,--;:>222222222222222121222222222212<25qhxnHHJHnvg8<:,2tusd",
"dsit5<--;:,2222222222222122222222222222211250wglxvvvzgw4,;<2tpss",
"dsit5<--;:1122222222232222222222212222212222409wrrree94<;;<5tpsd",
"dsit5<;-;:,2222221222221222222121222221222222222>4443>,;-;<5tisd",
"dsi051--;:12322222211122222222222222222222211,,,:;;;;;===;<5tisd",
"dsit5<--;,,2222212111111122222222222222222211,;-===-=====;<5tisd",
"dsit5<;--,,2222221,,,<<1222222222222222222211,,;--;;--===;<6tisd",
"dsit5<--;,1222221,,;;,,,122222222222222222221<<,::::,,;==;<5tisd",
"dsit5<;-;,,2522211,;-;,,<22222222221212222221211212><,;;=;,6tisd",
"dsit5<;-;,1122521>:-=-:,12222222222222222222222222222<::=-<4tisd",
"dsit5<;--,<222221<:==-::11222222222222222222222223322<::--<5tisd",
"dait5<---,<222221::-=-::12222222222222222222232223322<:--:,5tisd",
"dait5<;=;,<152221::---::123222222222222222222222232221:---,5tisd",
"ddit5,;--,,222221<:---:,<2232222222222222222222222322<::-;15tisd",
"dsay5,;--,1225221<:---:<122322222222222211<<<122222321,---<5tisd",
"fday6<,-;,1226522<:---:<133333232322332211<<<113333321,--:<6yadd",
"fday61;-;,2225522<:;--:<22333333323233321<,:,<13333321,:-;16ysdh",
"dspt6<;=;,112222<<:;-=::<223132222222221<,;;;,<123331,,;--,5tisd",
"uyt71;===-,,1,,1,:==*==;,><><<><<<><<<<:;;***;;,<<<<,,;===:26tuu",
"531<;=$$%*==----=*%%$$%==-;-===;-------=%%$$%%*=-=;=;*%%$%*;,155",
"-==&%#+++@@$$$$$$#+++++@@$$$$$$$$$$$$$$$@+++++##$$$$$#@+++#$&==-",
"+@+++OXOXOOOOOOOOOOOXOXOOOOOOOOOOOOOOOOOOoXOXXOOOOOOOOOOXXOO++++",
"....     .  ....        .. .. . . . ....     .  .....    . .....",
"                                                                ",
"                                                                "
};
