/* XPM */
static char *_7be2a80efeb4068b5f34b0ac2c52568ExPSMLqnu42hPtn4_0[] = {
/* columns rows colors chars-per-pixel */
"64 64 256 2 ",
"   c #000717",
".  c #000A16",
"X  c #000E1C",
"o  c #03131F",
"O  c #071A22",
"+  c #091C23",
"@  c #081923",
"#  c #0C2126",
"$  c #0D2428",
"%  c #0E2C2C",
"&  c #14262A",
"*  c #132D2D",
"=  c #182F2C",
"-  c #122827",
";  c #11302F",
":  c #1A322E",
">  c #1B2C31",
",  c #112F30",
"<  c #133231",
"1  c #1C3431",
"2  c #163834",
"3  c #1B3C35",
"4  c #193F38",
"5  c #213336",
"6  c #253739",
"7  c #26393A",
"8  c #1D453C",
"9  c #1E493D",
"0  c #1F4036",
"q  c #264334",
"w  c #284434",
"e  c #2E4D37",
"r  c #23443C",
"t  c #234A3D",
"y  c #2B4C3A",
"u  c #2F463E",
"i  c #30473F",
"p  c #314C3C",
"a  c #2F5039",
"s  c #33533B",
"d  c #3A5D3E",
"f  c #375A3E",
"g  c #3D613F",
"h  c #224D40",
"j  c #284F43",
"k  c #344B41",
"l  c #384749",
"z  c #255444",
"x  c #285746",
"c  c #2A5D4A",
"v  c #295847",
"b  c #3A5543",
"n  c #3C5D43",
"m  c #3E534C",
"M  c #375547",
"N  c #2E644E",
"B  c #3D6142",
"V  c #306750",
"C  c #306950",
"Z  c #425B4B",
"A  c #40534F",
"S  c #445B54",
"D  c #495B56",
"F  c #4C5D58",
"G  c #416443",
"H  c #446944",
"J  c #446448",
"K  c #486C49",
"L  c #4D764A",
"P  c #4E784A",
"I  c #537D4D",
"U  c #4B6153",
"Y  c #4D6A52",
"T  c #4F635A",
"R  c #52655D",
"E  c #536B5B",
"W  c #557A53",
"Q  c #557457",
"!  c #576961",
"~  c #5A6C64",
"^  c #576763",
"/  c #5D7463",
"(  c #657A6E",
")  c #617767",
"_  c #56804F",
"`  c #58844F",
"'  c #578250",
"]  c #5A8452",
"[  c #5D8A54",
"{  c #5E8559",
"}  c #628C5A",
"|  c #618F56",
" . c #669659",
".. c #679859",
"X. c #6A9B5B",
"o. c #629057",
"O. c #6EA15E",
"+. c #71A55F",
"@. c #6A8C65",
"#. c #6D8D6A",
"$. c #69836B",
"%. c #6A9162",
"&. c #6E8472",
"*. c #7C9979",
"=. c #799477",
"-. c #718C70",
";. c #73A562",
":. c #75AA62",
">. c #78AE64",
",. c #7FAF6D",
"<. c #77A568",
"1. c #7CB365",
"2. c #7FB46A",
"3. c #7FB868",
"4. c #819C7E",
"5. c #81BC66",
"6. c #81B16E",
"7. c #84BD6B",
"8. c #83AB76",
"9. c #88B776",
"0. c #86C16C",
"q. c #89C56E",
"w. c #8CC86F",
"e. c #8DC574",
"r. c #8ECA71",
"t. c #90C677",
"y. c #91CD74",
"u. c #91C778",
"i. c #93C97A",
"p. c #98CF7C",
"a. c #9BD27F",
"s. c #97D07A",
"d. c #7F9382",
"f. c #809682",
"g. c #859C86",
"h. c #899D8B",
"j. c #879D87",
"k. c #8DA18C",
"l. c #8FA88A",
"z. c #89A287",
"x. c #92AB8F",
"c. c #90A68F",
"v. c #8EB183",
"b. c #93BC82",
"n. c #94B589",
"m. c #93A792",
"M. c #95A994",
"N. c #9AAE97",
"B. c #9BB395",
"V. c #9CB696",
"C. c #A3BB9D",
"Z. c #A0BF95",
"A. c #A8BEA2",
"S. c #9ACB83",
"D. c #9DC989",
"F. c #9BC787",
"G. c #9FC490",
"H. c #A1CD8D",
"J. c #A2D28B",
"K. c #A1D785",
"L. c #A7C999",
"P. c #A8CD97",
"I. c #A7D491",
"U. c #A8D592",
"Y. c #AADA91",
"T. c #AFD29F",
"R. c #B2DD9A",
"E. c #B0DA9A",
"W. c #ACE28E",
"Q. c #B3E399",
"!. c #AAC2A3",
"~. c #B4C9AC",
"^. c #B2D4A2",
"/. c #B6DDA1",
"(. c #B7D2AB",
"). c #BAD5AD",
"_. c #B9DCA6",
"`. c #BACFB1",
"'. c #BEE4AA",
"]. c #BBE6A3",
"[. c #C2D9B7",
"{. c #C5DBBA",
"}. c #C9DEBD",
"|. c #C1E5AD",
" X c #C4EAAD",
".X c #C6E7B2",
"XX c #C9EBB5",
"oX c #CCE4BF",
"OX c #D0ECBF",
"+X c #CCF2B5",
"@X c #D2ECC3",
"#X c #D1E7C3",
"$X c #D5F1C2",
"%X c #DDF5CC",
"&X c #DFFACC",
"*X c #D9F3C7",
"=X c #CEE4C1",
"-X c #E0FACE",
";X c #E4FBD2",
":X c #E8FFD6",
">X c #EDFFDA",
",X c #F1FFDE",
"<X c #F3FFE0",
"1X c black",
"2X c black",
"3X c black",
"4X c black",
"5X c black",
"6X c black",
"7X c black",
"8X c black",
"9X c black",
"0X c black",
"qX c black",
"wX c black",
"eX c black",
"rX c black",
"tX c black",
"yX c black",
"uX c black",
"iX c black",
"pX c black",
"aX c black",
"sX c black",
"dX c black",
"fX c black",
"gX c black",
"hX c black",
"jX c black",
"kX c black",
"lX c black",
"zX c black",
"xX c black",
"cX c black",
"vX c black",
"bX c black",
"nX c black",
"mX c black",
"MX c black",
"NX c black",
"BX c black",
"VX c black",
"CX c black",
"ZX c black",
"AX c black",
"SX c black",
"DX c black",
"FX c black",
"GX c black",
"HX c black",
"JX c black",
"KX c black",
"LX c black",
"PX c black",
"IX c black",
"UX c black",
/* pixels */
"C C C C C C C C C C C C C C C C C C C C C C C C C C C C C C C C C C C C C C C C C C C C C C C C C C C C C C C C C C C C C C C C ",
"C C C C C C C C C C C C C C C C C C C C C C C V V V C C C C C C V V C C C C C C C V C C C C C C C C C C C C C C C C C C C C C C ",
"C C C C C C C C C C C C C C C C C C N N N c c c c c c c c c c c c c c c c c c c c c c N N N C C C C C C C C C C C C C C C C C C ",
"C C C C C C C C C C C C C C C C C C N c z h 9 8 8 8 9 9 9 9 9 9 8 8 8 8 9 9 9 8 8 9 h z c N C C C C C C C C C C C C C C C C C C ",
"C C C C C C C C C C C C C C C C C C N z 8 2 < * * < < < < < < < < < < < < < < * , < 2 8 z N C C C C C C C C C C C C C C C C C C ",
"C C C C C C C C C C C C C C C C C V c h 3 * $ $ $ $ $ $ $ $ $ $ $ $ $ $ $ $ $ $ $ $ * 3 h c V C C C C C C C C C C C C C C C C C ",
"C C C C C C C C C C C C C C V N N c x t 3 : = = = = = = = = = = = = = = = = = = = = : 3 t x c N N N C C C C C C C C C C C C C C ",
"C C C C C C C C C C C C C C N c z h t t y s s s s s s s s s s s s s s s s s s s s s s y t t h z c N C C C C C C C C C C C C C C ",
"C C C C C C C C C C C C C C N z 8 2 3 y B L _ ' ' _ _ _ _ _ _ _ _ _ _ ' ' ' _ ' ' _ L B y 3 2 8 z N C C C C C C C C C C C C C C ",
"C C C C C C C C C C C C C V c h 2 * 1 s L  .:.>.>.:.:.:.:.:.:.:.:.:.:.:.:.:.:.>.>.:. .L s 1 * 2 h c V C C C C C C C C C C C C C ",
"C C C C C C C C C C N N N c z t 3 1 w G [ >.7.q.q.0.0.7.7.7.7.7.7.7.7.7.0.0.0.q.q.7.>.[ G w 1 3 t x c N N N C C C C C C C C C C ",
"C C C C C C C C C C N c z h t t y s G I X.7.r.y.y.r.r.r.w.q.q.q.q.q.q.w.r.r.r.y.y.r.7.X.I G s y t t h z c N C C C C C C C C C C ",
"C C C C C C C C C C N z 8 3 3 y B L [ X.1.0.r.y.r.r.r.r.q.q.q.q.q.q.q.q.w.r.r.r.y.r.0.1.X.[ L B y 3 3 8 z N C C C C C C C C C C ",
"C C C C C C C C C C c h 2 * : s L  .:.3.7.7.0.0.0.0.0.0.0.0.0.0.0.0.0.0.0.0.0.0.0.0.7.7.3.:. .L s 1 * 2 h c C C C C C C C C C C ",
"C C C C C C C C C C c 8 , $ = s _ :.7.7.3.>.:.;.;.:.:.1.5.7.0.0.0.0.7.3.1.>.:.;.;.:.>.3.7.7.:.' s = $ * 8 c C C C C C C C C C C ",
"C C C C C C C C C C c 8 % + - s ] 1.7.3.X.] I P P I ]  .;.3.0.q.q.0.3.;. .] I P P I ] X.3.7.1.] s - + % 8 c C C C C C C C C C C ",
"C C C C C C C C C C c 8 % + - s ] 1.7.+._ d e w w e d L  .1.7.q.q.0.1. .L d e w w e d _ +.7.1.] s - + % 8 c C C C C C C C C C C ",
"C C C C C C C C C V c 8 < $ : f ] :.:.o.H w : - - : w G [ >.0.r.r.0.>.[ G w : - - : w H o.>.:.] s : $ < 8 c C C C C C C C C C C ",
"C C C C C C N N N c x h r 7 i J ' ....] J i 6 5 5 7 k K } >.7.w.w.0.>.} K k 7 5 5 6 i J ] ....] J u 7 r j v c N N N C C C C C C ",
"C C C C C C N c z h j M S T E Q W W W Q E R R ^ ^ ! / @.<.2.7.0.0.7.2.<.@./ ! ^ ^ R R E Q W W W Q E T S M j h z c N C C C C C C ",
"C C C C C V N z 8 3 r S ( f.f.&.E n n Y $.f.k.M.M.M.x.v.9.7.7.5.5.7.7.9.v.x.M.M.M.k.f.$.Y n n E &.f.d.( S r 3 8 z N C C C C C C ",
"C C C C C C c 9 < * 7 R g.!.!.j.E k i R f.!.[.}.}.[.).T.D.e.0.7.7.0.e.D.T.).[.}.}.[.!.f.R i k E j.!.!.g.R 7 * < 9 c C C C C C C ",
"C C C C C C c 8 % $ 7 ~ M.[.[.B.) k k / x.{.*X%X@X{.).T.H.S.i.e.e.u.S.H.^.).{.@X%X*X[.x./ k k ) B.{.[.M.~ 6 $ % 8 c C C C C C C ",
"C C C C C C c 8 % $ 6 ~ N.oX@X!.=.Y Y #.C.oX%X#X`.C.B.V.G.I.I.U.U.I.I.H.V.B.C.`.#X%XoXC.#.Y Y =.!.@X=XN.~ 6 # % 8 c C C C C C C ",
"C C C C C V c 8 % $ 6 ~ N.=X$X_.v.%.%.8.^.@X@X~.k.&.&.*.n.^.'. X X'.^.n.*.$.&.k.~.@X@X^.8.%.%.v._.$X=XN.~ 6 $ % 8 c V C C C C C ",
"C C C C C V c 8 % $ 6 ! m.[.OX'.D.9.9.D.'.OX{.N.( A m / l.).$X&X&X$X).l./ m A ( N.{.@X'.D.9.9.D.'.OX[.m.! 6 $ % 8 c V C C C C C ",
"C C C C C C c 9 < * 7 T f.!.).T.D.e.i.Y. X@X[.k.R 7 6 T k.[.%X>X>X%X[.k.T 6 7 R k.[.@X XY.i.e.D.T.).!.f.R 7 * < 9 c C C C C C C ",
"C C C C C C N z 8 3 r S ( d.l.v.9.e.a.Q.+X$X[.h.D > > D h.{.;X,X,X;X{.j.D > > D h.[.$X+XQ.a.e.9.v.l.d.( S r 3 8 z N C C C C C C ",
"C C C C C C N c z h j M m T / @.<.7.a.Q.+X$X{.h.D > > D j.{.;X,X,X;X{.j.D > > D h.{.$X+XQ.a.7.<.@./ T S M j h z c N C C C C C C ",
"C C C C C C N N N c v h r 7 i J [ >.i.R.XX@X[.k.R 7 6 T k.[.-X>X>X-X[.k.T 6 6 R k.[.$XXXR.i.>.[ J i 7 r h x c N N N C C C C C C ",
"C C C C C C C C C C c h 2 * 1 s L ..6.H.]..X).x.) m m ( N.{.;X>X>X;X{.N.( m m ) m.)..X].H.6. .L a 1 * 2 h c V C C C C C C C C C ",
"C C C C C C C C C C N z 8 2 2 q f L } 8.G./.^.V.4.&.&.h.~.@X;X>X>X;X@X~.k.&.&.4.V.^./.H.8.} L f q 2 2 8 z N C C C C C C C C C C ",
"C C C C C C C C C C N c z t 9 r q y G { 8.F.I.P.Z.V.C.~.oX%X:X>X>X:X%XoX~.C.V.Z.P.I.F.8.{ G y q r 9 9 z c N C C C C C C C C C C ",
"C C C C C C C C C C N N N c z t 2 1 w G } 6.S.I.^.).{.=X@X*X%X;X;X%X%X@X=X{.).^.I.S.6.} G w 1 2 t z c N N N C C C C C C C C C C ",
"C C C C C C C C C C N N N c z t 3 1 q f I ..,.b.L.(.[.{.{.[.[.[.[.[.[.{.{.[.(.L.b.,...I f q 1 3 t z c N N N C C C C C C C C C C ",
"C C C C C C C C C C N c z h t t y y s d H L ] @.*.z.m.m.l.k.k.h.h.k.k.l.m.m.k.*.@.] L H d s y y t t h z c N C C C C C C C C C C ",
"C C C C C C C C C C N z 8 2 3 y B L L K g s s b S T R R R R T T T T R R R R T S b s s g K L L B y 3 2 8 z N C C C C C C C C C C ",
"C C C C C C C C C V c h 2 * 1 s I  . ._ n q : = 1 6 7 7 7 6 6 6 6 6 7 7 7 7 6 1 = : q n ' .. .I s 1 * 2 h c N C C C C C C C C C ",
"C C C C C C N N N c z t 3 1 w G | :.:.o.G w : = 1 5 6 7 6 7 6 6 6 6 6 7 7 6 6 1 = : w H o.>.>.| G w 1 3 t z c N N N C C C C C C ",
"C C C C C C N c z t t r y s G ' +.7.7.O.I B s b Z T R R R T T T T T T R R R T Z b s B I O.7.7.+.' G s y r t t z c N C C C C C C ",
"C C C C C C N z 8 2 3 y n L [ O.3.0.0.1...[ { @.=.j.k.k.k.k.k.k.k.k.k.k.k.k.j.=.@.{ [ ..1.7.0.3.O.[ L n y 3 2 8 z N C C C C C C ",
"C C C C C V c h 2 * 1 s L  .>.3.7.7.7.3.1.>.,.b.L.(.[.{.{.[.[.[.[.[.[.{.{.[.(.L.b.,.>.1.3.7.7.7.3.:. .L s : * 2 h c C C C C C C ",
"C C N N N c z t 3 1 w G [ :.7.7.3.>.>.>.3.7.e.J./.XX$X*X%X%X%X;X-X%X%X%X*X$XXX/.J.u.7.3.>.>.>.3.7.7.:.[ G w 1 3 t x c N N N C C ",
"C C N c z h t t y s B I X.3.7.>...[ [ ..:.7.i.K.R.'.XX$X&X;X:X>X>X:X;X&X$XXX'.R.K.i.7.:...[ [ ..>.7.3.X.I B s y t t h z c N C C ",
"C C N z 8 3 3 y B L [ X.1.3.1...I G G I ..3.e.a.K.Y.R. X$X-X:X>X>X:X-X$X XQ.Y.K.a.e.3...I G G I ..1.5.1.X.[ L B y 0 3 8 z N C C ",
"C C c h 2 * : s L  .>.7.0.7.>.[ B w w n ] >.0.r.e.i.S.E..X$X-X;X;X-X$X.XE.S.i.r.e.0.>.] n w w n [ >.7.0.7.>. .L s 1 * 2 h c C C ",
"C C c 9 < $ = s _ :.0.y.s.u.2.{ s : : s I :.7.q.0.0.u.J./.XX$X*X*X$XXX/.J.u.0.0.q.7.:.I s : : s { 6.u.s.y.0.:._ s = $ < 9 c V C ",
"C C c 8 * # = s ] 1.y.K.W.Y.b.#.m = & e I ;.7.q.0.7.e.S.U./.'.|.|.'./.U.S.e.0.0.q.7.;.I e & = m #.b.Y.W.K.y.1.] s = # * 8 c V C ",
"C C c 8 * # = s ` 1.p.W.].'.T.*.D 1 = e I ;.7.q.0.0.0.u.S.J.I.U.U.I.J.S.u.0.0.0.q.7.:.I e = 1 D *.T.'.].W.p.1.` s = # * 8 c V C ",
"C V c 9 < $ = s I :.u.Y. XXX(.j.T 5 = e I :.7.q.q.0.0.e.e.u.u.i.i.i.u.e.e.0.0.q.q.7.:.I e = 5 T j.(.XX XY.u.:.I s = $ < 9 c V C ",
"C C c h 2 * : a L  .2.F.T.(.A.d.D 5 : e I :.7.q.q.0.0.0.0.0.0.0.0.0.0.0.0.0.0.q.q.0.:.I e : 5 D d.A.(.T.F.2. .L a : * 2 h c V C ",
"C C N z 8 3 3 y B L { #.4.k.d.~ l > = s I :.7.q.q.0.0.0.0.0.0.0.0.0.0.0.0.0.0.q.q.7.:.I s = > l ~ d.k.4.#.{ L B y 0 3 8 z N V C ",
"C C N c z h t y y s b Z U R F l 5 - : s _ :.7.q.q.0.0.0.0.q.q.q.q.q.q.0.0.0.0.q.q.7.:._ s = - 5 l F R U Z b s y y y h z c N C C ",
"C C V N N c x t 0 1 : 1 5 5 5 & + + = s ' :.7.q.q.0.0.0.7.7.7.7.7.7.7.7.0.0.0.q.q.7.:.' s = + + & 5 5 5 1 : : 0 t x c N N N C C ",
"C C C C C V c h 3 * $ $ $ $ $ + O + = s ' :.7.q.q.0.7.3.1.>.:.:.:.:.>.1.3.7.0.q.q.7.:.' s = + O + $ $ $ $ $ * 3 h c V C C C C C ",
"C C C C C C N z 8 2 < % % % % # O + = s _ ;.7.q.q.7.3.:...[ ' I I ' [ ..;.3.7.q.q.7.;._ s = + O # % % % * ; 2 8 z N C C C C C C ",
"C C C C C C N c z t 8 8 8 8 3 ; # + = s _ +.7.q.q.7.1...I G s p p s G I ..1.7.q.q.7.+._ s = + # ; 3 8 8 8 8 h z c N C C C C C C ",
"C C C C C C N N N c c c c c z 4 % $ = s ' :.0.r.r.0.>.[ G w = - - = w G [ >.0.r.r.0.:.' s = $ % 4 z c c c c c N N V C C C C C C ",
"C C C C C C C C C C C C C N c 8 * $ : b { 6.i.a.a.i.6.} b : + X X + : b } 6.i.a.a.i.2.{ b : $ * 8 c V C C C C C C C C C C C C C ",
"C C C C C C C C C C C C C C c 9 ; $ 1 Z @.b.U.Q.Q.U.b.@.n = o     o = n #.b.U.Q.Q.U.b.@.Z 1 $ ; 9 c C C C C C C C C C C C C C C ",
"C C C C C C C C C C C C C C c 8 * $ 5 U *.L.|.+X+X|.L.*.U 1 o     o 1 U *.L.|.+X+X|.L.*.U 5 $ * 8 c C C C C C C C C C C C C C C ",
"C C C C C C C C C C C C C C c 8 % $ 5 R j.(.$X-X-X$X(.z.R 5 O . . O 5 R z.(.$X-X-X$X(.j.R 5 $ % 8 c C C C C C C C C C C C C C C ",
"C C C C C C C C C C C C C C c 8 % $ 6 R l.[.&X>X>X%X[.c.! 6 O . . O 6 ! c.[.%X>X>X%X[.l.R 6 $ % 8 c C C C C C C C C C C C C C C ",
"C C C C C C C C C C C C C C c 8 % $ 6 ! m.}.;X<X,X;X}.M.! 6 O . . O 6 ! M.}.;X<X<X;X}.m.! 6 $ % 8 c C C C C C C C C C C C C C C "
};
