/* XPM */
static char *bc58baec443344ffbdc76d28640faf9568CzLY6d7D8waNAg[] = {
/* columns rows colors chars-per-pixel */
"64 64 250 2 ",
"   c #000A02",
".  c #000C0A",
"X  c #000604",
"o  c #011407",
"O  c #060A17",
"+  c #031314",
"@  c #081A18",
"#  c #121D15",
"$  c #08260C",
"%  c #0B231B",
"&  c #0C2917",
"*  c #12241C",
"=  c #142A1B",
"-  c #162919",
";  c #17381C",
":  c #12330C",
">  c #0C1824",
",  c #0C2322",
"<  c #0D2826",
"1  c #132424",
"2  c #1B2C23",
"3  c #172A29",
"4  c #1C3522",
"5  c #1C3B25",
"6  c #1C332B",
"7  c #1C3A2B",
"8  c #153626",
"9  c #182B34",
"0  c #1B3534",
"q  c #0E3526",
"w  c #233B2C",
"e  c #24392A",
"r  c #223332",
"t  c #283C35",
"y  c #293237",
"u  c #1B4219",
"i  c #23491C",
"p  c #1C4227",
"a  c #2B4A2D",
"s  c #254628",
"d  c #2B5328",
"f  c #315B2A",
"g  c #2B4334",
"h  c #2B4B33",
"j  c #2C433B",
"k  c #274636",
"l  c #334938",
"z  c #2D5535",
"x  c #375939",
"c  c #314A2C",
"v  c #3C623C",
"b  c #3B6537",
"n  c #38652C",
"m  c #446B3C",
"M  c #47733D",
"N  c #406C2F",
"B  c #415B3E",
"V  c #2B3D4A",
"C  c #2C4544",
"Z  c #374947",
"A  c #395746",
"S  c #374B53",
"D  c #39574F",
"F  c #3C6544",
"G  c #3B6454",
"H  c #445949",
"J  c #475856",
"K  c #515D58",
"L  c #434D4D",
"P  c #436C44",
"I  c #4B6C4B",
"U  c #466648",
"Y  c #51674D",
"T  c #4B7244",
"R  c #4B754C",
"E  c #4A7746",
"W  c #537A4D",
"Q  c #4A6754",
"!  c #566858",
"~  c #527454",
"^  c #5B735D",
"/  c #567957",
"(  c #4C7252",
")  c #637B5F",
"_  c #4E5D62",
"`  c #586864",
"'  c #5C7362",
"]  c #597566",
"[  c #556D6B",
"{  c #647A65",
"}  c #677876",
"|  c #646E6B",
" . c #51853B",
".. c #568649",
"X. c #5B8756",
"o. c #5F9258",
"O. c #638C59",
"+. c #65955C",
"@. c #679759",
"#. c #699C50",
"$. c #6DA458",
"%. c #72A75C",
"&. c #78B159",
"*. c #5D8262",
"=. c #678A65",
"-. c #6C9463",
";. c #6C9C62",
":. c #699668",
">. c #729C69",
",. c #6C8676",
"<. c #748679",
"1. c #789A75",
"2. c #778B6F",
"3. c #6DA266",
"4. c #74A363",
"5. c #79AB64",
"6. c #7BAC6B",
"7. c #76A769",
"8. c #7DB36D",
"9. c #7CB565",
"0. c #7CAA73",
"q. c #79A675",
"w. c #7DB474",
"e. c #86BF5E",
"r. c #84997C",
"t. c #82BC65",
"y. c #82B56C",
"u. c #84BB6B",
"i. c #89BD6D",
"p. c #88BF64",
"a. c #85A979",
"s. c #83B474",
"d. c #84BC73",
"f. c #8ABC73",
"g. c #83B57B",
"h. c #85BA7A",
"j. c #8BBC7B",
"k. c #8BB47A",
"l. c #87B26F",
"z. c #89C35C",
"x. c #84C364",
"c. c #8BC465",
"v. c #85C36C",
"b. c #8BC46B",
"n. c #8CC969",
"m. c #93CB6C",
"M. c #85C273",
"N. c #8CC373",
"B. c #8CC37B",
"V. c #8AC874",
"C. c #93CB74",
"Z. c #93C879",
"A. c #9AD27B",
"S. c #95D16D",
"D. c #A2D27D",
"F. c #6B7C85",
"G. c #788A86",
"H. c #799189",
"J. c #7CA181",
"K. c #838E8A",
"L. c #879987",
"P. c #889794",
"I. c #919B8F",
"U. c #89A786",
"Y. c #92A98A",
"T. c #8AB684",
"R. c #95BA88",
"E. c #8DAA96",
"W. c #96AB9B",
"Q. c #9BB39A",
"!. c #98B599",
"~. c #8FB09D",
"^. c #A5BA9B",
"/. c #909AA5",
"(. c #9BB7A4",
"). c #9BABAC",
"_. c #A4B9A6",
"`. c #A9B8B5",
"'. c #B1BBB8",
"]. c #A0AEB2",
"[. c #99C786",
"{. c #9ED288",
"}. c #9CC594",
"|. c #A6D887",
" X c #A3C39C",
".X c #A6CC99",
"XX c #AAD498",
"oX c #B4DC96",
"OX c #A5CC8A",
"+X c #B7E499",
"@X c #AFE496",
"#X c #A8C6A7",
"$X c #B2C7A9",
"%X c #ADD3A4",
"&X c #B5D8A8",
"*X c #B7CBB4",
"=X c #BAD8B7",
"-X c #ACC8B5",
";X c #BAE6A8",
":X c #BCE4B4",
">X c #9FC0A5",
",X c #C3D9BA",
"<X c #C2CFBD",
"1X c #C4E9A9",
"2X c #C6E8B8",
"3X c #CCF3B8",
"4X c #D5F6BA",
"5X c #CCF6AE",
"6X c #B1BFC6",
"7X c #BAC5C5",
"8X c #BBD8C1",
"9X c #C6DAC6",
"0X c #C6D6D7",
"qX c #CBD2D1",
"wX c #C5E2C3",
"eX c #CBE6C7",
"rX c #D5E8CA",
"tX c #CDF4C6",
"yX c #D8F7C7",
"uX c #DAEDD7",
"iX c #DCF3D3",
"pX c #DDFAD6",
"aX c #CEE9D2",
"sX c #EAFECD",
"dX c #E3FBC8",
"fX c #E3FCD5",
"gX c #EBFED4",
"hX c #EBFFDB",
"jX c #E3F8D7",
"kX c #F1FFD7",
"lX c #E1EEDC",
"zX c #DBE6EA",
"xX c #D7ECEA",
"cX c #E6EBEB",
"vX c #E8F4EA",
"bX c #E8EDF8",
"nX c #F3EEF3",
"mX c #EDFCF4",
"MX c #EDFBFE",
"NX c #EAF4F8",
"BX c #F4F5F5",
"VX c #FBF4F5",
"CX c #F3FCF5",
"ZX c #FBFBF6",
"AX c #F4F5FB",
"SX c #FDF6FA",
"DX c #F5FDFD",
"FX c #FDFEFE",
"GX c #F2F0E9",
"HX c #D2DBE0",
/* pixels */
"FXFXFXFXZXFXFXFXFXGXFXFXnXFXAXFXSXSXnXAXFXbX/.V V V V V V j t t L L K _ | F.F.F./.bXDXMXFXFXAXSXFXDXAXBXFXFXFXVXFXFXFXFXFXZXFXFX",
"FXFXFXFXFXFXZXFXFXVXFXSXFXFXSXFXFXGXSXFXbXF.9 > 9 9 9 9 1 1 2 - # # # 2 > 9 9 V > t ].DXDXFXFXFXFXFXFXFXFXSXSXFXZXFXZXFXFXFXFXFX",
"FXFXFXFXFXFXFXFXZXBXZXGXFXFXnXFXcXZXFXnXF.2 O 9 < < > < = - : - # 2 2 - % @ O , % . r W.MXBXcXFXFXDXAXFXFXVXSXFXSXFXFXFXFXFXFXFX",
"FXFXFXFXFXFXFXFXBXFXFXFXFXFXDXFXZXZXcX<.y e l A k k k k s a s a c t c c a s s g g g e A | J ` *XDXDXBXDXFXFXFXFXFXFXFXFXFXFXFXFX",
"FXFXFXFXFXFXFXFXSXFXFXFXFXCXNXvXDX*X| B H I I P M P P M E P T P T T T P T T T T T v ~ U & = l 7 '.zXFXFXFXFXFXVXFXFXFXFXFXFXFXFX",
"FXFXFXFXFXFXFXFXFXAXvXFXFXFXDXqXr.U s U -.>.+.+.@.@.@.@.@.@.+.:.>.>.;.3.4.$.$.#.$.%.-.X./ ^ k   e (.DXFXCXFXFXFXFXFXFXFXFXFXFXFX",
"FXFXFXFXFXFXFXFXFXFXDXFXmXmXZX_.o ; P X.>.j.Z.M.t.t.9.v.9.9.d.d.s.6.6.5.9.9.9.&.#.{.B.+.-.F q p X } vXDXDXDXFXFXFXFXFXFXFXFXFXFX",
"FXFXFXFXFXFXFXFXDXNXFXDX].L._.H p z R :.g.Z.V.v.v.n.n.v.V.V.V.V.B.f.v.V.n.S.m.n.|.t.f.T.o.E F k & <.uXDXDXFXFXFXFXFXFXFXFXFXFXFX",
"VXFXFXFXFXFXFXDXDXDXDXP.H e e g F G 3.q.w.[.{.C.V.m.S.C.n.v.V.V.V.V.V.v.n.S.S.S.n.C.Z.h.q.:.X.F a H _.-XmXFXDXFXFXFXFXFXFXFXDXFX",
"FXFXFXFXAXDXDXAXDXDXP.6 * s H / o.3.w.h.M.[.A.Z.n.m.C.b.v.x.v.v.M.M.V.n.n.c.n.n.b.Z.Z.j.w.w.:.*.~ A 6 Q ,.zXFXbXSXFXFXFXFXFXFXFX",
"FXSXDXFXFXDXDXDXDXMXr . & l U =.w.[.T.h.M.J.V.w.f.f.N.b.v.x.t.x.v.v.v.v.i.p.p.u.u.i.h.h.B.T.J.q.=.I $ & . G.DXAXDXDXSXSXFXFXFXDX",
"ZXSXFXFXFXSXDXDXMX`.3 $ ; l I -.J.w.w.7.3.3.7.3.>.7.5.8.u.v.i.b.v.M.v.t.6.5.4.4.;.>.>.4.w.J.[.T.:.( A $   3 qXDXFXFXSXDXFXFXFXFX",
"FXFXFXFXDXAXMXDXbXD @ o & p ~ k.j.h.6.+.W W ~ I R W O.@.y.y.p.b.V.M.8.5.+.X.E R P T T W O.l.k.R.q.F F $ % + ` MXFXDXFXFXFXFXFXDX",
"FXFXFXAXDXDXDXDX7X, @ o $ ; / >.j.s.;.E x a s 7 g l U W -.l.i.N.[.V.8.:...b a s e s c f T -.l.k.q.F q $ % , 3 zXDXFXFXDXFXFXDXFX",
"SXFXSXAXFXFXMX0XG.9 < 5 5 h ( X.6.$.X.n s ; - @ 6 e x Y -.l.f.N.{.M.w.+.( x 7 2 - - e s N O.y.l.o.( u p % % 9 /.bXDXFXFXFXAXDXFX",
"FXFXFXDXDXDX6X[ 9 S < k 5 z / >.+.+...x s 5 r 3 2 t l ~ -.l.N.N.V.M.7.:.( x t 2 2 2 ; e x W -.>.:.X.x 5 t , J 9 zXbXFXFXFXCXZXFX",
"FXFXNXFXDX].0 0 S D D G G ~ ^ ^ ] X.( Y H H Y ! Y ^ { =.>.i.b.x.i.l.l.l.-.) ! Y K K Q Y Q ( / / ] ' ! Q G G S C r ].FXAXDXFXVXZX",
"FXFXFXDXbXH.0 0 C G } ,.G.,.{ Y J Q ~ =.2.r.r.I.L.I.Y.U.k.f.n.&.i.e.l.k.k.a.r.I.I.L.L.H.,./ F x G ' ,.H.H.,.D t , } HXmXZXFXVXZX",
"FXFXFXDX6XS < 9 C _ H.`.#XE.) l s A / L.^.<X,X,X<X<X*X.XR.j.i.t.p.l.l.OXOX<X<X,X,X9X9X_.J./ z s l ' E.-X`.H.` j @ r ).MXFXFXZXZX",
"FXDXFXMXH.< @ < k ] ~.8X8X_.=.B p z ' R.,XlXkXlXaX9X=X#XOX[.N.N.N.j.Z.^.oX<X<XrXlXvXuX9X!.*.z 5 x =.#X8X=XE.[ l % . K.FXFXZXVXFX",
"FXFXFXFXP.> 1 1 t ] (.wXrX*Xr.Y x Y -. X4XjXlXrX*X`.#X#X}.}.{.{.OX[.OX.X X^.$X*XrXlXlXrX_.:.P f R r.*XaXwX(.' j * X K.FXFXZXSXFX",
"FXFXDXFXP.> 3 % 7 ^ (.aXpX2XR.=.W O.a.$X4XrX,X^.L.L.H.Y..X%X@X;X;X&X%X XR.r.r.L._.9XiXrX%Xa.O...O.R.2XpXaX(.^ t @ + I.FXFXSXFXFX",
"AXFXnXAXP.@ * # t ^ (.wXpXeX Xa.1.a.^.1XrX4X^.r.! Q Q 1.>X:X5X3X3X3X:X X2.! Y ! L._.eXiX2X}.a.7.a..XeXiXwX!./ t # t '.DXSXFXFXFX",
"AXFXVXAX/.# * 1 Z ] U.&XwX2X%XR.R.R..X4XdX,Xk.{ g k Z ,.>X2XyXpXfXpXeX!.O.c e g { U.=XyXtXXX[.j.R.%X2X2X*XY.^ g # Y HXFXCXFXFXFX",
"FXnXBXFXqX` 2 2 y ! L.^.}.%X#X}.R.XX1X2X3X2XU.Y e - t { _.2XpXfXvXfXrX^./ g - - ~ E.2XtX2X:XOX[.}.R..XR. X) H L X K.mXFXAXFXFXFX",
"SXFXFXFXnX7XK X y B H ^ ,.T.T.q.R.XX1X3X3X2Xk.Y - - 0 {  XeXpXhXhXfXeXQ.) s - ; Q U.=XyX3X;XXXj.a.a.U.a.2.) H 2 ` *XFXFXDXFXFXFX",
"ZXFXFXBXFXFX7X` ! Z l B G / :.J.R.XX1X3X4X2XU.Y 4 = w ] !.eXfXkXfXjXeXQ.^ s - ; ( U.:XtXtX;XXX[.>.>.T U B x c K qXSXFXFXFXFXFXDX",
"FXZXnXBXFXFXSXcXW.K 2 - k z G 3.a..X&X3X4X,Xk./ g w j { _.eXfXhXhXfXrX_.) c e a / U.8XtXtX;X{.k.-.=.; e c - - '.FXFXFXAXFXFXDXFX",
"ZXZXFXFXFXVXAXFXSX`.J % & k G *.1.j.XX1X2X=XT.=.Q A Q G.#XrXgXhXkXhXrX$Xr.Y B H :.~.=XtX:X.Xd.4.R U 5 a & - K vXFXFXSXCXFXFXZXDX",
"ZXZXFXZXSXFXFXSXFXFXqXD @ p G G / -.k.OX&XXX!.U.,.,.G.).=XfXkXkXkXgXiX,XQ.r.2.,.U.!.%X=X.Xl.@...P p k 7   H qXDXDXFXFXZXFXDXCXDX",
"ZXZXZXGXVXFXFXFXcXDXDX).D q q 0 f N O.l.}.$X.X!.(.(.-X8XaXjXgXgXgXjXjXrX<X#X(.(.>X#X#X}.0.O.n f z p p 7 J ].FXFXCXFXFXDXFXFXCXZX",
"ZXZXZXZXFXVXnXSXSXAXDXDX8X[ q q ; d M -.k..X&X*X=X9XaXaXiXjXiXyXjXlXjXjXuXeX=X=X-X%X#XT.-.M d u $ k w D mXDXNXFXAXFXFXBXDXFXZXDX",
"ZXFXZXVXSXSXFXVXFXZXDXvX] k 5 q ; a B W 2.a.^.$X=X,X9XeXwX2X9X=X9X9X9XwXeX9X,X,X.X^.a.2.W N u : ! W.L K.FXGXSXFXSXSXSXFXFXFXDXDX",
"ZXFXSXFXSXSXFXFXGXFXDX} Z 8 h p s z v I W O.r.r.a.Y.Q.W.~.E.~.W.~.~.~.~.(.W.Y.Y.r.r.=.) M B d s U.vXlXGXFXFXFXGXFXFXFXFXZXCXDXDX",
"FXZXDXFXFXFXSXAXDXFX9X= = p A F P P U x B B U ! ! ^ ^ ' ^ ' ^ ' ] ` [ ] | | ^ ! Y Y x x B m m U ! { Q.lXDXZXFXSXFXFXFXFXFXFXFXZX",
"ZXFXSXSXFXFXFXAXnX9XH - $ x b =.:.o.R x i - 4 e t y g j t t t y t k k g l l t c e 4 ; p n W X.=./ : c L.uXSXmXFXSXDXFXFXFXDXDXZX",
"vXDXFXGXbXFXDXDX`.S o s ; f M :.q.3.X.x p $ & 1 2 r r r 2 y 2 y 2 2 2 2 r y r 6 < & & 5 z X.3.w.l.m d d W.ZXzXFXDXFXFXAXCXZXCXCX",
"ZXCXDXFXDXMX7XF._ + 6 a n f ;.%.h.7.o.F a p 7 j Z Z Z L Z L Z Z Z L l Z Z Z Z Z C k s z F :.q.[.y.X.n : P ,.G.0XbXFXDXDXBXDXZXZX",
"CXmXmXDXMX7XJ + 0 0 U v ....y.y.V.8.3.o.R I ] ] } ,.F.K.<.<.<.<.2.2.} } ,.G.} ,.*.] G F o.3.w.M.A.%.@.E f ; 7 _ G.6XMXFXDXCXDXZX",
"mXmXMXmX].S , 0 q Q x E O.f.$.i.V.V.t.3.:.:.q.E.(.^.`.`._.'.^.^.^.^.^._._._._.(.~.J.3.:.3.w.w.M.i.%.8.3.P ( Q . X [ 0XDXFXCXCXCX",
"mXMXmXE.C q q < p F *.3.w.h.i.t.x.t.9.M.w.g.}.#X,X9XrXrXrXrXrXrXrXrXrXrXdX2X,X,X%X}.T.g.w.8.v.v.9.M.M.w.:.X.A k < @ Z `.zXmXDXCX",
"MXvX].G < k A q z G *.7.g.d.t.%.#.$.&.8.V.[..X@X1X5XyXdXdXiXsXsXkXsXdXdXsX4X4X,X&XOX[.j.8.5.%.&.$.9.M.w.3.:.F z 8 k 7 w ` 0XDXCX",
"MXE.C 7 p k z F F o.q.w.g.6.#. . . .#.%.f.Z.{.@X1X5X4X4XdXsXkXkXsXsXdXdX4X5X1X1X+XOXZ.M.5.@.......#.8.w.J.w.X.F x A h < 1 ! 7XFX",
"0XG . 7 D z F o.+.7.w.g.s.3...n d n  .#.9.V.C.{.D.D.oX5X4X4XsXkXsXsXdX5X1X+XD.D.|.A.N.y.$...n f n ..3.w.h.w.7.+.X.F F U w + ` DX",
"G.C & & p E :.o.8.M.[.M.a.+.m d p s F +.6.u.i.c.z.m.D.oX1X4XyXdXsXdX4X1XoXD.m.z.m.b.p.5.O.b p u d M +.0.j.[.d.8.5.W b ; 2 % J MX",
"S 0 < & u b $.9.C.{.{.[.k.-.P p & 5 A X.6.d.c.m.e.z.D.D.+X3X4XyXdX4X2X1X|.m.m.z.c.c.y.7.O.x 7 < p b -.k.[.|.[.Z.y.@.M ; & @ S MX",
"S < @ q u f o.V.{.|.@XoX}.1.I 7 < 9 D ] q.f.p.c.z.z.p.D.oX1X,X,X<X,X1XoXD.m.p.z.c.c.i.0.*.A 0 < w I 1..XXX@X|.A.u.$...s 5 . 9 MX",
"V 9 q & u ..5.9.{.@X;X;X%XU.[ 0 < 9 D { q.l.p.e.e.e.p.m.OX.X.X.X$X.X.X[.f.p.e.e.n.n.f.a.] A 9 , t ! U.%X1X1XoX|.y.4.N $ = < V DX",
"V < < q u b :.J.XX:X:XtX8X#X` C 0 3 l O.>.f.Z.m.i.b.C.Z.Z.[.Z.OX}.[.[.V.V.v.x.n.e.m.i.a./ x 0 3 j ] (.8XtXtX=X%XJ.3.P s * . ! zX",
"k q q & ; P :.:.T.}.-XwXaX~.` t 2 4 x X.>.i.Z.i.u.l.f.l.f.i.i.i.M.M.M.M.M.M.v.x.p.c.i.y.O.x 0 3 C [ W.-X=X=X}.J.J.:.s ; l . Z DX",
"H.C & p h z Y O.3.J.#XU.I.` K Z 1 e U O.%.f.C.t.i.N.f.f.f.f.u.f.M.M.w.w.M.M.v.x.e.c.i.l./ x 0 1 t J G.~.(.E.U.1.*.*.z g g + J FX",
"HX[ q 7 g s z m G ( *.G J L Z @ % 5 v O.4.i.D.e.V.M.M.B.j.Z.N.N.B.M.M.M.M.M.v.x.x.b.i.5.O.x 7 < 9 C J [ ] ( A x F z D l - ` HXFX",
"MX8XH.D 7 z x 4 c - e <._.7X| . < 8 b O.%.N.A.t.i.u.d.B.h.B.f.j.B.B.B.h.M.M.M.v.x.c.x.5.X.x 7 & > < 0 j Z l h h l ; g t L 7XDXFX",
"DXDXbXW.H - - # $ X - 9XFXDXqXK.7 ; x o.5.M.m.b.b.M.M.d.s.w.8.8.w.w.w.w.M.M.M.v.c.n.b.5.X.x 7 , + + + , & % & & $ * = ` 0XDXDXbX",
"DXNXNXzXG.2 . - # # } cXFXDXAXzXZ 5 d X.5.t.b.x.V.V.d.0.4.@.@.@.o.o.3.3.3.w.M.v.b.c.p.5.X.v 7 , < > @ , @ o X X . e Q '.DXDXNXFX",
"FXFXFXFXqXI.} ! ! K.CXFXFXDXFX0XD 7 a X.5.t.p.b.x.y.7.;.X.E M b b F E o.;.8.u.v.b.x.i.5.X.x 5 % O @ 9 L [ } <.K.K.P.HXFXDXbXDXFX",
"SXSXFXFXFXVXcXHXZXZXFXAXFXFXcX| % q v X.4.i.m.b.v.s.;...n c u u u u i b ..3.w.M.m.i.i.l.W B 7 % > 9 ].0XbXcXcXDXFXFXFXFXFXFXFXFX",
"DXDXSXFXFXFXVXBXFXFXFXAXDXDX'.V @ 8 F X.6.V.C.A.f.s.>.R f - : : $ u ; z W ;.s.N.Z.m.f.l.O.B 7 * 1 J zXDXDXDXDXFXFXFXFXFXFXFXFXFX",
"FXFXSXFXFXFXFXFXSXFXFXFXFXDX/.* , 0 U :.j.{.|.|.[.[.q.W c - o o $ o : h ~ q.R.[.OXOXD.l.2.I g 1 . | DXFXFXFXSXnXFXFXFXFXFXFXFXFX",
"FXFXFXSXSXFXFXFXSXFXFXFXFXFXK.# < 0 Q 1.[.oX+X+XoX.XU.' l * O X   o & h / U..X&X1XoXoX^.r.Y t 1 O ` FXDXNXFXFXSXFXFXFXFXFXFXFXFX",
"FXFXFXZXSXSXZXSXFXFXFXZXDXFX] X > V ] U.XX1X5X5X2X&X!.,.L 9 O O X O 3 L ,.Q.=X3X4X5X1XXXI.! y 1 O K AXFXFXFXFXFXFXSXFXFXFXFXFXFX",
"FXFXFXFXFXFXFXFXFXFXZXDXBXDX! . 9 C ] Y.&X5XdXyXyX2X^.<.L > O O O O 3 L <._.9XyXdXdX4X<XY.| Z > + K CXFXFXFXSXSXSXFXFXFXFXFXFXFX",
"ZXFXZXFXFXFXFXFXSXFXFXZXCXDXQ @ 9 C } Q.2X4XdXsXdXrX_.G.L y > O O O 9 L G.'.rXfXsXsXsX2X^.| Z 1 + ! FXFXFXFXSXSXFXSXFXFXFXFXFXFX",
"ZXZXZXFXZXZXSXFXVXFXFXFXCXDXH @ 9 Z } ^.2XdXsXgXhXiX*XK._ y > O O > y J K.*XlXkXkXsXsX,X^.{ V 3 # | FXFXSXFXSXFXSXFXSXFXFXFXFXFX"
};
