/* XPM */
static char *_088a2b2cc314a48fbdae7cc11bcefc1Em3iyYYVLeltxNnE[] = {
/* columns rows colors chars-per-pixel */
"64 64 200 2 ",
"   c None",
".  c #77A058",
"X  c #77A158",
"o  c #78A158",
"O  c #79A158",
"+  c #78A258",
"@  c #79A258",
"#  c #78A259",
"$  c #7AA258",
"%  c #7AA358",
"&  c #7BA358",
"*  c #7AA359",
"=  c #7BA359",
"-  c #7CA459",
";  c #7DA459",
":  c #7DA559",
">  c #7EA559",
",  c #7EA659",
"<  c #7FA659",
"1  c #7DA55A",
"2  c #7EA55A",
"3  c #7EA65A",
"4  c #7FA65A",
"5  c #80A65A",
"6  c #80A75A",
"7  c #81A75A",
"8  c #81A85A",
"9  c #83A95A",
"0  c #82A85B",
"q  c #82A95B",
"w  c #83A95B",
"e  c #84A95A",
"r  c #84AA5B",
"t  c #85AA5B",
"y  c #85AB5B",
"u  c #86AB5B",
"i  c #86AB5C",
"p  c #86AC5C",
"a  c #87AC5C",
"s  c #87AD5C",
"d  c #88AD5C",
"f  c #89AD5C",
"g  c #89AE5D",
"h  c #8AAE5C",
"j  c #8AAF5C",
"k  c #8AAE5D",
"l  c #8AAF5D",
"z  c #8BAF5D",
"x  c #8CAF5D",
"c  c #8CB05D",
"v  c #8DB15D",
"b  c #8EB15D",
"n  c #8DB15E",
"m  c #8FB25E",
"M  c #90B35E",
"N  c #92B45E",
"B  c #92B45F",
"V  c #93B55F",
"C  c #94B55E",
"Z  c #94B65F",
"A  c #95B760",
"S  c #96B760",
"D  c #96B860",
"F  c #97B860",
"G  c #98B860",
"H  c #98B960",
"J  c #99B960",
"K  c #99BA60",
"L  c #99BA61",
"P  c #9ABA60",
"I  c #9ABA61",
"U  c #9ABB61",
"Y  c #9BBB61",
"T  c #9BBC61",
"R  c #9CBC61",
"E  c #9DBC61",
"W  c #9DBD61",
"Q  c #9EBD61",
"!  c #9EBD62",
"~  c #9EBE62",
"^  c #9FBE62",
"/  c #9FBF62",
"(  c #A0BF62",
")  c #A1BF62",
"_  c #A0C062",
"`  c #A1C062",
"'  c #A0C063",
"]  c #A1C063",
"[  c #A2C062",
"{  c #A2C162",
"}  c #A2C063",
"|  c #A2C163",
" . c #A3C163",
".. c #A3C263",
"X. c #A4C263",
"o. c #A5C263",
"O. c #A4C363",
"+. c #A5C363",
"@. c #A6C363",
"#. c #A5C264",
"$. c #A4C364",
"%. c #A5C364",
"&. c #A6C364",
"*. c #A7C364",
"=. c #A6C464",
"-. c #A7C464",
";. c #A6C465",
":. c #A7C465",
">. c #A7C565",
",. c #A8C464",
"<. c #A8C564",
"1. c #A8C465",
"2. c #A8C565",
"3. c #A9C565",
"4. c #AAC565",
"5. c #A9C665",
"6. c #AAC665",
"7. c #A8C566",
"8. c #A9C566",
"9. c #AAC566",
"0. c #A9C666",
"q. c #AAC666",
"w. c #ABC666",
"e. c #ABC766",
"r. c #ABC767",
"t. c #ACC766",
"y. c #ACC767",
"u. c #ADC767",
"i. c #ACC867",
"p. c #ADC867",
"a. c #AEC867",
"s. c #ADC868",
"d. c #AEC868",
"f. c #AEC968",
"g. c #AFC968",
"h. c #AFCA68",
"j. c #AFCA69",
"k. c #B0C968",
"l. c #B0C969",
"z. c #B0CA68",
"x. c #B1CA68",
"c. c #B0CA69",
"v. c #B1CA69",
"b. c #B1CB69",
"n. c #B2CB69",
"m. c #B3CB69",
"M. c #B2CB6A",
"N. c #B3CB6A",
"B. c #B2CC6A",
"V. c #B3CC6A",
"C. c #B3CC6B",
"Z. c #B4CC6A",
"A. c #B4CD6A",
"S. c #B5CD6A",
"D. c #B4CC6B",
"F. c #B5CC6B",
"G. c #B4CD6B",
"H. c #B5CD6B",
"J. c #B6CD6B",
"K. c #B6CE6B",
"L. c #B7CE6B",
"P. c #B6CD6C",
"I. c #B6CE6C",
"U. c #B7CE6C",
"Y. c #B7CF6C",
"T. c #B8CE6C",
"R. c #B8CF6C",
"E. c #B9CF6C",
"W. c #B8CF6D",
"Q. c #B9CF6D",
"!. c #BACF6D",
"~. c #B9D06C",
"^. c #B9D06D",
"/. c #BAD06D",
"(. c #BBD06D",
"). c #BAD16D",
"_. c #BBD16D",
"`. c #BAD06E",
"'. c #BBD06E",
"]. c #BAD16E",
"[. c #BBD16E",
"{. c #BCD16E",
"}. c #BDD16E",
"|. c #BCD26E",
" X c #BDD26E",
".X c #BDD26F",
"XX c #BDD36F",
"oX c #BED26E",
"OX c #BED26F",
"+X c #BED36F",
"@X c #BFD36F",
"#X c #BFD46F",
"$X c #BFD370",
"%X c #BFD470",
"&X c #C0D370",
"*X c #C0D470",
"=X c #C1D470",
"-X c #C0D570",
";X c #C1D570",
":X c #C1D571",
/* pixels */
"                                                                                                                                ",
"                      @ @ . @ @ @ @ @ @ @ @ @ @ # @ @ @ O @ @ @ @ @ @ @ @ @ . @ @ @ @ @ @ @ @ # @ @ @ @ @                       ",
"                  = @ @ @ - 8 s y y u a y y y y w = . @ = 5 y y y y s y - @ - w s y y u y y y y y y 1 @ O O @                   ",
"            @ - - - - - - y H | ' Q ) ) ( ( ( ( S g 4 # y M ) ) ( ( ( H g - g D Q [ Q [ ( / ( ( ( D y 4 5 - - = @ @             ",
"        . @ 5 M G G S S H H X.X.X.X.X.X.=.X.=.X.| H G G H / $.$.$.X.$.) Y G H ) $.=.$.X.=.X.X.X.$.( Y G G S G g - O O O         ",
"        @ 8 M Q $.X.X.X.$.$.X.X.X.X.X.X.=.i.3.X.$.=.$.$.$.$.$.3.u.u.$.$.$.$.$.,.3.g.v.x.x.u.3.$.$.$.) ,.) $.$.H b g 8 O         ",
"      @ 5 b | X.X.X.X.X.$.3.,.,.3.3.5.6.x.S.m.5.u.,.,.$.,.,.$.s.N.N.3.,.,.u.,.s.S.$X=X.XXXS.3.3.,.$.$.$.,.) X.X.[ | g & @       ",
"      - b Q $.X.X.X.X.,.v.S.u.v.[.~.~..X.XXX.X[.E.I.v.g.E.E.D.v.E..Xv.v.v.E.!.E..X%X=X;X;XE.a.m.l.9.,.) $.,.,.) | | x @ .       ",
"      @ s H X.X.X.X.=.v.E..XE.E.[.Y..X=X=X=X.X.XE.E.[.[.XXXX[.[..X;XE.E.[.=X[.Y.[..X=X=X=X[.[..XE.I.S.3.3.v.3.=.=.[ x @ @       ",
"    @ @ @ x [ X.X.,.a.[.=X%X%X$X[.m.E.=X%X=X.X[.I.E.XX=X=X;XXX=X.X[..X.X=X=X[.m.[..X=X=X%X=XXX;X=X=X%XS.S.[.v.3.=.| S 5 @ @     ",
"    @ @ 5 M [ X.,.g.[.=X%X=X%X=X%X.XXX%X=X%X=XXX$X.X=X%X=X=X%X=X.XS.S.[.=X=XXX.XXX=X%X=X=X=X;X;X=X%X=XXX%X%X.XS.3.$.) S = @     ",
"  @ @ @ b Y X.X.u.E.%X=X=X%X=X%X=X=X=X=X%X=X%X=X%X=X%X=X%X=X=X%X.X[..X.X=X=X=X%X=X%X=X%X=X.X.X.X%X=X%X=X%X=X&X.XC.3.$.H 5 @ @   ",
"  . @ 4 G X.X.X.a.[.%X%X%X=X%X=X=X%X=X%X=X%X=X%X=X%X=X%X%X=X%X=X&X;X%X=X%X=X%X=X=X%X=X%X=X[.E.[.$X=X%X=X;X.X;X;X.X,.$.Y b - @   ",
"  @ - y Y X.,.u.i.m..X=X=X%X=X%X=X=X%X=X%X=X%X=X%X=X%X=X=X%X=X%X;X&X=X%X=X%X=X%X%X=X%X=X;X[.v.[.$X%X=X%X.X.X.X;X!.u.$.$.Q y @   ",
"  @ w H [ X.3.S.[.[.%X=X=X%X%X=X.X.X.X=X=X%X=X%X=X%X=X%X%X=X%X=X.X=X%X=X%X=X%X=X=X%X=X%X.X.X[..X%X=X%X=XE.N..X&X.Xu.$.| H y @   ",
"  @ y | X.X.3..X;X.X%X=X%X=X=X.X[.I.[.=X%X=X%X=X%X=X%X=X=X%X=X%X=X=X=X%X=X%X=X%X%X=X%X=X;X;X&X;X%X%X=X%X[.S..X;X.XN.9.Q b 5 @   ",
"  @ i ( $.$.u.E..X[..X=X=X%X=XXX[.m.[.;XXX=X%X=X%X=X%X=X%X=X%X=X%X=X%X=X%X=X%X=X%X=X%X=X%X=X%X=X=X%X=X%X%X=X%X%XXX[.g.D - @ @   ",
"  @ y / $.$.g.E.S.m..X=X%X=X%X=XXX.XXX%X=X=X=X%X=X%X=X%X=X%X=X%X=X%X=X%X=X%X=X%X=X%X=X%X=X%X=X%X%X=X%X=X=X%X=X=X.Xv.3.H y = @   ",
"  @ y ( $.s.E.$X[.[.XX%X=X%X=X%X=X=X%X=X%X=X%X=X%X=X%X=X%X=X%X=X%X=X%X=X%X=X%X=X%X=X%X=X%X=X%X=X=X%X=X%X%X=X%X=X.XS.a.[ S 8 @   ",
"  @ y ( $.g.$X$X=X=X=X=X%X=X%X=X=X%X=X%X=X%X=X%X=X%X=X%X=X%X=X%X=X%X=X%X=X%X=X%X=X%X=X%X=X%X=X%X%X=X%X=X=X%X=X%XXX;Xx.X.) y @   ",
"  @ s Q $.s.E.$X=X=X%X%X=X%X=X%X%X=X%X=X%X=X%X=X%X=X%X=X%X=X%X=X%X=X%X=X%X=X%X=X%X=X%X=X%X=X%X=X=X%X;X&X;X&X%X=X=X&Xv.$.Q y @   ",
"  @ y [ $.3.v..X.X[.%X=X%X=X%X=X=X%X=X%X=X%X=X%X=X%X=X%X=X%X=X%X=X%X=X%X=X%X=X%X=X%X=X%X=X%X=X%X%X=X&X;X.X;X=X%X=X.Xx.$.Q s @   ",
"  @ s Q =.3.S..X[.I.$X%X=X%X=X%X%X=X%X=X%X=X%X=X%X=X%X=X%X=X%X=X%X=X%X=X%X=X%X=X%X=X%X=X%X=X%X=X=X$X.X.X=X=X%X=X=X.Xv.$.( y @   ",
"  @ y Q =.v.&X.XI.S..X=X%X=X&X$X=X%X=X%X=X%X=X%X=X%X=X%X=X%X=X%X=X%X=X%X=X%X=X%X=X%X=X%X=X%X=X%X%X$XI..X=X%X=X%X.XI.s.$.( y @   ",
"  . w D | g.E.$X$X.X=X%X%X.X.X.X%X=X%X=X%X=X%X=X%X=X%X=X%X=X%X=X%X=X%X=X%X=X%X=X%X=X%X=X%X=X%X=X.X.XS.E..X&X.X.XS.s.$.[ H u @   ",
"  @ - g H 3.g.E.$X=X%X=X.X.XS.E.=X%X=X%X=X%X=X%X=X%X=X%X=X%X=X%X=X%X=X%X=X%X=X%X=X%X=X%X=X%X=X%X;X.XE..X.X;X;X[.v.$.X.Y g - @   ",
"  @ @ - S $.$.v.[.=X=X%X$X[.S.[.%X=X%X=X%X=X%X=X%X=X%X=X%X=X%X=X%X=X%X=X%X=X%X=X%X=X%X=X%X=X%X=X&X;X;X;X;X;XXX[.a.=.$.S @ @ .   ",
"  . @ - G $.=.v.[.%X=X=X=X$X$X.X=X%X=X%X=X%X=X%X=X%X=X%X=X%X=X%X=X%X=X%X=X%X=X%X=X%X=X%X=X%X=X%X;X&X.X;X&X;X;X[.v.3.$.S - . @   ",
"  @ = y H $.$.S.[.XX[..X;X;X=X=X%X=X%X=X%X=X%X=X%X=X%X=X%X=X%X=X%X=X%X=X%X=X%X=X%X=X%X=X%X=X%X=X.X=X%X=X.X;X;XS.u.,.$.H y - @   ",
"  @ - A Q ,.u..X;X[.S.[.;X.X%X=X=X%X=X%X=X%X=X%X=X%X=X%X=X%X=X%X=X%X=X%X=X%X=X%X=X%X=X%X=X%X=X%X=X=X=X%X;X;X&XS.=.X.X.Q M 5 @   ",
"  @ y / $.3.N..X;X.XS..X;X.X=X%X%X=X%X=X%X=X%X=X%X=X%X=X%X=X%X=X%X=X%X=X%X=X%X=X%X=X%X=X%X=X%X=X%X=X%X=XXX;X.X[.g.=.X.X.Q y @   ",
"  @ s / $.l..X&XXXXX.X.X&X;X=X=X=X%X=X%X=X%X=X%X=X%X=X%X=X%X=X%X=X%X=X%X=X%X=X%X=X%X=X%X=X%X=X%X=X%X=X%X.X[..X$XE.3.$.$.[ s @   ",
"  @ s [ =.g.[.$X=X%X=X=X%X=X%X=X=X%X=X%X=X%X=X%X=X%X=X%X=X%X=X%X%X=X%X=X%X=X%X=X%X=X%X=X%X=X%X=X%X=X%X=X[.N..X;X.X3.X.X.) y @   ",
"  @ y Q | 3.m.$X%X=X%X%X=X%X=X%X%X=X%X=X%X=X%X=X%X=X%X=X%X=X%X=X=X%X=X%X=X%X=X%X=X%X=X%X=X%X=X%X=X%X=X%X[.I..X.X.X3.X.X.) y @   ",
"  @ 5 C Q =.3.$X=X=X%X=X%X=X%X=X=X%X=X%X=X%X=X%X=X%X=X%X=X%X=X%X%X=X%X=X%X=X%X=X%X=X%X=X%X=X%X=X=X=X%X=X$X.X.X;X[.3.$.X.Q y @   ",
"  @ @ u H $.=.$X=X%X=X=X=X%X=X%X%X=X%X=X%X=X%X=X%X=X%X=X%X=X%X=X=X%X=X%X=X%X=X%X=X%X=X%X=X%X=X%X.X[..X%X=X=X=X.XS.3.X.X.| g @   ",
"  . @ - D =.3.E.%X=X%XXX;X;X.X=X=X%X=X%X=X%X=X%X=X%X=X%X=X%X=X%X%X=X%X=X%X=X%X=X%X=X%X=X%X=X%X=XE.S.[.%X=X%X;XE.g.=.$.| Q y @   ",
"  @ 5 M Q X.=.v.[.%X.X~.I.%X=X=X%X=X%X=X%X=X%X=X%X=X%X=X%X=X%X=X=X%X=X%X=X%X=X%X=X%X=X%X=X%X=X%X[.I..X$X=X=X;X[.v.$.$.Q b 5 @   ",
"  @ y H [ $.X.x.[.;XXXE.I.%X%X=X=X%X=X%X=X%X=X%X=X%X=X%X=X%X=X%X%X=X%X=X%X=X%X=X%X=X%X=X%X=X%X=X.X.X.X=X[.[..X.XE.v.3.H 5 @ @   ",
"  @ s | X.,.3.S..X;XXX[.[.%X=X%X%X=X%X=X%X=X%X=X%X=X%X=X%X=X%X=X=X%X=X%X=X%X=X%X=X%X=X%X=X%X=X%X;X;X=X=X[.m.[.XX$X[.g.H 5 @ @   ",
"  @ y ( $.u.I.$X%X=X%X=X%X=X%X=X=X%X=X%X=X%X=X%X=X%X=X%X=X%X=X%X%X=X%X=X%X=X%X=X%X=X%X=X%X=X%X=X=X=X;X&X[.[..X%X$X$Xv.' M 8 @   ",
"  @ y / $.s.N..X=X=X=X%X=X%X=X%X%X=X%X=X%X=X%X=X%X=X%X=X%X=X%X=X=X%X=X%X=X%X=X%X=X%X=X%X=X%X=X%X%X=X.X;X.X.X.X=X=X%Xv.=.Q y @   ",
"  @ y ( =.3.N..X=X%X=X%X%X=X%X=X=X%X=X%X=X%X=X%X=X%X=X%X=X%X=X%X%X=X%X=X%X=X%X=X%X=X%X=X%X=X%X=X=X%X.X;X;X;X=X=X$X[.a.| H w @   ",
"  @ y ( X.u.E..X%X=X%X=X=X%X=X%X%X=X%X=X%X=X%X=X%X=X%X=X%X=X%X=X=X%X=X%X=X%X=X%X=X%X=X%X=X%X=X%X%X=X;X&X;X&X.X;X[.v.=.H s = @   ",
"  @ y / =.3.m.$X;X&X;X=X=X%X%X=X=X%X=X%X=X%X=X%X=X%X=X%X=X%X=X%X%X=X%X=X%X=X%X=X%X=X%X=X%X=X%X=X=X=X=X%X=X=X=X;X.X3.$.H - @ @   ",
"  @ 5 S ) X.3.m..X=X.X=X%X=X=X%X%X=X%X=X%X=X%X=X%X=X%X=X%X=X%X=X=X%X=X%X=X%X=X%X=X%X=X%X=X%X=X%X%X.XE..X.X;X%X.Xv.3.X.H g - @   ",
"  @ @ y H $.=.g.E.XX%X=X.X.X$X=X=X%X=X%X=X%X=X%X=X%X=X%X=X%X=X%X%X=X%X=X%X=X%X=X%X=X%X=X%X=X%X=X;X[.v.E..X;X&XE.g.$.X.X.H w @   ",
"  @ @ 4 D =.=.m..X%X=X$XE.S.[.=X%X=X%X=X%X=X%X=X%X=X%X=X%X=X%X=X=X%X=X%X=X%X=X%X=X%X=X%X=X%X=X%XXX.X[..X&X.X;X.XS.3.$.| ) y @   ",
"  @ 4 g Y ,.,.l.E.&X=X.X.XS..X;X;X;XXX=X=X%X=X%X=X%X=X%X=X%X=X%X=X%X=X%X%X=X%X=X%X=X%X=X%X=X%X=X;X=X.X;X=X%X=X[.a.=.X.X.[ y @   ",
"  @ y Y ) ,.,.u.E.&X%X=X.X.X&X.X.X[..X=X%X=X=X=X%X=X%X=X%X=X%X=X%X=X%X=X=X%X=X%X=X%X=X%X=X%X=X=X;X.X=XXX%X=X%XE.a.,.$.[ H y @   ",
"  @ y / $.$.,.E..X=X=X%X;X;X;X.X[.v.E.=X=X=X%XXX%XXX=X%X=X%X=XXX=X%X=X%X%X%X=X=X%X=X%X=X%X=X.X=X%X=X=X=X=X%X=X.XS.3.$.H y @ @   ",
"  @ - g Y $.3.E.&X=X%X=X&XXX;X&X[.E..X%X%X=X.X[.S.[.=X=X%X=X=X;X%X=X%X=X=XI.S.[.=X%X=X%X=X%X;X&X=X%X=X%X%X=X=XXX[.3.$.G 5 @ @   ",
"  @ = 5 H $.,.N.S.[..X&X;X;X;X.XXXXX=X=X=X=X.X[.I.[.=X=X=X=X;X;X=X%X=X=XXXE.S..X%X=X%X=X;X.X;X[.[..X;X[.E..X=X.XD.,.$.S - @ @   ",
"    @ - G $.X.,.u.S..X;X.X&X;X.X=X%X=X%X=X=XXX.X.XXX.X;X%XXXXXXX%X=X=X%X=X.X%X.X=X%X=X%X&X;X.Xv.S..X&Xv.S..X&XI.s.$.( S - @     ",
"    @ - S $.$.,.a..X&X;X.X.XS.S.%X=X%X=X=X%X=X%X;X;X;X&X.XS.S..X;X;X%X=X%X=X=X%X=X%X%X=X;X&X.X[..X;X;X[.[.&X;XS.,.) S 5 @ @     ",
"      = g H $.X.u.S..X&X.XS.N.[.=X%X=X=X%X=X%X&X.X~.E.;X.X[.[..X;XXX[.[..X=X[.E.[.%X=X%X;X.X;X;X;XXX&X;X;X.XS.a.$.) x @ @       ",
"      @ - b [ X.$.a.E.E.I.s.N.E.$X$X[.$X&X=X%X$XD.v.v.E..X[.&X=XXXXXm.g.m.$XC.i.C.'.$X$X$X$X.X.X&X.X.XE..XE.u.,.$.$.x @ @       ",
"      @ @ g | X.X.$.3.3.,.$.,.s.v.I.C.v.$X%X$XE.s.$.,.3.a.I.$X=X.XS.3.=.3.3.=.=.,.D.$X$X%XI.v.E..X[.v.u.3.3.$.X.$.( g @ O       ",
"        @ 5 M Q X.X.$.$.X.X.$.$.3.s.9.3.g.v.a.3.$.X.$.$.=.i.v.v.a.3.=.| $.=.$.$.$.,.g.v.g.3.3.g.v.u.,.$.$.$.$.$.( M 5 @         ",
"        @ @ 8 M H G G S G Y ) Y H H ( $.X.$.X.) H S H H | $.$.$.=.[ Q U S D H ) $.$.$.$.=.) H H Q X.$.Y G G G H A = @ O         ",
"            = - - - - - 5 a C b 4 y A ( ) ) Q S 0 = - x H ( ( ( ( Q A y - = g G ( ( ( ( ) S y - b Y Q b 5 - - - - @             ",
"                  @ @ . @ = 5 5 @ @ 5 y y y 8 - = @ @ - w s y y y y 5 @ @ @ - w y y y y y 5 = @ - y y - @ @ @                   ",
"                      @ @ @ O O @ @ @ @ @ @ @ @ @ @ @ @ @ @ @ @ @ @ @ @ . @ @ . @ @ @ @ @ @ @ . @ @ @ @ @                       ",
"                                                                                                                                "
};
