/* XPM */
static char *_ac4a64c3c9c4d5197d95652e454ed07wZpN5icVOGDcvKVa_0[] = {
/* columns rows colors chars-per-pixel */
"64 64 256 2 ",
"   c #000E1A",
".  c #03121E",
"X  c #061720",
"o  c #071A22",
"O  c #0A1C23",
"+  c #0C2227",
"@  c #0D2428",
"#  c #0E2D2C",
"$  c #122629",
"%  c #122D2D",
"&  c #182F2B",
"*  c #122527",
"=  c #1A322D",
"-  c #122F30",
";  c #1B2C31",
":  c #133331",
">  c #1C3430",
",  c #163935",
"<  c #1C3D36",
"1  c #20382F",
"2  c #213436",
"3  c #253739",
"4  c #263A3A",
"5  c #213A30",
"6  c #1D463C",
"7  c #1E493E",
"8  c #1F4036",
"9  c #274334",
"0  c #294534",
"q  c #2D4C36",
"w  c #224A3D",
"e  c #2C4D3A",
"r  c #2A453F",
"t  c #30473F",
"y  c #304F39",
"u  c #2E503A",
"i  c #34533B",
"p  c #3A5D3D",
"a  c #305037",
"s  c #224C40",
"d  c #284E43",
"f  c #334B41",
"g  c #364846",
"h  c #245444",
"j  c #285746",
"k  c #2A5D49",
"l  c #275B48",
"z  c #385541",
"x  c #3B5A42",
"c  c #3F524E",
"v  c #385548",
"b  c #3F5951",
"n  c #2E644E",
"m  c #3D6242",
"M  c #306750",
"N  c #306850",
"B  c #425B4B",
"V  c #40534E",
"C  c #435A53",
"Z  c #4A5E55",
"A  c #445752",
"S  c #416344",
"D  c #466948",
"F  c #4D754B",
"G  c #4F794A",
"H  c #497445",
"J  c #537D4C",
"K  c #4B6254",
"L  c #4F635B",
"P  c #496455",
"I  c #52655C",
"U  c #556A5E",
"Y  c #506B56",
"T  c #577B55",
"R  c #576961",
"E  c #5B6D64",
"W  c #536461",
"Q  c #5D7264",
"!  c #657A6D",
"~  c #637C67",
"^  c #6C7F73",
"/  c #56814F",
"(  c #58834F",
")  c #578150",
"_  c #5A8551",
"`  c #5E8A54",
"'  c #5E8558",
"]  c #5F8858",
"[  c #618B59",
"{  c #639356",
"}  c #66965A",
"|  c #6A9C5B",
" . c #6EA15D",
".. c #72A75F",
"X. c #74AB5F",
"o. c #6A8D66",
"O. c #688866",
"+. c #6D9565",
"@. c #71946B",
"#. c #6E8273",
"$. c #738777",
"%. c #7C927D",
"&. c #7D9A79",
"*. c #779474",
"=. c #73A562",
"-. c #75AA62",
";. c #78AD64",
":. c #7FAF6D",
">. c #78A66A",
",. c #7CB465",
"<. c #7FB36A",
"1. c #7FB966",
"2. c #819C7D",
"3. c #80B36C",
"4. c #84BD6A",
"5. c #80BA67",
"6. c #8DBA7C",
"7. c #85B672",
"8. c #85A87C",
"9. c #86C06C",
"0. c #8AC56E",
"q. c #8CCA6F",
"w. c #8CC473",
"e. c #8ECA71",
"r. c #90C677",
"t. c #91CB75",
"y. c #92C779",
"u. c #93C97A",
"i. c #9AD17E",
"p. c #97D07A",
"a. c #7F9481",
"s. c #859B86",
"d. c #899E8A",
"f. c #839884",
"g. c #8DA38C",
"h. c #88A086",
"j. c #90A58F",
"k. c #93AD8E",
"l. c #91BB81",
"z. c #92B686",
"x. c #93A792",
"c. c #95AA93",
"v. c #99AE97",
"b. c #9CB695",
"n. c #8FB384",
"m. c #A4BA9F",
"M. c #A1B69D",
"N. c #A8BEA2",
"B. c #99C685",
"V. c #9BCD84",
"C. c #96C085",
"Z. c #9ED284",
"A. c #A1D586",
"S. c #A4D38D",
"D. c #A7D88E",
"F. c #A6DA8A",
"G. c #A4C697",
"H. c #A6C798",
"J. c #AACD9A",
"K. c #A5CB94",
"L. c #A7D590",
"P. c #A8D592",
"I. c #ACDB94",
"U. c #AFD69C",
"Y. c #B0DC99",
"T. c #A0CF8A",
"R. c #B4E39B",
"E. c #ABE08E",
"W. c #ABC1A4",
"Q. c #B3C8AB",
"!. c #B8DFA3",
"~. c #B7D2AB",
"^. c #BAD5AD",
"/. c #B3D7A1",
"(. c #B9CFB0",
"). c #BCD1B4",
"_. c #BAE2A4",
"`. c #BEE3A9",
"'. c #BBEAA0",
"]. c #C0D7B5",
"[. c #C2D9B7",
"{. c #C6DDBB",
"}. c #C9DFBD",
"|. c #C1E6AD",
" X c #C3E9AD",
".X c #C7EAB2",
"XX c #C9EAB6",
"oX c #CAE0BE",
"OX c #C4E6B0",
"+X c #D1EEBE",
"@X c #CDF3B6",
"#X c #CFE6C2",
"$X c #D4EBC5",
"%X c #D5F1C2",
"&X c #D9F4C7",
"*X c #DDF5CC",
"=X c #DEFACC",
"-X c #E0FACE",
";X c #E4FBD3",
":X c #E9FFD7",
">X c #ECFFDA",
",X c #F0FFDD",
"<X c #F3FFE0",
"1X c black",
"2X c black",
"3X c black",
"4X c black",
"5X c black",
"6X c black",
"7X c black",
"8X c black",
"9X c black",
"0X c black",
"qX c black",
"wX c black",
"eX c black",
"rX c black",
"tX c black",
"yX c black",
"uX c black",
"iX c black",
"pX c black",
"aX c black",
"sX c black",
"dX c black",
"fX c black",
"gX c black",
"hX c black",
"jX c black",
"kX c black",
"lX c black",
"zX c black",
"xX c black",
"cX c black",
"vX c black",
"bX c black",
"nX c black",
"mX c black",
"MX c black",
"NX c black",
"BX c black",
"VX c black",
"CX c black",
"ZX c black",
"AX c black",
"SX c black",
"DX c black",
"FX c black",
"GX c black",
"HX c black",
"JX c black",
"KX c black",
"LX c black",
"PX c black",
"IX c black",
"UX c black",
/* pixels */
"N N N N N N N N N N N N N N N N N N N N N N N N N N N N N N N N N N N N N N N N N N N N N N N N N N N N N N N N N N N N N N N N ",
"N N N N N N N N N N N N N N N N N N N N M N M M N N N N N M N N M M N N N N N N N N N N N N N N N N N N N N N N N N N N N N N N ",
"N N N N N N N N N N N N N N n n n k k k k k k k k k k k k k k k k k k k k k k n n M N N N N N N N N N N N N N N N N N N N N N N ",
"N N N N N N N N N N N N N N n k h s 7 6 6 6 6 6 7 7 7 7 7 7 7 7 6 6 6 6 6 7 s h k n N N N N N N N N N N N N N N N N N N N N N N ",
"N N N N N N N N N N N N N N n h 6 , : % - : : : : : : : : : : : : : : - % : , 6 h n N N N N N N N N N N N N N N N N N N N N N N ",
"N N N N N N N N N N N N N n k s < % @ + + @ @ @ @ @ @ @ @ @ @ @ @ @ @ + + @ % < s k M N N N N N N N N N N N N N N N N N N N N N ",
"N N N N N N N N N N M n n k h w 8 = & & & & & & & & & & & & & & & & & & & & = < w j k n n M N N N N N N N N N N N N N N N N N N ",
"N N N N N N N N N N n k h s w w e i i i i i i i i i i i i i i i i i i i i i i q w w s h k n N N N N N N N N N N N N N N N N N N ",
"N N N N N N N N N N n h 6 , < e m F / ) ) / / / / / / / / ) ) ) / / / ) ) / F m e < , 6 h n N N N N N N N N N N N N N N N N N N ",
"N N N N N N N N N M k s , % > i F } -.;.-.-.-.-.-.-.-.-.-.-.-.-.-.-.-.;.;.-.} F i > % , s k N N N N N N N N N N N N N N N N N N ",
"N N N N N N n n n k j w < > 9 S ` -.4.0.0.9.9.9.4.4.4.4.4.4.4.4.4.4.9.0.0.4.-.` m 9 > < w j k n n n N N N N N N N N N N N N N N ",
"N N N N N N n k h s w w e i S J | 4.e.t.t.e.e.e.q.0.0.0.0.0.0.0.0.0.0.e.e.0.1.| J S i e w w s h k n N N N N N N N N N N N N N N ",
"N N N N N N n h 6 < < e m F ` | ,.9.e.t.e.e.e.e.0.0.0.0.0.0.0.0.0.0.0.0.0.0.4.;.| ` F m e < < 6 h n N N N N N N N N N N N N N N ",
"N N N N N N k s , % = i F } -.1.4.4.9.9.9.9.9.9.9.9.9.9.9.9.9.9.9.9.9.9.9.9.4.4.1.-.} F i = % , s k N N N N N N N N N N N N N N ",
"N N N N N N k 6 : @ & i ) -.4.4.,.-.-.=.=.-.-.,.4.4.9.9.9.9.9.9.9.9.9.9.9.9.9.0.0.4.-./ i & @ : 6 k N N N N N N N N N N N N N N ",
"N N N N N N k 6 % + & i _ ;.4.,.| _ J G G J _ } -.4.0.0.0.9.9.9.4.4.4.4.4.4.9.0.e.0.;.) i & + % 6 k N N N N N N N N N N N N N N ",
"N N N N N N k 6 % + & i _ -.,.| J p q 0 0 q p J | ,.0.e.0.9.9.4.4.4.4.4.4.4.9.0.q.0.;.) i & + % 6 k N N N N N N N N N N N N N N ",
"N N N N N N k 6 % @ = i _ -.-.{ D 0 = $ $ = 9 S ` -.4.0.0.9.9.9.9.9.9.9.9.9.9.0.0.9.-./ i & @ - 6 k N N N N N N N N N N N N N N ",
"N N N N N N k 6 : @ = i _ -.;.} F f 4 2 2 3 t S T | -.,.4.4.0.w.w.y.y.y.y.y.y.t.e.9.-./ i & @ % 6 k N N N N N N N N N N N N N N ",
"N N N N N N k 6 : @ & i / ..<.>.o.Q R W W I I Y Y J _ { ..1.w.u.V.S.L.L.L.L.S.Z.u.w.-./ i & @ % 6 k N N N N N N N N N N N N N N ",
"N N N N N M k 6 : @ & i / ..4.6.z.k.c.c.x.g.f.! Y x p H { ,.w.Z.I.!.`. X X`.!.I.Z.w.-.J i & @ % 6 k N N N N N N N N N N N N N N ",
"N N N N N N k 6 : @ & i / -.w.T.U.^.[.}.}.[.W.f.U t 0 p ( -.r.D._.XX%X*X&X%XXX_.D.r.-.J i & @ % 6 k N N N N N N N N N N N N N N ",
"N N N N N N k 6 % @ = i ' <.V.L./.^.{.$X*X*X{.v.! c f m _ ;.y.I. X%X-X;X;X-X%X XI.y.-.J i & @ % 6 k N N N N N N N N N N N N N N ",
"N N N N N N k 6 % @ > B o.l.K.K.b.b.m.(.#X*X$XQ.d.! Q T +.<.y.I. X%X;X:X:X;X&X.XI.y.-.J i & @ % 6 k N N N N N N N N N N N N N N ",
"N N N N N N k 6 % @ 2 K &.H./.b.2.#.#.g.Q.$X*XoXQ.v.g.8.7.7.y.L. X%X;X:X:X;X&X.XI.y.-.J i & @ - 6 k N N N N N N N N N N N N N N ",
"N N N N N N k 6 # @ 3 U g.~.^.c.! c V ! v.{.*X*X$X{.^.J.B.w.y.D.`.%X-X;X;X-X%X XI.y.-.J i & @ - 6 k N N N N N N N N N N N N N N ",
"N N N N N N k 6 # @ 4 E c.[.[.x.U 4 4 L g.[.*X:X:X-X$X`.S.y.y.S.`.%X*X;X*X%XXX_.D.r.-.J i & @ - 6 k N N N N N N N N N N N N N N ",
"N N N N N N k 6 # + 3 E v.}.{.x.L ; ; A s.].;X>X,X:X=X XL.u.y.S.`.%X*X&X+XOX_.I.A.t.;./ i & + % 6 k N N N N N N N N N N N N N N ",
"N N N N N M k 6 # + 3 Q v.}.{.c.I ; ; A s.].;X>X>X:X&X XL.u.y.L. X%X&X+X XY.S.Z.i.e.;.( i & + % 6 k N N N N N N N N N N N N N N ",
"N N N N N M k 6 # @ 4 E c.].].x.U 4 3 L g.[.-X:X:X-X%X`.S.y.y.S.`.$X%X.XY.V.y.e.e.4.-./ i & @ - 6 k N N N N N N N N N N N N N N ",
"N N N N N N k 7 : % 4 U s.N.W.d.Q c c ! v.{.*X;X-X%XXX!.S.y.y.S._.XXXX_.D.y.4.5.,.-.} F i = % , s k N N N N N N N N N N N N N N ",
"N N N N N N n h 6 < r C ! a.s.a.#.! #.g.Q.$X-X=X%X.X_.I.Z.t.t.Z.I._._.Y.Z.w.5.X.| ` F m e 8 < 6 h n N N N N N N N N N N N N N N ",
"N N N N N N n k h s d v b L Q #.a.j.m.(.#X*X=X%X XR.D.Z.y.e.e.u.A.D.D.A.i.e.,.| J m i e w w s h k n N N N N N N N N N N N N N N ",
"N N N N N N n n n k j s 4 4 g Q s.W.{.$X*X*X%XOXY.V.r.w.9.4.9.w.w.r.y.t.e.9.-.` m 9 > < w h k n n n N N N N N N N N N N N N N N ",
"N N N N N N N N N M k 7 : % 4 L a.W.[.oX}.[.~.H.l.:.-.....-.-.-.-.-.-.;.;.-.} G i > % , s k n N N N N N N N N N N N N N N N N N ",
"N N N N N N N N N N n h 8 : 4 C ! d.c.v.c.g.f.*.O.) J G J J J J J J J / ) ) G m e < , 6 h n N N N N N N N N N N N N N N N N N N ",
"N N N N N N N N N N n l h 7 s v Z U E E R I Z B z y q q q y y y q q y i i i i e w w s h k n N N N N N N N N N N N N N N N N N N ",
"N N N N N N N N N N M n n k j d r 4 3 3 3 3 3 2 > = & & & & = = & & & & & & = < w j k n n M N N N N N N N N N N N N N N N N N N ",
"N N N N N N N N N N N N N M k w : @ O $ ; 2 3 4 4 4 3 2 > = = = = & & * O O @ : w k N N N N N N N N N N N N N N N N N N N N N N ",
"N N N N N N N N N N N N N N k 7 # o O ; g A L R R R I K x i i i i y 0 = * o O : 7 k N N N N N N N N N N N N N N N N N N N N N N ",
"N N N N N N N N N N N N N N k 6 # O $ g R %.g.c.c.c.g.&.o.' J J / J H i 1 + + : 7 k N N N N N N N N N N N N N N N N N N N N N N ",
"N N N N N N N N N N N N N N k 6 # @ 2 Z %.N.].oX}.[.~.H.l.:.-.-.-.-.} H q $ + : 6 k N N N N N N N N N N N N N N N N N N N N N N ",
"N N N N N N N N N N N N N N k 6 # @ 3 U j.[.*X*X$X{.^.J.B.w.9.9.0.4.-./ i & @ - 6 k N N N N N N N N N N N N N N N N N N N N N N ",
"N N N N N N N N N N N N N N k 6 # @ 4 E v.oX*X$X).m.k.n.6.w.0.q.q.0.;._ i = @ - 6 k N N N N N N N N N N N N N N N N N N N N N N ",
"N N N N N N N N N N N N N N k 6 # @ 4 E v.}.$X).c.$.~ O.=.3.9.q.e.0.;.) i = @ - 6 k N N N N N N N N N N N N N N N N N N N N N N ",
"N N N N N N N N N N N N N N k 6 # @ 4 E c.[.{.M.^ V f S ` ;.9.e.e.9.-.) i & @ - 6 k N N N N N N N N N N N N N N N N N N N N N N ",
"N N N N N N N N N N N N N N k 6 # @ 3 U g.~.~.g.I 3 = i ' <.y.p.t.0.-./ i & @ - 6 k N N N N N N N N N N N N N N N N N N N N N N ",
"N N N N N N N N N N N N N N k 6 % @ 2 K 2.H.G.*.B & $ z O.l.D.F.A.e.;./ i & + % 6 k N N N N N N N N N N N N N N N N N N N N N N ",
"N N N N N N N N N N N N N N k 6 % @ > S @.l.6.o.z $ & B &.J.`.'.E.y.;./ i & + % 6 k N N N N N N N N N N N N N N N N N N N N N N ",
"N N N N N N N N N N N N N N k 6 % @ = x [ :.:.] i = 2 L d.~.XX XI.r.-.J i & @ : 6 k N N N N N N N N N N N N N N N N N N N N N N ",
"N N N N N N N N N N N N N N k 6 : @ = i _ -.-.` m 0 t U s.W.~.U.B.<.} F y = % , s k N N N N N N N N N N N N N N N N N N N N N N ",
"N N N N N N N N N N N N N N k 6 - @ = i _ -.,.| J S S U #.s.d.2.@.' G m e 8 < 6 h n N N N N N N N N N N N N N N N N N N N N N N ",
"N N N N N N N N N N N N N N k 6 - @ = i _ -.4.,. .` T T U U I Z B x i u e w s h k n N N N N N N N N N N N N N N N N N N N N N N ",
"N N N N N N N N N N N N N N k 6 - @ & i / -.4.9.4.-.| T S t 3 ; & = > 8 w j k n n n N N N N N N N N N N N N N N N N N N N N N N ",
"N N N N N N N N N N N N N N k 6 : @ & q H } -.4.9.4.-.` S 9 & + o O @ : w k M N N N N N N N N N N N N N N N N N N N N N N N N N ",
"N N N N N N N N N N N N N N k 7 : @ * 5 i F `  .,.4.,.| J p 9 = + o O : 7 k N N N N N N N N N N N N N N N N N N N N N N N N N N ",
"N N N N N N N N N N N N N N k w : + + $ 5 y S ) | ,.1.-.| ( D a = + + : 7 k N N N N N N N N N N N N N N N N N N N N N N N N N N ",
"N N N N N N N N N N N N N N k w : + o o O & 9 S [ ;.4.9.4.-.} H q $ + : 6 k N N N N N N N N N N N N N N N N N N N N N N N N N N ",
"N N N N N N N N N N N N N N k w : + X . . o = x [ 3.y.i.i.y.:.' i = @ % 6 k M N N N N N N N N N N N N N N N N N N N N N N N N N ",
"N N N N N N N N N N N N N N k w : + X     . & x o.l.L.R.R.I.C.@.B > @ % 6 k M N N N N N N N N N N N N N N N N N N N N N N N N N ",
"N N N N N N N N N N N N N N k w : + X     X > K &.H. X@X@X XJ.&.K 2 @ # 6 k M N N N N N N N N N N N N N N N N N N N N N N N N N ",
"N N N N N N N N N N N N N N k w : + X .   o 2 I h.~.%X-X-X%X~.h.I 2 @ # 6 k N N N N N N N N N N N N N N N N N N N N N N N N N N ",
"N N N N N N N N N N N N N N k w : @ X .   o 3 R j.[.=X>X>X*X[.g.U 3 @ # 6 k N N N N N N N N N N N N N N N N N N N N N N N N N N ",
"N N N N N N N N N N N N N N k w : + X .   o 3 R c.{.;X<X<X;X{.x.R 3 @ # 6 k N N N N N N N N N N N N N N N N N N N N N N N N N N "
};
