/* XPM */
static char *b24133bb79ef4bd8a8a46179541fbc1cGUFWfeebK6uMCQeJ_0[] = {
/* columns rows colors chars-per-pixel */
"64 64 256 2 ",
"   c #000E1A",
".  c #03121E",
"X  c #061720",
"o  c #071A22",
"O  c #0A1C23",
"+  c #0C2227",
"@  c #0D2428",
"#  c #0E2D2C",
"$  c #122629",
"%  c #122D2D",
"&  c #182F2B",
"*  c #122527",
"=  c #1A322D",
"-  c #122F30",
";  c #1B2C31",
":  c #133331",
">  c #1C3430",
",  c #163935",
"<  c #1C3D36",
"1  c #20382F",
"2  c #213436",
"3  c #253739",
"4  c #263A3A",
"5  c #213A30",
"6  c #1D463C",
"7  c #1E493E",
"8  c #1F4036",
"9  c #274334",
"0  c #294534",
"q  c #2D4C36",
"w  c #224A3D",
"e  c #2C4D3A",
"r  c #2A453F",
"t  c #30473F",
"y  c #304F39",
"u  c #2E503A",
"i  c #34533B",
"p  c #3A5D3D",
"a  c #305037",
"s  c #224C40",
"d  c #284E43",
"f  c #334B41",
"g  c #364846",
"h  c #245444",
"j  c #285746",
"k  c #2A5D49",
"l  c #275B48",
"z  c #385541",
"x  c #3B5A42",
"c  c #3F524E",
"v  c #385548",
"b  c #3F5951",
"n  c #2E644E",
"m  c #3D6242",
"M  c #306750",
"N  c #306850",
"B  c #425B4B",
"V  c #40534E",
"C  c #435A53",
"Z  c #4A5E55",
"A  c #445752",
"S  c #416344",
"D  c #466948",
"F  c #4D754B",
"G  c #4F794A",
"H  c #497445",
"J  c #537D4C",
"K  c #4B6254",
"L  c #4F635B",
"P  c #496455",
"I  c #52655C",
"U  c #556A5E",
"Y  c #506B56",
"T  c #577B55",
"R  c #576961",
"E  c #5B6D64",
"W  c #536461",
"Q  c #5D7264",
"!  c #657A6D",
"~  c #637C67",
"^  c #6C7F73",
"/  c #56814F",
"(  c #58834F",
")  c #578150",
"_  c #5A8551",
"`  c #5E8A54",
"'  c #5E8558",
"]  c #5F8858",
"[  c #618B59",
"{  c #639356",
"}  c #66965A",
"|  c #6A9C5B",
" . c #6EA15D",
".. c #72A75F",
"X. c #74AB5F",
"o. c #6A8D66",
"O. c #688866",
"+. c #6D9565",
"@. c #71946B",
"#. c #6E8273",
"$. c #738777",
"%. c #7C927D",
"&. c #7D9A79",
"*. c #779474",
"=. c #73A562",
"-. c #75AA62",
";. c #78AD64",
":. c #7FAF6D",
">. c #78A66A",
",. c #7CB465",
"<. c #7FB36A",
"1. c #7FB966",
"2. c #819C7D",
"3. c #80B36C",
"4. c #84BD6A",
"5. c #80BA67",
"6. c #8DBA7C",
"7. c #85B672",
"8. c #85A87C",
"9. c #86C06C",
"0. c #8AC56E",
"q. c #8CCA6F",
"w. c #8CC473",
"e. c #8ECA71",
"r. c #90C677",
"t. c #91CB75",
"y. c #92C779",
"u. c #93C97A",
"i. c #9AD17E",
"p. c #97D07A",
"a. c #7F9481",
"s. c #859B86",
"d. c #899E8A",
"f. c #839884",
"g. c #8DA38C",
"h. c #88A086",
"j. c #90A58F",
"k. c #93AD8E",
"l. c #91BB81",
"z. c #92B686",
"x. c #93A792",
"c. c #95AA93",
"v. c #99AE97",
"b. c #9CB695",
"n. c #8FB384",
"m. c #A4BA9F",
"M. c #A1B69D",
"N. c #A8BEA2",
"B. c #99C685",
"V. c #9BCD84",
"C. c #96C085",
"Z. c #9ED284",
"A. c #A1D586",
"S. c #A4D38D",
"D. c #A7D88E",
"F. c #A6DA8A",
"G. c #A4C697",
"H. c #A6C798",
"J. c #AACD9A",
"K. c #A5CB94",
"L. c #A7D590",
"P. c #A8D592",
"I. c #ACDB94",
"U. c #AFD69C",
"Y. c #B0DC99",
"T. c #A0CF8A",
"R. c #B4E39B",
"E. c #ABE08E",
"W. c #ABC1A4",
"Q. c #B3C8AB",
"!. c #B8DFA3",
"~. c #B7D2AB",
"^. c #BAD5AD",
"/. c #B3D7A1",
"(. c #B9CFB0",
"). c #BCD1B4",
"_. c #BAE2A4",
"`. c #BEE3A9",
"'. c #BBEAA0",
"]. c #C0D7B5",
"[. c #C2D9B7",
"{. c #C6DDBB",
"}. c #C9DFBD",
"|. c #C1E6AD",
" X c #C3E9AD",
".X c #C7EAB2",
"XX c #C9EAB6",
"oX c #CAE0BE",
"OX c #C4E6B0",
"+X c #D1EEBE",
"@X c #CDF3B6",
"#X c #CFE6C2",
"$X c #D4EBC5",
"%X c #D5F1C2",
"&X c #D9F4C7",
"*X c #DDF5CC",
"=X c #DEFACC",
"-X c #E0FACE",
";X c #E4FBD3",
":X c #E9FFD7",
">X c #ECFFDA",
",X c #F0FFDD",
"<X c #F3FFE0",
"1X c black",
"2X c black",
"3X c black",
"4X c black",
"5X c black",
"6X c black",
"7X c black",
"8X c black",
"9X c black",
"0X c black",
"qX c black",
"wX c black",
"eX c black",
"rX c black",
"tX c black",
"yX c black",
"uX c black",
"iX c black",
"pX c black",
"aX c black",
"sX c black",
"dX c black",
"fX c black",
"gX c black",
"hX c black",
"jX c black",
"kX c black",
"lX c black",
"zX c black",
"xX c black",
"cX c black",
"vX c black",
"bX c black",
"nX c black",
"mX c black",
"MX c black",
"NX c black",
"BX c black",
"VX c black",
"CX c black",
"ZX c black",
"AX c black",
"SX c black",
"DX c black",
"FX c black",
"GX c black",
"HX c black",
"JX c black",
"KX c black",
"LX c black",
"PX c black",
"IX c black",
"UX c black",
/* pixels */
"N N N N N N N N N N N N N N N N N N N N N N N N N N N N N N N N N N N N N N N N N N N N N N N N N N N N N N N N N N N N N N N N ",
"N N N N N N N N N N N N N N N N N N N N N N N N N N N N N M N N M M N N N N N N N M N N M N N N N N N N N N N N N N N N N N N N ",
"N N N N N N N N N N N N N N N N N N N N N N n n n k k k k k k k k k k k k k k k k k k k k k k n n M N N N N N N N N N N N N N N ",
"N N N N N N N N N N N N N N N N N N N N N N n k h s 7 6 6 7 7 7 6 6 6 6 7 7 7 7 7 7 7 6 6 7 s h k n N N N N N N N N N N N N N N ",
"N N N N N N N N N N N N N N N N N N N N N N n h 6 , : % : : : : : : : : : : : : : : : - % : , 6 h n N N N N N N N N N N N N N N ",
"N N N N N N N N N N N N N N N N N N N N N M k s < % @ + + @ @ @ @ @ @ @ @ @ @ @ @ @ @ + + @ % < s k M N N N N N N N N N N N N N ",
"N N N N N N N N N N N N N N N N N N n n n k j w < = & & & & & & & & & & & & & & & & & & & & = < w j k n n M N N N N N N N N N N ",
"N N N N N N N N N N N N N N N N N N n k h s w w e i i i i i i i i i i i i i i i i i i i i i i e w w s h k n N N N N N N N N N N ",
"N N N N N N N N N N N N N N N N N N n h 6 , < e m F / _ _ ) / ) / / / ) ) ) / / / / / _ _ / F m e < , 6 h n N N N N N N N N N N ",
"N N N N N N N N N N N N N N N N N n k w , % > i F } -.;.;.-.-.-.-.-.-.-.-.-.-.-.-.-.-.-.;.-.} F i > % , s k M N N N N N N N N N ",
"N N N N N N N N N N N N N N n n n k h w < > 9 S ` -.4.0.0.4.4.4.4.4.4.4.4.4.4.4.9.9.9.0.0.4.-.` S 9 > < w h k n n M N N N N N N ",
"N N N N N N N N N N N N N N n k h s w w e i S J | 1.0.e.e.0.0.0.0.0.0.0.0.0.0.q.e.e.e.t.t.e.5.| J S i e w w s h k n N N N N N N ",
"N N N N N N N N N N N N N N n h 6 < 8 e m F ` | ;.4.0.0.0.0.0.0.0.0.0.0.0.0.0.0.e.e.e.e.t.e.9.,.| ] F m e 8 < 6 h n N N N N N N ",
"N N N N N N N N N N N N N N k s , % > i F } -.1.4.4.9.9.9.9.9.9.9.9.9.9.9.9.9.9.9.9.9.9.9.9.4.5.,.-.} F i > % , s k N N N N N N ",
"N N N N N N N N N N N N N N k 6 : @ = i / -.4.0.0.9.9.9.9.9.9.9.9.9.9.9.9.9.4.5.,.-.-.=.=.-.-.,.4.5.-.) i & @ : 6 k N N N N N N ",
"N N N N N N N N N N N N N N k 6 % + & i _ ;.0.q.0.9.4.4.4.4.4.4.4.9.9.0.0.0.5.-.} _ J G G J _ | ,.5.;._ i & + % 6 k N N N N N N ",
"N N N N N N N N N N N N N N k 6 % + & i _ -.0.q.0.4.4.4.4.4.4.4.4.9.9.0.e.0.,.| J p q 0 0 q p J  .,.-._ i & + % 6 k N N N N N N ",
"N N N N N N N N N N N N N N k 6 % @ & i ) -.9.0.0.9.9.9.9.9.9.9.9.9.9.0.0.4.-.] S 9 = * * = 0 D { -.-._ i & + % 6 k N N N N N N ",
"N N N N N N N N N N N N N N k 6 - @ & i / -.9.e.t.y.y.u.u.u.y.w.w.0.4.5.,.-.| T S t 3 2 2 3 f F } ;.-._ i & @ % 6 k N N N N N N ",
"N N N N N N N N N N N N N N k 6 - @ & i / -.w.u.Z.S.L.P.P.L.S.V.u.w.1...{ _ J Y Y I I W R R Q o.>.<.=./ i & @ : 6 k N N N N N N ",
"N N N N N N N N N N N N N N k 6 - @ & i J -.w.Z.I._.`.|.|.`.!.I.Z.w.,.{ H p x Y ! f.g.x.c.c.k.z.6.4.../ i & @ : 6 k N N N N N N ",
"N N N N N N N N N N N N N N k 6 - @ & i J -.r.D._.XX%X&X&X%XXX_.S.r.-.( p 0 t U f.W.[.}.}.[.^.U.T.w.-./ i & @ : 6 k N N N N N N ",
"N N N N N N N N N N N N N N k 6 % @ & i J -.y.I. X%X-X;X;X=X%X|.I.y.;._ S f c ! v.{.*X*X$X{.^./.P.B.3.' i = @ % 6 k N N N N N N ",
"N N N N N N N N N N N N N N k 6 - @ & i J -.y.I..X&X;X>X>X;X%X|.I.y.<.+.T Q ! d.Q.$X*X#X(.m.b.b.K.K.l.o.B > @ % 6 k N N N N N N ",
"N N N N N N N N N N N N N N k 6 - @ & i J -.y.I..X&X;X>X>X;X%X|.P.y.7.7.8.g.v.Q.oX*X$XQ.g.$.#.2.b./.H.&.K 2 @ % 6 k N N N N N N ",
"N N N N N N N N N N N N N N k 6 % @ & i J -.y.I. X%X-X;X;X-X%X`.S.u.w.B.J.^.{.$X*X*X{.v.! V c ! c.^.~.g.U 3 @ # 6 k N N N N N N ",
"N N N N N N N N N N N N N N k 6 % + & i J -.r.D._.XX%X*X;X*X%X`.S.u.y.S.`.$X-X:X>X*X[.g.L 3 3 R x.[.[.c.E 3 @ # 6 k M N N N N N ",
"N N N N N N N N N N N N N N k 6 % + & i / ;.t.A.I._.OX+X&X*X%X`.S.u.u.L. X=X:X,X>X;X].s.A ; ; L x.{.}.v.E 3 + # 6 k M N N N N N ",
"N N N N N N N N N N N N N M k 6 % + & i ( ;.w.p.Z.S.Y.|.+X&X%X|.S.u.u.S. X&X:X>X>X-X].s.A ; ; L c.{.oXv.E 3 + # 6 k N N N N N N ",
"N N N N N N N N N N N N N N k 6 - @ & i / -.4.w.w.y.V.Y..X%X%X`.S.u.u.S.`.%X-X:X>X*X[.g.L 3 3 U x.].[.c.E 3 @ # 6 k N N N N N N ",
"N N N N N N N N N N N N N M k s , % = i F } -.,.5.4.u.S._.XXXX_.S.u.u.S.!.XX%X-X;X*X{.v.! c c Q g.W.W.s.U 4 % : 7 k N N N N N N ",
"N N N N N N N N N N N N N M n h 6 < 8 e m F ` | X.5.w.A.Y._._.I.Z.t.t.Z.I._..X%X=X-X$XQ.g.#.! #.a.s.a.! C r < 6 h n N N N N N N ",
"N N N N N N N N N N N N N N n k h s w w e i m J | ,.w.p.A.D.D.A.u.e.e.u.Z.D.R. X%X=X*X#X(.m.j.a.#.Q L b v d s h k n N N N N N N ",
"N N N N N N N N N N N N N N n n n k j w < > 9 m ` -.4.w.t.r.r.w.w.9.9.9.w.y.V.Y.OX%X*X*X$X{.W.s.Q g 4 4 s j k n n n N N N N N N ",
"N N N N N N N N N N N N N N N N N N k s , % > i F } -.;.;.-.-.-.-.-.-.....-.:.l.H.~.[.}.oX[.W.a.L 4 % : 7 k N N N N N N N N N N ",
"N N N N N N N N N N N N N N N N N N n h 6 , < e m F / ) / J J J J J J J G J ) O.*.f.g.c.v.c.s.! C 4 : 8 h n N N N N N N N N N N ",
"N N N N N N N N N N N N N N N N N N n k h s w w e i i i i i e e y y y q q q y z B Z I R E E U P v s 7 h l n N N N N N N N N N N ",
"N N N N N N N N N N N N N N N N N N M n n k j w 8 = & & & & & & & & & & & & = > 2 3 3 3 3 3 4 r d j k n n n N N N N N N N N N N ",
"N N N N N N N N N N N N N N N N N N N N N M k w : @ O O * & = = = & = > 2 3 3 3 3 3 2 ; $ O @ : w k N N N N N N N N N N N N N N ",
"N N N N N N N N N N N N N N N N N N N N N N k 7 : O o * = 0 y i i i i b K I R R R L A f ; O O # 7 k N N N N N N N N N N N N N N ",
"N N N N N N N N N N N N N N N N N N N N N N k 7 : O + 1 i H J / J J ] o.&.g.c.c.c.g.%.R f $ O # 6 k N N N N N N N N N N N N N N ",
"N N N N N N N N N N N N N N N N N N N N N N k 6 : @ & q H } =.-.-.-.:.l.H.~.[.}.oX[.N.%.Z 2 @ # 6 k N N N N N N N N N N N N N N ",
"N N N N N N N N N N N N N N N N N N N N N N k 6 - @ & i / -.4.0.9.9.w.B.J.^.{.$X*X*X[.j.R 3 @ # 6 k M N N N N N N N N N N N N N ",
"N N N N N N N N N N N N N N N N N N N N N N k 6 % @ = i _ ;.0.q.q.0.w.6.n.k.m.).$X*XoXv.E 3 @ # 6 k M N N N N N N N N N N N N N ",
"N N N N N N N N N N N N N N N N N N N N N M k 6 - @ & i _ ;.0.q.q.9.3.=.O.~ $.c.).$XoXv.E 3 @ # 6 k N N N N N N N N N N N N N N ",
"N N N N N N N N N N N N N N N N N N N N N M k 6 % @ & i / -.9.e.e.9.;.] S f V ^ M.{.[.c.E 3 @ # 6 k N N N N N N N N N N N N N N ",
"N N N N N N N N N N N N N N N N N N N N N N k 6 - @ & i / -.0.t.p.y.<.' i = 3 I g.~.~.g.U 3 @ # 6 k N N N N N N N N N N N N N N ",
"N N N N N N N N N N N N N N N N N N N N N N k 6 % + & i / ;.w.A.F.D.l.O.z & & B *.G.H.2.K 2 @ % 6 k N N N N N N N N N N N N N N ",
"N N N N N N N N N N N N N N N N N N N N N N k 6 % + & i / ;.u.E.'.`.J.&.B & & z o.6.l.@.S > @ % 6 k N N N N N N N N N N N N N N ",
"N N N N N N N N N N N N N N N N N N N N N M k 6 : @ & i J -.r.I. XXX~.s.L 2 = i ] :.:.[ x = @ % 6 k N N N N N N N N N N N N N N ",
"N N N N N N N N N N N N N N N N N N N N N N k s , % = i F } <.B.U.~.W.s.U t 0 m ` -.-._ i = @ - 6 k N N N N N N N N N N N N N N ",
"N N N N N N N N N N N N N N N N N N N N N N n h 6 < 8 e m G ] @.2.d.f.#.U S S J | ,.-._ i = @ - 6 k N N N N N N N N N N N N N N ",
"N N N N N N N N N N N N N N N N N N N N N N n k h s w w u i z B Z I U U T T `  .,.5.-._ i = @ - 6 k N N N N N N N N N N N N N N ",
"N N N N N N N N N N N N N N N N N N N N N N n n n k j w < = & & ; 3 t S T | -.5.9.4.-./ i & @ - 6 k N N N N N N N N N N N N N N ",
"N N N N N N N N N N N N N N N N N N N N N N N N N N k w : + O o + & 9 S ` -.4.9.5.-.} H q & @ : 6 k N N N N N N N N N N N N N N ",
"N N N N N N N N N N N N N N N N N N N N N N N N N N k w : O o + = 9 p J | ,.5.,. .] F i 5 * @ : 7 k N N N N N N N N N N N N N N ",
"N N N N N N N N N N N N N N N N N N N N N N N N N N k 7 : + + = a D ( | -.1.,.| ) S y 5 & + @ : w k N N N N N N N N N N N N N N ",
"N N N N N N N N N N N N N N N N N N N N N N N N N N k 6 : + & q H } -.5.9.4.;.[ S 9 & O o o @ : w k N N N N N N N N N N N N N N ",
"N N N N N N N N N N N N N N N N N N N N N N N N N N k 6 % @ = z ' :.y.p.p.y.3.[ x = o . . o @ : w k N N N N N N N N N N N N N N ",
"N N N N N N N N N N N N N N N N N N N N N N N N N N k 6 % @ > B @.C.I.R.R.P.l.o.b & .     X @ : w k N N N N N N N N N N N N N N ",
"N N N N N N N N N N N N N N N N N N N N N N N N N N k 6 # @ 2 K &.J. X@X@X|.H.&.K > .     X + : w k N N N N N N N N N N N N N N ",
"N N N N N N N N N N N N N N N N N N N N N N N N N N k 6 # @ 2 I h.^.%X-X-X%X~.h.I 2 o     X + : w k N N N N N N N N N N N N N N ",
"N N N N N N N N N N N N N N N N N N N N N N N N N N k 6 # @ 3 U g.[.=X>X>X-X[.j.R 3 o     X + : w k N N N N N N N N N N N N N N ",
"N N N N N N N N N N N N N N N N N N N N N N N N N N k 6 # @ 3 R x.{.;X,X<X;X{.c.R 3 o     X + : w k N N N N N N N N N N N N N N "
};
