/* XPM */
static char *tree1690486517[] = {
/* columns rows colors chars-per-pixel */
"64 64 190 2 ",
"   c None",
".  c #5A7477",
"X  c #5C7778",
"o  c #5E7979",
"O  c #746F6D",
"+  c #7A716B",
"@  c #617C79",
"#  c #6B7272",
"$  c #7A7276",
"%  c #777977",
"&  c #787C78",
"*  c #777B78",
"=  c #8E625E",
"-  c #91625D",
";  c #9C6E5E",
":  c #956B5E",
">  c #9E705F",
",  c #AC7857",
"<  c #A4795B",
"1  c #AC7B5A",
"2  c #A1765C",
"3  c #B17F5B",
"4  c #8F4D71",
"5  c #924D71",
"6  c #8B5272",
"7  c #855C73",
"8  c #8F5A75",
"9  c #935273",
"0  c #9C5573",
"q  c #925B75",
"w  c #9A5C75",
"e  c #A15675",
"r  c #A35C75",
"t  c #AC5F75",
"y  c #8C6260",
"u  c #956A63",
"i  c #80766A",
"p  c #82796A",
"a  c #866A76",
"s  c #8D6A79",
"d  c #896476",
"f  c #9C6C7B",
"g  c #946A76",
"h  c #8A7679",
"j  c #92727B",
"k  c #9F747A",
"l  c #947B7D",
"z  c #9B7A79",
"x  c #A07462",
"c  c #A87C64",
"v  c #AB6376",
"b  c #A46A75",
"n  c #A46478",
"m  c #AC6479",
"M  c #A56A78",
"N  c #AE6A79",
"B  c #A66674",
"V  c #B26476",
"C  c #B46C7A",
"Z  c #B96E7C",
"A  c #B3677A",
"S  c #A47479",
"D  c #AE747B",
"F  c #AA7C7C",
"G  c #A47D7C",
"H  c #B3737B",
"J  c #BC737D",
"K  c #B17B7E",
"L  c #C1787F",
"P  c #65837B",
"I  c #69857D",
"U  c #65897B",
"Y  c #6B8B7D",
"T  c #7C8578",
"R  c #728C7B",
"E  c #7A8478",
"W  c #6E957C",
"Q  c #6E987C",
"!  c #71947C",
"~  c #7A917C",
"^  c #739A7E",
"/  c #799B7F",
"(  c #B2835E",
")  c #8C877E",
"_  c #858C7C",
"`  c #99867D",
"'  c #AE8261",
"]  c #AC856B",
"[  c #B38661",
"{  c #B68A62",
"}  c #BA8E64",
"|  c #B68B68",
" . c #B98E68",
".. c #BD9166",
"X. c #BE956C",
"o. c #A5827D",
"O. c #AA827F",
"+. c #B68A78",
"@. c #C0976C",
"#. c #C49A6C",
"$. c #AB7F81",
"%. c #BD7681",
"&. c #BD7B82",
"*. c #B77E83",
"=. c #C37C85",
"-. c #C07781",
";. c #718F80",
":. c #739180",
">. c #779E80",
",. c #7C9E83",
"<. c #7CA282",
"1. c #7BA482",
"2. c #8A8D81",
"3. c #998582",
"4. c #928A81",
"5. c #9C8D83",
"6. c #958581",
"7. c #899E84",
"8. c #949D86",
"9. c #989784",
"0. c #A38E81",
"q. c #AD8B81",
"w. c #B48885",
"e. c #A59584",
"r. c #A39B85",
"t. c #AD9885",
"y. c #B79D85",
"u. c #B99787",
"i. c #81A386",
"p. c #84AA86",
"a. c #86A788",
"s. c #8AAE89",
"d. c #87A889",
"f. c #94A286",
"g. c #9BA187",
"h. c #9AA489",
"j. c #95AD8A",
"k. c #9BAB8A",
"l. c #97A188",
"z. c #8DB28A",
"x. c #93B58D",
"c. c #9AB38C",
"v. c #96BB8E",
"b. c #98BC8E",
"n. c #9ABE90",
"m. c #ACA389",
"M. c #AFAA8C",
"N. c #B4A58A",
"B. c #BCA08A",
"V. c #A4B48E",
"C. c #ABB68F",
"Z. c #B9B48D",
"A. c #A4BD91",
"S. c #ABBD92",
"D. c #B3B990",
"F. c #C5838A",
"G. c #CA868C",
"H. c #CC8A8F",
"J. c #C18387",
"K. c #C6928D",
"L. c #CF8B91",
"P. c #D08E92",
"I. c #CA9192",
"U. c #D29295",
"Y. c #D69799",
"T. c #D99D9B",
"R. c #D39898",
"E. c #DDA19F",
"W. c #DEA6A2",
"Q. c #E3ABA5",
"!. c #98C08F",
"~. c #9CC190",
"^. c #A1C592",
"/. c #ABC594",
"(. c #A4CA94",
"). c #ABCC96",
"_. c #BAC994",
"`. c #A7D096",
"'. c #A9D197",
"]. c #AED499",
"[. c #AFD99A",
"{. c #B1D699",
"}. c #B5D999",
"|. c #BBDC9A",
" X c #B8D597",
".X c #BDE29B",
"XX c #C0D697",
"oX c #C1DF9A",
"OX c #C1D897",
"+X c #C3E09A",
/* pixels */
"                                                                                                                                ",
"                                                                                                                                ",
"                                              . . . o X . . X X o X X . . . o o X                                               ",
"                                            ;.P ;.;.;.;.;.;.;.;.;.;.;.;.;.;.P ;.I I                                             ",
"                                      . . . ;.i.d.j.v.x.x.x.x.x.x.v.x.v.s.d.d.i.,.;.X                                           ",
"                                    ;.P ;.;.,.x.(.`.{.{.}.[.}.}.].].].].].^.^.n.x.,.I @                                         ",
"                              X . . ;.<.a.j.n.(.'.].[.|.|.|.|.|.|.}.}.|.|. X{.].^.x.i.;.@ . X                                   ",
"                            P P I ;.,.v.^.'.].].].].}.|.+X+X+X+X|.{.}.|.oXoXoX}.].(.x.,.I @ I P                                 ",
"                          @ :.i.a.s.n.(.).[.{.].].].}.oX+X+X+X+X+X}.].|.+X+X+X}.].].^.x.i.i.,.;.o                               ",
"                        @ I ,.v.).{.{.{.].{.].].].{.}.|.+X+X+XoX|.].}.|.|.+X+X}.].].].^.!.b.v.,.;.@                             ",
"                      @ ;.i.x.).{.}.|.|.|.|.}.[.{.}.|.oX+X+X+X|.}.].].}.}.}.{.{.].].].`.(.).(.x.,.;.o                           ",
"                    @ I ,.v.^.].|.+X+X+XoXoX|.{.}.oX+X+X+X+X|.{.].].].].{.{.{.].].[.].].].].].(.x.,.;.@                         ",
"                  o :.,.s.n.(.].|.+X+X+X+X+X|.|.|.+X+X+X|.|.}.].].].].}.|.|.|..X|.{.{.].].}.{.(.n.s.7.;.P                       ",
"                X ;.7.v.n.n.(.].}.oXoXoXoX+X+X+X+XoXoX+X|.{.].].].].].|.oXXXXX X X}.{.).).)./.^.v.v.x.,.@ X                     ",
"                . P d.^.(.^.).].{.}.}.}.|.+X+X+XoX}.}.}.{.{.].].].].[.+XXXZ.u.y.N._. XD.t.t.e.k.n.~.x.,.@ .                     ",
"                . ;.s.].[.].].].{.{.{.{.}.oX+XoX|.{.{.{.].].].].].].{.|.XXw.%.A *.Z.XXu.H v B 5.j.n.v.<.I @                     ",
"              ;.:.i.n.].].].].].].].].].{.}.|.|.{.].].].].].].].].]._.D.B.K.L.=.F.u.u.+.Z V m f 6.j.n.x.,.;.P                   ",
"            . @ ,.v.(.].].].].].].].].].].].].].].].].].].].].].].].S.q.&.Y.Q.E.P.=.H H J J J e 8 5.).(.v.,.P .                 ",
"            X ;.<.n.(.[.].].[.].].].].].].].].].].].].].].].].].[.[.S.S A U.Q.Y.G.%.Z Z J L %.0 4 3.).'.n.,.;..                 ",
"            . @ 7.n.(.].].].].].].].].].].].].].].].].].].].].].].].S.o.N F.Y.G.-.J J J L J %.w 8 5./.'.v.,.@ X                 ",
"            o ;.<.v.^.(.C.m.m.m.D.{./.M.m.r.C./.].].].].].].].].].[.).m.q.w.-.-.J J H J %.m r s $.7.^.(.v.,.o .                 ",
"            . @ 7.n.~.c.e.K C K N./.M.F m M 3.c.~.].].].].].].].].].].).C.o.V C J Z C Z %.r q $.j.x.v.n.v.i.;.o                 ",
"            X ;.i.v.k.r.w.F.=.&.u.m.q.Z V m S 6.h.).{.{.].].].].].].].[./.m.k b t r 0 r $.w 3.h.v.!.v.z.i.:.P                   ",
"            . @ i.j.0.K I.W.E.U.=.K H J J J n q 6./.[.].].].].].].].].].).b.l.j 9 4 4 4 q 5.A.^.v.v.v.,.;.o                     ",
"            X I <.c.o.A L.Q.E.L.=.C C J L J v 4 j V.`.`.).(.).].].{.].(.(.(.n.9.$.h $.h $.7.(.~.n.n.x.,.@ .                     ",
"            X I a.j.` m F.Y.P.=.%.J J L -.J v 5 j j.~.n.b.n.^.`.].].].~.~.(.]./.A.S.v.c.j.x.n.n.v.n.x.,.P X                     ",
"              ;.,.7.` z *.F.=.J J J J J Z m n g 4.x.b.v.v.v.n.(.(.).(.~.n.^.`.).`.].`.^.v.v.v.v.v.n.v.d.;.;.                    ",
"                P R i.h.o.N Z J Z C Z J m q j 8.x.x.b.v.v.v.v.n.~.~.n.v.v.n.~.n.~.!.!.b.v.v.v.v.v.x.v.x.d.,.;..                 ",
"                . @ <.x.9.G N m t r m v n s ) v.b.v.v.b.v.v.v.v.v.v.v.b.v.v.v.v.v.v.v.v.v.b.v.v.n.v.v.n.n.,.;.o                 ",
"                . ;.<.x.c.8.l q 4 4 4 9 j 8.j.v.b.v.v.v.v.v.v.v.v.v.v.v.v.v.v.v.b.v.v.v.v.v.v.v.v.v.v.n.n.<.o .                 ",
"                X U <.b.~.v.4.s d s d s 4.x.!.b.v.v.b.v.n.v.v.v.v.n.v.v.v.v.v.n.v.v.b.b.b.b.b.b.b.v.v.v.s.:.;.o                 ",
"              @ P ;.d.b.~.n.j.f.8.g.l.l.j.b.b.b.v.b.b.b.v.n.b.v.v.v.v.v.v.v.v.v.v.b.v.b.v.b.b.v.b.b.v.s.>.;.o o                 ",
"            o o U ^ 1.z.z.z.x.!.!.x.z.x.x.v.b.v.!.x.z.z.z.z.x.v.v.v.v.v.v.v.v.!.v.x.z.z.z.z.z.z.z.z.z.1.! U P o                 ",
"            o o Y Q / / / / z.v.p.1.^ / p.x.b.b.z.1./ ^ / 1.1.z.v.n.v.v.v.!.v.!.v.p./ / 1.1.^ ^ 1.1.1.^ W U o o                 ",
"            o P Y Q Q W Q Q p.x.p.Q W W p.x.b.b.p.Q U Q Q W / f.k.k.k.v.x.c.k.k.f.<.W W Q W W W W W W W W Y @ o                 ",
"            X P U Q Q Q Q Q p.v.p.Q W Q 1.x.!.v.z.^ W W W Q ~ ` F F o.c.c.e.o.S z T Q W W W W W W W W Q Q U @ o                 ",
"            o o U W W W W ! p.z.1.Q Q Q 1.z.x.x.p./ / ^ / / ) F %.%.*.r.m.o.V v n h R W / ^ / ^ W W W W Y U @ o                 ",
"            o P W W Q W W Q ^ / / Q W Q ^ / 1.1.1.z.z.z._ ` O.I.R.L.F.+.F D Z C A g a _ z.z.z.1.Q W W W P P                     ",
"            o o P W W W W W Q / ^ ^ ^ ^ ^ W W Q 1.z.!.z.8.D J E.Q.T.H.J C Z J L C 0 8 _ z.v.x.1.Q W W U o o                     ",
"                P P W W W ^ 1.p.z.s.z.z.1.Q W Q ^ 1.1.1._ b J R.W.L.=.L C J L L J 0 6 h 1.1./ / W W W U o o                     ",
"                o @ U W W Q i.x.x.x.x.x.p.^ Q Q Q Q Q W E s M G.L.=.J J J J J J C w 7 % W W W W W Q W U @ o                     ",
"                o @ Y W W Q 1.1.1.1.p./ / Q W Q Q ;.W W ! T l D J J J J Z J J v w a % R W W W W Q ! W U o o                     ",
"                o @ U W W W W W ^ Q Q W W W W W W W W W W W T g B A C A v J C w 7 % W W Q Q W Q W W W U P X                     ",
"                    P U W W W W Q W W W W Q W W W Q W W Q Q ! E h f 0 0 0 0 w a % R Q Q ! W Q ! Q Y P P                         ",
"                    o @ U W W W W W W W W W W W W W W W W W Q ! E d 6 6 6 6 7 * W W W W W W W W W U @ o                         ",
"                      o @ P U U R W W W Q Q Q ! W W Q Q ! Q Q W Y % $ $ $ O % Y Q Q W U P P P U P P                             ",
"                        @ @ o @ U W W W W W W W W W W ;.W W W W W W W U W W Y W W W Y U @ @ @ o o @                             ",
"                              X P U U P U U U U U U U U U U U I U U U U U U U U U U U P X     o                                 ",
"                                  @ o @ o P @ @ @ @ @ @ @ @ @ @ # @ @ @ @ @ @ @ @ o @                                           ",
"                                    o o X o # O + i p i p p p p p p i i i + O # o o                                             ",
"                                              = : 2 1 < < < < 2 1 < < < 2 : y                                                   ",
"                                              - ; 3 3 , , , , , , , 3 3 , ; -                                                   ",
"                                              - ; 3 ( 3 , , 1 , 1 , 1 ( ' ; =                                                   ",
"                                              - u [ { ( 3 1 3 1 ' 1 ( { ' ; =                                                   ",
"                                              = 2 [ { ( [ { { { ( [ [ { [ ; =                                                   ",
"                                              = u [ } }  .{ { } ........{ u =                                                   ",
"                                              = > ( } @.X. . .X.#.#.#.#...x =                                                   ",
"                                            u x ' ....#.@.....#.#.#.#.#.X.' x u                                                 ",
"                                          y c | ..X.#.#.#.@.#.#.#.#.#.#.#.X.| x =                                               ",
"                                          y c X.#.#.#.#.#.#.#.#.#.#.#.#.#.#.X.c y                                               ",
"                                            ] #.#.#.#.#.#.#.#.#.#.#.#.#.#.#.#.]                                                 ",
"                                              X.#.X.X.X.X.#.#.#.#.@.X.X.X.X.X.                                                  ",
"                                                        +.#.#.#.@.                                                              ",
"                                                          @.#.#.@.                                                              "
};
