/* XPM */
static char *_29710e92ede4ef9dd2558475bc9661b7x4qMf8ffgPlEQIp_0[] = {
/* columns rows colors chars-per-pixel */
"64 64 256 2 ",
"   c #000C1C",
".  c #03131F",
"X  c #061721",
"o  c #061A22",
"O  c #091C23",
"+  c #0E1E28",
"@  c #0C2126",
"#  c #0D2428",
"$  c #0E2B2C",
"%  c #112626",
"&  c #132826",
"*  c #132729",
"=  c #132D2D",
"-  c #182F2B",
";  c #11302F",
":  c #1A322D",
">  c #122F30",
",  c #1B2C31",
"<  c #133231",
"1  c #1C3530",
"2  c #163834",
"3  c #1B3C35",
"4  c #1A3F38",
"5  c #223336",
"6  c #253639",
"7  c #253D3C",
"8  c #1F4036",
"9  c #1D463C",
"0  c #1E493D",
"q  c #264234",
"w  c #284334",
"e  c #264837",
"r  c #2D4B37",
"t  c #23453C",
"y  c #234A3D",
"u  c #2B4C3A",
"i  c #314E3B",
"p  c #2F5039",
"a  c #33533B",
"s  c #3A5A3E",
"d  c #224D40",
"f  c #284E43",
"g  c #324940",
"h  c #374749",
"j  c #384749",
"k  c #255444",
"l  c #285746",
"z  c #2A5D4A",
"x  c #375440",
"c  c #395640",
"v  c #3C5F41",
"b  c #32524A",
"n  c #3D5648",
"m  c #2E644E",
"M  c #3D6142",
"N  c #306750",
"B  c #306950",
"V  c #445D4B",
"C  c #415B53",
"Z  c #495C55",
"A  c #4C5D58",
"S  c #406443",
"D  c #446845",
"F  c #486D47",
"G  c #48674B",
"H  c #4D754B",
"J  c #537C4D",
"K  c #4E6456",
"L  c #4F645B",
"P  c #50645C",
"I  c #576962",
"U  c #5B6B64",
"Y  c #5E6F69",
"T  c #5C7562",
"R  c #637A6D",
"E  c #56804F",
"W  c #58844F",
"Q  c #578150",
"!  c #598451",
"~  c #5D8A54",
"^  c #5E8558",
"/  c #618F56",
"(  c #628C59",
")  c #629057",
"_  c #67975A",
"`  c #67985A",
"'  c #6A9B5B",
"]  c #6FA15E",
"[  c #71A35F",
"{  c #6A8B66",
"}  c #6C8D69",
"|  c #72946C",
" . c #7E997C",
".. c #73A761",
"X. c #75AA62",
"o. c #78AD64",
"O. c #76A169",
"+. c #78A46A",
"@. c #7BB265",
"#. c #7FB668",
"$. c #839F7E",
"%. c #80B967",
"&. c #80B56A",
"*. c #84BE6B",
"=. c #88BD71",
"-. c #8EBB7C",
";. c #86C06C",
":. c #8AC56E",
">. c #8CC86F",
",. c #8EC376",
"<. c #8DCA70",
"1. c #92CD76",
"2. c #91C778",
"3. c #94CB7B",
"4. c #97D07A",
"5. c #7E9281",
"6. c #819684",
"7. c #809782",
"8. c #879D87",
"9. c #8AA088",
"0. c #8EA88A",
"q. c #91B486",
"w. c #95BF84",
"e. c #93A691",
"r. c #9BAD98",
"t. c #A8BEA2",
"y. c #9AC487",
"u. c #A1CE8C",
"i. c #A2DC84",
"p. c #ACCD9D",
"a. c #ADDA95",
"s. c #AADA91",
"d. c #AFD29E",
"f. c #ACE28E",
"g. c #B2E099",
"h. c #AAC1A3",
"j. c #B3D7A1",
"k. c #B7D2AB",
"l. c #BAD5AD",
"z. c #BCECA1",
"x. c #BFE7A8",
"c. c #C2D9B7",
"v. c #C1EAA9",
"b. c #C7EBB1",
"n. c #C8E8B5",
"m. c #D0F5B8",
"M. c #CDE4C0",
"N. c #D3EFC1",
"B. c #DEFBCA",
"V. c black",
"C. c black",
"Z. c black",
"A. c black",
"S. c black",
"D. c black",
"F. c black",
"G. c black",
"H. c black",
"J. c black",
"K. c black",
"L. c black",
"P. c black",
"I. c black",
"U. c black",
"Y. c black",
"T. c black",
"R. c black",
"E. c black",
"W. c black",
"Q. c black",
"!. c black",
"~. c black",
"^. c black",
"/. c black",
"(. c black",
"). c black",
"_. c black",
"`. c black",
"'. c black",
"]. c black",
"[. c black",
"{. c black",
"}. c black",
"|. c black",
" X c black",
".X c black",
"XX c black",
"oX c black",
"OX c black",
"+X c black",
"@X c black",
"#X c black",
"$X c black",
"%X c black",
"&X c black",
"*X c black",
"=X c black",
"-X c black",
";X c black",
":X c black",
">X c black",
",X c black",
"<X c black",
"1X c black",
"2X c black",
"3X c black",
"4X c black",
"5X c black",
"6X c black",
"7X c black",
"8X c black",
"9X c black",
"0X c black",
"qX c black",
"wX c black",
"eX c black",
"rX c black",
"tX c black",
"yX c black",
"uX c black",
"iX c black",
"pX c black",
"aX c black",
"sX c black",
"dX c black",
"fX c black",
"gX c black",
"hX c black",
"jX c black",
"kX c black",
"lX c black",
"zX c black",
"xX c black",
"cX c black",
"vX c black",
"bX c black",
"nX c black",
"mX c black",
"MX c black",
"NX c black",
"BX c black",
"VX c black",
"CX c black",
"ZX c black",
"AX c black",
"SX c black",
"DX c black",
"FX c black",
"GX c black",
"HX c black",
"JX c black",
"KX c black",
"LX c black",
"PX c black",
"IX c black",
"UX c black",
/* pixels */
"B B B B B B B B B B B B B B B B B B B B B B B B B B B B B B B B B B B B B B B B B B B B B B B B B B B B B B B B B B B B B B B B ",
"B B B B B B B B B B B B B B B B B B B B B B B B N N B B B B B B N N B B B B B B B N B B B B B B B B B B B B B B B B B B B B B B ",
"B B B B B B B B B B B B B B B B B B m m m z z z z z z z z z z z z z z z z z z z z z z m m m B B B B B B B B B B B B B B B B B B ",
"B B B B B B B B B B B B B B B B B B m z k d 0 9 9 9 0 0 0 0 0 0 9 9 9 9 0 0 0 9 9 0 d k z m B B B B B B B B B B B B B B B B B B ",
"B B B B B B B B B B B B B B B B B B m k 9 2 < = = < < < < < < < < < < < < < < = > < 2 9 k m B B B B B B B B B B B B B B B B B B ",
"B B B B B B B B B B B B B B B B B N z d 3 = # # # # # # # # # # # # # # # # # # # # = 3 d z N B B B B B B B B B B B B B B B B B ",
"B B B B B B B B B B B B B B N m m z l y 3 : - - - - - - - - - - - - - - - - - - - - : 3 y l z m m m B B B B B B B B B B B B B B ",
"B B B B B B B B B B B B B B m z k d y y u a a a a a a a a a a a a a a a a a a a a a a u y y d k z m B B B B B B B B B B B B B B ",
"B B B B B B B B B B B B B B m k 9 2 3 u M H E Q Q E E E E E E E E E E E E E E Q Q E H M u 3 2 9 k m B B B B B B B B B B B B B B ",
"B B B B B B B B B B B B B N z d 2 = 1 a H _ X.o.o.X.X.X.X.X.X.X.X.X.X.X.X.X.X.o.o.X._ H a 1 = 2 d z N B B B B B B B B B B B B B ",
"B B B B B B B B B B m m m z k y 3 1 w M ~ X.*.>.:.;.*.*.*.*.*.*.*.*.*.*.*.*.*.:.>.*.X.~ S w 1 3 y l z m m m B B B B B B B B B B ",
"B B B B B B B B B B m z k d y y u a M J ' #.>.<.<.>.>.>.>.>.>.>.>.>.>.>.>.>.>.<.<.>.#.' J M a u y y d k z m B B B B B B B B B B ",
"B B B B B B B B B B m k 9 3 3 u M H ~ ' o.*.>.>.>.>.>.>.>.>.>.>.>.>.>.>.>.>.>.>.>.>.*.o.' ~ H M u 3 3 9 k m B B B B B B B B B B ",
"B B B B B B B B B B z d 2 = : a H _ X.#.*.*.;.;.;.;.;.;.;.;.;.;.;.;.;.;.;.;.;.;.;.;.*.*.#.X._ H a 1 = 2 y z B B B B B B B B B B ",
"B B B B B B B B B B z 9 > # - a J X.*.>.>.;.;.;.;.;.;.*.;.;.;.;.;.;.;.;.;.;.;.;.;.;.;.>.>.*.X.J a - # = 9 z B B B B B B B B B B ",
"B B B B B B B B B B z 9 $ O & i E o.>.<.>.;.;.;.;.;.;.;.;.;.;.;.;.;.;.;.;.;.;.;.;.;.;.>.<.>.o.E a & O $ 9 z B B B B B B B B B B ",
"B B B B B B B B B B z 9 $ O % r J X.:.<.>.;.;.;.;.;.;.;.;.;.;.;.;.;.;.;.;.;.;.;.;.;.;.>.<.:.X.J r % O $ 9 z B B B B B B B B B B ",
"B B B B B B B B B N z 9 < # : a Q X.;.>.>.;.;.;.;.;.;.;.;.;.;.;.;.;.;.;.;.;.;.;.;.;.;.>.>.;.X.Q a : # < 9 z N B B B B B B B B B ",
"B B B B B B m m m z l d 7 7 i G ( o.*.>.>.;.;.;.;.;.;.;.;.;.;.;.;.;.;.;.;.;.;.;.;.;.;.>.>.*.o.( G g 7 t d l z m m m B B B B B B ",
"B B B B B B m z k d f b C L T { O.&.*.:.;.;.;.;.;.;.;.;.;.;.;.;.;.;.;.;.;.;.;.;.;.;.;.;.:.;.&.O.{ T P C b f d k z m B B B B B B ",
"B B B B B N m k 9 3 t C R 7.0.q.-.=.;.;.;.;.;.;.;.;.;.;.;.;.;.;.;.;.;.;.;.;.;.;.;.;.;.;.;.;.=.-.q.0.7.R C t 3 9 k m B B B B B B ",
"B B B B B B z 0 < = 7 P 6.h.l.j.u.,.;.*.*.;.;.;.;.;.;.;.;.;.;.;.;.;.;.;.;.;.;.;.;.;.;.*.*.;.,.u.j.l.h.6.P 7 = < 0 z B B B B B B ",
"B B B B B B z 9 $ # 6 I e.c.N.b.a.3.;.*.*.;.;.;.;.;.;.;.;.;.;.;.;.;.;.;.;.;.;.;.;.;.;.*.*.;.3.a.b.N.c.e.I 6 # $ 9 z B B B B B B ",
"B B B B B B z 9 $ # 6 U r.M.B.m.g.3.;.*.*.;.;.;.;.;.;.;.;.;.;.;.;.;.;.;.;.;.;.;.;.;.*.*.*.;.3.g.m.B.M.r.U 6 @ $ 9 z B B B B B B ",
"B B B B B N z 9 $ # 6 U r.M.B.m.g.3.;.*.*.*.;.;.;.;.;.;.;.;.;.;.;.;.;.;.;.;.;.;.;.;.*.*.*.;.3.g.m.B.M.r.U 6 # $ 9 z N B B B B B ",
"B B B B B N z 9 $ # 6 I e.c.N.b.a.3.;.*.*.;.;.;.;.;.;.;.;.;.;.;.;.;.;.;.;.;.;.;.;.;.;.*.*.;.3.a.b.N.c.e.I 6 # $ 9 z N B B B B B ",
"B B B B B B z 0 < = 7 P 6.h.l.j.u.,.;.;.;.;.;.*.;.;.;.;.;.;.;.;.;.;.;.;.;.;.;.;.;.;.;.;.*.;.,.u.j.l.h.6.L 7 = < 0 z B B B B B B ",
"B B B B B B m k 9 3 t C R 5.0.q.-.,.>.>.;.;.;.;.;.;.;.;.;.;.;.;.;.;.;.;.;.;.;.;.;.;.;.;.>.>.,.-.q.0.5.R C t 3 9 k m B B B B B B ",
"B B B B B B m z k d f b C L T { +.*.>.>.>.;.;.*.;.;.;.;.;.;.;.;.;.;.;.;.;.;.;.*.;.;.;.>.>.>.*.+.{ T L C b f d k z m B B B B B B ",
"B B B B B B m m m z l d t 7 g G ( o.*.>.:.;.;.;.;.;.;.;.;.;.;.;.;.;.;.;.;.;.;.;.;.;.;.:.>.*.o.( G g 7 t d l z m m m B B B B B B ",
"B B B B B B B B B m z d 2 = 1 a H _ X.#.*.*.;.;.;.;.;.;.;.;.;.;.;.;.;.;.;.;.;.;.;.;.*.*.#.X._ H a 1 = 2 d z N B B B B B B B B B ",
"B B B B B B B B B B m k 9 2 2 e v H ! ' o.*.>.>.>.>.>.:.;.;.;.;.;.;.;.;.:.>.>.>.>.>.*.o.' ! H v e 2 2 9 k m B B B B B B B B B B ",
"B B B B B B B B B B m z k y 0 t y u M J ' #.>.<.<.>.>.:.;.;.;.*.*.;.;.:.>.>.>.<.<.>.#.' J v u y t 0 0 k z m B B B B B B B B B B ",
"B B B B B B B B B B m m m z k y 3 1 w S ~ o.*.>.:.*.*.*.*.;.;.;.;.;.;.;.*.*.;.:.>.*.X.~ S w 1 3 y k z m m m B B B B B B B B B B ",
"B B B B B B B B B B m m m z k y 3 1 q s J ' X.o.X.X.o.@.#.*.;.;.;.;.*.*.@.o.X.X.o.X.' J s q 1 3 y k z m m m B B B B B B B B B B ",
"B B B B B B B B B B m z k d y y u u a M F J J J J J ! _ X.#.;.>.>.;.#.X._ ! J J J J H F M a u u y y d k z m B B B B B B B B B B ",
"B B B B B B B B B B m k 9 2 3 u M H H F M a i r r a v J _ @.;.>.>.;.@._ J v a r r i a M H H H M u 3 2 9 k m B B B B B B B B B B ",
"B B B B B B B B B m z d 2 = 1 a J _ _ Q v q - * * : w S ~ o.;.<.<.;.o.~ S w - * * - q v Q ' _ J a 1 = 2 d z N B B B B B B B B B ",
"B B B B B B m m m z k y 3 1 w D / X.o.) D w - * % : w S ~ o.;.<.<.*.o.~ S w - * % : w D ) X.X./ D w 1 3 y k z m m m B B B B B B ",
"B B B B B B m z k y y t u a S Q [ *.*.] E M i r r a v J _ @.;.>.>.;.@._ J v i r r a M J ] *.*.[ Q S a u t y y k z m B B B B B B ",
"B B B B B B m k 9 2 3 u v H ~ ] #.;.*.@.' ~ J J J J ! _ X.#.;.>.>.;.#.X._ ! J J J J ~ ' @.;.;.#.] ~ H v u 3 2 9 k m B B B B B B ",
"B B B B B N z d 2 = 1 a H _ o.#.*.*.*.*.@.o.X.....X.o.@.#.*.;.;.;.;.*.#.@.X.X.....X.X.@.*.*.*.*.#.X._ H a : = 2 d z B B B B B B ",
"B B m m m z k y 3 1 w S ~ X.*.*.#.o.o.@.#.*.*.;.*.*.*.*.;.;.;.;.;.;.;.;.*.*.*.*.;.*.*.#.@.o.o.#.*.*.X.~ M w 1 3 y l z m m m B B ",
"B B m z k d y y u a M J ' #.*.o.' ~ ~ ' X.*.>.<.>.>.>.>.:.;.;.;.*.;.;.:.>.>.>.>.<.>.*.X.' ~ ~ ' o.*.#.' J M a u y y d k z m B B ",
"B B m k 9 3 3 u M H ~ ' @.#.@.' J S S J ' #.>.<.>.>.>.:.;.;.;.;.;.;.;.;.:.>.>.>.<.>.#.' J S S J ' @.#.@.' ~ H M u 8 3 9 k m B B ",
"B B z d 2 = : a H _ o.*.;.*.o.~ M w w v ! o.;.>.>.;.;.;.;.;.;.;.;.;.;.;.;.;.;.>.>.;.o.! v w w M ~ o.*.;.*.o._ H a 1 = 2 d z B B ",
"B B z 0 < # - a E X.;.1.4.2.#.^ a : : a J X.*.>.>.;.;.;.;.;.;.;.;.;.;.;.;.;.;.>.>.*.X.J i : : x ^ &.2.4.1.:.X.E a - # < 0 z N B ",
"B B z 9 = @ - a ! @.1.i.f.s.w.} n - = r J ..*.>.>.;.;.;.;.;.;.;.;.;.;.;.;.;.;.>.>.*.X.J r = - n } w.s.f.i.1.@.! a - @ = 9 z B B ",
"B B z 9 = @ - a W @.3.f.z.x.p. .Z 1 - r J X.*.>.>.;.;.;.;.;.;.;.;.;.;.;.;.;.;.>.>.*...J r - 1 Z  .p.x.z.f.3.@.W a - @ = 9 z N B ",
"B N z 0 < # - a J X.2.s.v.n.k.8.L 5 - r J X.*.>.>.;.;.;.;.;.;.;.;.;.;.;.;.;.;.>.>.*.X.J r - 5 L 8.k.n.v.s.2.X.J a - # < 0 z N B ",
"B B z d 2 = : p H _ #.y.d.k.t.5.Z 5 : r J X.*.>.>.;.;.;.;.;.;.;.;.;.;.;.;.;.;.>.>.*.X.J r : 5 Z 5.t.k.d.y.&._ H a : = 2 d z N B ",
"B B m k 9 3 3 u M H ^ | $.9.5.Y h , - a J X.*.>.>.;.;.;.:.:.>.>.>.>.>.:.;.;.;.>.>.*.X.J a - , h Y 5.9.$.| ^ H M u 8 3 9 k m N B ",
"B B m z k d y y u a c V K P A j 5 * - a E X.*.>.>.;.;.;.>.>.>.>.>.>.>.:.;.;.;.>.>.*.X.E a - * 5 j A P K V c a u y y d k z m B B ",
"B B N m m z l y 3 1 : 1 5 5 5 = + + - a Q X.*.>.>.;.;.*.;.*.*.*.*.*.*.*.*.;.;.>.>.*.X.Q a - + + * 5 5 5 1 : : 3 y l z m m m B B ",
"B B B B B B z d 3 = # # # # # O X O - a Q X.*.>.>.;.*.*.@.o.X.X...X.o.@.*.*.;.>.>.*.X.Q a - O X O # # # # # = 3 d z N B B B B B ",
"B B B B B B m k 9 2 = $ $ $ $ @ o O - a Q X.*.>.>.;.&.X.' ~ Q J J Q ~ ' X.*.;.>.>.*.X.Q a - O o @ $ $ $ = > 2 9 k m B B B B B B ",
"B B B B B B m z k y 9 9 9 9 3 ; @ O - a Q X.;.<.<.;.@.' J S a i i a S J ' @.;.<.<.*.X.Q a - O @ ; 3 9 9 9 9 d k z m B B B B B B ",
"B B B B B B m m m z z z z z k 4 $ # - a Q X.;.<.<.;.o.~ S w - % % - w S ~ o.;.<.<.;.X.Q a - # $ 4 k z z z z z m m N B B B B B B ",
"B B B B B B B B B B B B B N z 9 > # - a E X.;.<.<.;.X.Q a - O     O - a Q X.;.<.<.;.X.E a - # = 9 z N B B B B B B B B B B B B B ",
"B B B B B B B B B B B B B B z 0 < # - a E X.;.<.<.;.X.Q a = .     . = a Q X.;.<.<.;.X.E a - # < 0 z B B B B B B B B B B B B B B ",
"B B B B B B B B B B B B B B z 0 < # - a E X.;.<.<.;.X.Q a = .     . = a Q X.;.<.<.;.X.E a - # < 0 z B B B B B B B B B B B B B B ",
"B B B B B B B B B B B B B B z 9 < # - a E X.;.<.<.;.X.Q a - X     X - a Q X.;.<.<.;.X.E a - # > 9 z B B B B B B B B B B B B B B ",
"B B B B B B B B B B B B B B z 9 > # - a E X.;.<.<.;.X.Q a - o     o - a Q X.;.<.<.;.X.E a - # > 9 z B B B B B B B B B B B B B B ",
"B B B B B B B B B B B B B B z 9 > # - a E X.;.<.<.;.X.Q a - o     o - a Q X.;.<.<.;.X.E a - # > 9 z B B B B B B B B B B B B B B "
};
