/* XPM */
static char *_88dba6283074719d20ccf2c10021788IVg8lqgs2ZKQp7vN[] = {
/* columns rows colors chars-per-pixel */
"64 64 172 2 ",
"   c None",
".  c #030A14",
"X  c #0C0E17",
"o  c #0E0F18",
"O  c #120C15",
"+  c #130F18",
"@  c #0F1018",
"#  c #151019",
"$  c #1C121B",
"%  c #23131C",
"&  c #2C141E",
"*  c #33151E",
"=  c #3B151E",
"-  c #1F1A22",
";  c #231D24",
":  c #2B1B23",
">  c #341721",
",  c #3F1721",
"<  c #361F26",
"1  c #3D1922",
"2  c #242026",
"3  c #232529",
"4  c #2B262B",
"5  c #2D292F",
"6  c #242A2C",
"7  c #362027",
"8  c #34252A",
"9  c #3A242B",
"0  c #2D2D31",
"q  c #312F33",
"w  c #333135",
"e  c #3B3336",
"r  c #363538",
"t  c #39363B",
"y  c #3C3B3D",
"u  c #4C1722",
"i  c #441A23",
"p  c #4B1C25",
"a  c #491C28",
"s  c #521723",
"d  c #531B24",
"f  c #5B1824",
"g  c #541D29",
"h  c #5B1E2A",
"j  c #621E2B",
"k  c #761E2D",
"l  c #7E1E2C",
"z  c #462027",
"x  c #41242B",
"c  c #4B242B",
"v  c #48282F",
"b  c #572026",
"n  c #5D2026",
"m  c #462A31",
"M  c #5D2D33",
"N  c #5E363C",
"B  c #5D393F",
"V  c #622127",
"C  c #63202C",
"Z  c #6A222D",
"A  c #62282E",
"S  c #6E292E",
"D  c #74252C",
"F  c #6C2633",
"G  c #722531",
"H  c #7E2331",
"J  c #722C32",
"K  c #3F3E40",
"L  c #743D42",
"P  c #444345",
"I  c #484647",
"U  c #474648",
"Y  c #474848",
"T  c #4D4D4E",
"R  c #4F4F50",
"E  c #525353",
"W  c #585759",
"Q  c #5B5B5B",
"!  c #811F2D",
"~  c #86202E",
"^  c #892C2F",
"/  c #842433",
"(  c #8A2737",
")  c #842933",
"_  c #8D2A35",
"`  c #8F2938",
"'  c #932635",
"]  c #992737",
"[  c #942C33",
"{  c #9C2936",
"}  c #922938",
"|  c #9B2B3A",
" . c #9B393C",
".. c #A52E30",
"X. c #A82F37",
"o. c #A32D3C",
"O. c #AA2F3E",
"+. c #A63136",
"@. c #AD3234",
"#. c #A73139",
"$. c #AE303C",
"%. c #A93A3C",
"&. c #B43537",
"*. c #BB3536",
"=. c #B4343B",
"-. c #BD353C",
";. c #BF393A",
":. c #B43B3D",
">. c #C1363D",
",. c #CB373E",
"<. c #C4393A",
"1. c #CA3A3E",
"2. c #D23B3F",
"3. c #DB3E3E",
"4. c #E03D3E",
"5. c #E5403F",
"6. c #CD3A40",
"7. c #D33C40",
"8. c #DF3E40",
"9. c #9E5154",
"0. c #9A5B5F",
"q. c #B74042",
"w. c #BC4446",
"e. c #B7484A",
"r. c #AB5255",
"t. c #AE5B5E",
"y. c #B05355",
"u. c #BB5759",
"i. c #A66164",
"p. c #A96265",
"a. c #BF6061",
"s. c #BD6D6F",
"d. c #B26365",
"f. c #B96F72",
"g. c #BC7173",
"h. c #C74648",
"j. c #C44D4F",
"k. c #DC4243",
"l. c #D54444",
"z. c #CA5758",
"x. c #D55C5D",
"c. c #E44242",
"v. c #EA4545",
"b. c #E54A4A",
"n. c #EB4C4B",
"m. c #EB5656",
"M. c #EC5B5B",
"N. c #E45353",
"B. c #F15453",
"V. c #EA605F",
"C. c #F2605F",
"Z. c #C16869",
"A. c #D76A6B",
"S. c #CF7B7C",
"D. c #EB6464",
"F. c #E06969",
"G. c #EA6B6B",
"H. c #F06665",
"J. c #F16B6B",
"K. c #ED7B7B",
"L. c #EC7271",
"P. c #F07574",
"I. c #F07F7F",
"U. c #E68181",
"Y. c #EF8080",
"T. c #E18888",
"R. c #EE8A8A",
"E. c #F38484",
"W. c #E69394",
"Q. c #F59393",
"!. c #F69B9B",
"~. c #F89A9A",
/* pixels */
"                                                                                                                                ",
"                                                                                                                                ",
"                                                                                                                                ",
"                                                                                                                                ",
"                                                                                                                                ",
"                                                                                                                                ",
"                                                                                                                                ",
"                                                                                                                                ",
"                                                                                                                                ",
"                                                                                                                                ",
"                                                                                                                                ",
"                                                                                                                                ",
"                                                                                                                                ",
"                                                                                #                                               ",
"                                                                              $ $ # $                                           ",
"                                                                                # + + +                                         ",
"                                                                                  # $ + #                                       ",
"                                                                            +   ; 5 ; + +                                       ",
"                                                                          $ $ $ 5 t q ; $                                       ",
"                                                    o o o o o o X # @ + 2 5 5 5 w K P P w # O #                                 ",
"                                                  ; % & % % % ; % $ $ $ 2 r K K K P E Q U ; # # #                               ",
"                                            @ X % g j Z Z j j C n d i ; 3 w r K P Y E W E U q $ + $                             ",
"                                          % % % > Z ` ` } | #.#.{ ! j x 4 4 w y P E E E W W K $ + $                             ",
"                                        $ = s h j g p p j O.1.1.-.{ ~ j z 4 q y Y E Q Q T t 5   + +                             ",
"                                      $ & s ! { } i + o 1 %.b.c.7.=.] ~ V 8 0 y P R Q Q K $       #                             ",
"                                    $ = f k ] >.=.d . . 8 r.D.n.8.7.-.o.G 9 6 0 K R E R r $ +                                   ",
"                                  o $ u ! ] $.7.1.J 9 < B g.E.V.b.c.,.| F m 8 8 e Y I t 5 $                                     ",
"                                  X $ f ] >.7.4.k.u.i.i.f.W.!.E.D.n.*.h a F G V c r 5 2 -                                       ",
"                                  & > h ( #.;.l.N.G.P.P.Y.Q.W.S.a.w.[ d n | o.~ C x : $ +                                       ",
"                                $ g F h , i A y.G.D.N.m.M.C.z.J m z V [ =.6.-.] ~ j = $ +                                       ",
"                                $ j } g # . : 0.K.M.3.<.&.*.[ n = = S h.n.c.2.=.{ ! d % #                                       ",
"                                $ j ` g + . ; 0.K.M.<.D i i V [ @.@.w.F.G.b.3.2.-.] h % o                                       ",
"                                $ h } D z x N t.G.B.;.b X . = @.v.M.H.L.G.b.5.5.6.o.C % X                                       ",
"                                $ h | @.:.u.Z.x.N.v.;.b X X 1 @.m.E.E.V.b.c.5.5.6.o.C ; o                                       ",
"                                ; f o.,.v.V.J.m.3.*.[ V z u J j.P.!.T.e...+.:.1.6.| j % o                                       ",
"                                % g  .1.5.b.b.n.1.S b ^ *.*.j.U.~.Q.s.M * = V | O.o.j % o                                       ",
"                                $ g ' =.1.5.3.*.[ V V *.n.B.J.Q.!.K.r.7 . X 1 ) o.' j % o                                       ",
"                                $ u l ] $.2.1.S p ^ <.3.b.G.K.R.K.M.%.1 X @ i ` ] ! s % #                                       ",
"                                $ = f l | { ^ S S *.k.*. .9.d.A.D.b.*.D c a C } / f = $                                         ",
"                                  $ & C [ n p ^ <.3.<.S * : M q.b.c.3.1.&.} } | D * $                                           ",
"                                  X $ C ` a % ) 7.v.>.p X . = @.5.c.k.3.-.O.o.' j % X                                           ",
"                                  o % C ` a : Z O.7.-.h + X i $.5.5.,.$.o.o.' l s % +                                           ",
"                                  + $ i j h g H o.-.$.G a a C #.6.6.-.#.] ' k f = %                                             ",
"                                  # $ # : j ` | o.o.o.} ` } ] | o.o.o.| ' l f & $                                               ",
"                                    # + $ i Z ` o.| o.o.o.o.o.o.| ` ! j f u = $                                                 ",
"                                      # + # > Z | | | | | | | | ' l j * $ % $                                                   ",
"                                        + o $ a h h h h h h h h g u = $ o @                                                     ",
"                                              $ $ % $ % $ - % $ $ $ $                                                           ",
"                                                  o                                                                             ",
"                                                                                                                                ",
"                                                                                                                                ",
"                                                                                                                                ",
"                                                                                                                                ",
"                                                                                                                                ",
"                                                                                                                                ",
"                                                                                                                                ",
"                                                                                                                                ",
"                                                                                                                                ",
"                                                                                                                                ",
"                                                                                                                                ",
"                                                                                                                                ",
"                                                                                                                                ",
"                                                                                                                                ",
"                                                                                                                                "
};
