/* XPM */
static char *a59a796f1b4545beab7fd146f47d50eb6EJi7du5nZ19jmdM[] = {
/* columns rows colors chars-per-pixel */
"64 64 234 2 ",
"   c None",
".  c #0D0F0C",
"X  c #172B09",
"o  c #3D2B1A",
"O  c #223614",
"+  c #3E3221",
"@  c #2E2832",
"#  c #422E1C",
"$  c #43321F",
"%  c #662E0F",
"&  c #443424",
"*  c #4C3A26",
"=  c #4D3B29",
"-  c #463828",
";  c #513F2C",
":  c #1F4506",
">  c #274A0F",
",  c #22450A",
"<  c #29540C",
"1  c #2B560D",
"2  c #2A4913",
"3  c #294714",
"4  c #2E5812",
"5  c #335B19",
"6  c #3D500D",
"7  c #3B6C1A",
"8  c #386518",
"9  c #3E721B",
"0  c #3B5926",
"q  c #3A4825",
"w  c #3A6127",
"e  c #486614",
"r  c #556515",
"t  c #41741D",
"y  c #437B1D",
"u  c #54781F",
"i  c #6E6D17",
"p  c #54422E",
"a  c #5B452F",
"s  c #564533",
"d  c #594631",
"f  c #5D4934",
"g  c #584B3B",
"h  c #485834",
"j  c #634F39",
"k  c #624B35",
"l  c #6A533C",
"z  c #64513D",
"x  c #794D33",
"c  c #467D22",
"v  c #497E23",
"b  c #477328",
"n  c #597D22",
"m  c #4A6339",
"M  c #4D6D32",
"N  c #667D21",
"B  c #7E7C20",
"V  c #49520D",
"C  c #5C5042",
"Z  c #59514E",
"A  c #6C5B49",
"S  c #6A5743",
"D  c #735C45",
"F  c #745F4B",
"G  c #675C50",
"H  c #586D49",
"J  c #556A46",
"K  c #5A734A",
"L  c #5E6B55",
"P  c #7D644C",
"I  c #776048",
"U  c #7A6754",
"Y  c #677A58",
"T  c #6F695B",
"R  c #737265",
"E  c #973E12",
"W  c #9A4419",
"Q  c #86771D",
"!  c #866D18",
"~  c #857A21",
"^  c #977E25",
"/  c #AA633C",
"(  c #C75E2A",
")  c #C96532",
"_  c #C8632F",
"`  c #80674E",
"'  c #81684F",
"]  c #846B52",
"[  c #8B735B",
"{  c #87715A",
"}  c #807F4B",
"|  c #AC6941",
" . c #B17656",
".. c #8A7865",
"X. c #957D65",
"o. c #997B62",
"O. c #927D69",
"+. c #847C73",
"@. c #8D7E71",
"#. c #836F60",
"$. c #C37854",
"%. c #4D8426",
"&. c #4E822B",
"*. c #4B8425",
"=. c #518B2A",
"-. c #57922E",
";. c #5A8A38",
":. c #599631",
">. c #5B9932",
",. c #60903F",
"<. c #688754",
"1. c #6E8162",
"2. c #758966",
"3. c #7E8D70",
"4. c #77A05A",
"5. c #828224",
"6. c #AB8526",
"7. c #B48523",
"8. c #B88727",
"9. c #BF9132",
"0. c #B2821E",
"q. c #C38E21",
"w. c #C7942B",
"e. c #C99A36",
"r. c #D39D35",
"t. c #D8A436",
"y. c #D8A338",
"u. c #E5AF3F",
"i. c #B59348",
"p. c #9B846D",
"a. c #96816C",
"s. c #9E8974",
"d. c #998572",
"f. c #85957A",
"g. c #8D8176",
"h. c #A18B75",
"j. c #A28D79",
"k. c #A6907A",
"l. c #AB947E",
"z. c #B48669",
"x. c #85A96C",
"c. c #DD885E",
"v. c #C29C4F",
"b. c #C5A25B",
"n. c #D3A853",
"m. c #ECB645",
"M. c #F3BC4A",
"N. c #EAB851",
"B. c #D19374",
"V. c #D0B06E",
"C. c #E8B46C",
"Z. c #E08D65",
"A. c #F7C14F",
"S. c #F0C46B",
"D. c #99948A",
"F. c #919784",
"G. c #AB9681",
"H. c #AD9D8C",
"J. c #AC9884",
"K. c #B19B84",
"L. c #B19F8D",
"P. c #95A78A",
"I. c #9AAD8F",
"U. c #B9A38C",
"Y. c #B6A08A",
"T. c #A9A69C",
"R. c #BDA992",
"E. c #B9A796",
"W. c #A6B393",
"Q. c #AEA8A3",
"!. c #AAB6A3",
"~. c #B8B5AA",
"^. c #BBB3AA",
"/. c #C1AD97",
"(. c #C8B49F",
"). c #C6B39C",
"_. c #D4B98D",
"`. c #C2B6AA",
"'. c #C6BAAE",
"]. c #CAB7A4",
"[. c #D2BEA9",
"{. c #C9BEB2",
"}. c #C6BCB2",
"|. c #E6B69F",
" X c #A6C395",
".X c #B9C1B3",
"XX c #B7C0B1",
"oX c #B9D0A9",
"OX c #DCC69B",
"+X c #F3D493",
"@X c #D9C5AA",
"#X c #C9C5BA",
"$X c #D9C6B2",
"%X c #DDCAB6",
"&X c #DECCBA",
"*X c #D4C5B5",
"=X c #F6DBA3",
"-X c #E1CEBA",
";X c #E8C8B9",
":X c #F2CDBB",
">X c #E4D5BB",
",X c #E2C8AF",
"<X c #C8C8C1",
"1X c #D5CDC4",
"2X c #D5CEC9",
"3X c #CBD2C6",
"4X c #CCD2C8",
"5X c #DBD4CD",
"6X c #D1D7CC",
"7X c #D7D4D1",
"8X c #DCDAD4",
"9X c #DAD8D3",
"0X c #E6D7C7",
"qX c #E2DBD5",
"wX c #E6DFD7",
"eX c #F3D6C8",
"rX c #DEE3DA",
"tX c #E9E2D9",
"yX c #F2E7DB",
"uX c #EDE3CF",
"iX c #E6ECE2",
"pX c #EEEAE6",
"aX c #EDECE9",
"sX c #E7E6E3",
"dX c #F3ECE3",
"fX c #F2EEEB",
"gX c #ECF1E9",
"hX c #F3F1EE",
"jX c #F9F0E7",
"kX c #F4F4F2",
"lX c #FBF9F6",
"zX c #FEFEFD",
"xX c #F9F6F3",
"cX c #ECEFF0",
/* pixels */
"                                                                                                                                ",
"                                                                                                                                ",
"                                                          zX                      zXzX                                          ",
"                                                      lXlXlXlXlXlXlXlXlXlXlXlXlXlXlXlXlX                                        ",
"                                                      #X.XXX.X.X.X.X.X.X.X.X.X.X.XXXXX.X4X                                      ",
"                                                  zX3Xf.K J H H H H H H H H H H H J J 1.!.hX                                    ",
"                                                gXrX!.Y 2 , > > > > > > > > > > > , , m P.6XaX                                  ",
"                                              aX.XF.1.M 7 7 7 7 7 7 7 7 7 7 7 7 7 7 7 b <.f.!.8X                                ",
"                                            zXsXI.m 5 v :.>.:.:.:.:.:.:.:.:.:.:.:.:.:.=.7 0 3.4XlX                              ",
"                                          tX<X!.2.b 8 *.:.>.:.:.:.:.:.:.:.:.:.:.:.>.>.=.7 8 K P..X9X                            ",
"                                        zX6Xf.H M &.%.%.%.%.%.%.%.%.%.%.%.%.%.%.%.%.%.%.%.%.b M 1.~.kX                          ",
"                                        zX3XY 2 4 =.:.=.v c c c c c c c c c c c c c v *.-.-.9 > m !.kXzX                        ",
"                                        zX3XY , 1 *.=.%.*.y y y y c c c c c c c c c c *.=.=.8 : h !.kXzX                        ",
"                                        zX3X1.2 < t v c c v &.&.*.v c c v v v v v c c v *.v 8 , m !.kXzX                        ",
"                                        zX4X1.3 < 9 9 5 0 <.x.x.,.v y c v v c c c c c c c c 4 , m !.kXzX                        ",
"                                        zX4X1.2 < t 8 X O R #XoX4.v y c v v c c c c c c *.c 4 , m !.kXzX                        ",
"                                        zX4X1.2 < t 5 X . T ~.!.4.v y c c c v n n n n n %.n e 6 M H.0XjX                        ",
"                                        zX4X1.2 < t 5 X . @ Z L M v c c c c v N B Q Q ~ Q Q i i ~ i.V.@XyX                      ",
"                                        zX4X1.2 < t 8 X . . . O 8 c *.v c v n 5.6.7.6.6.6.6.6.6.6.6.i._.uXlX                    ",
"                                        zX4X1.2 < t b 5 3 O O 2 7 c *.v n N 5.6.e.r.r.r.r.r.n.n.V.n.V.V.OX,XuX                  ",
"                                        zX4X1.3 < t *.&.&.&.&.&.v c c v N ~ 6.e.m.M.M.M.m.M.S.+X=X=X+XV.b.V.>XlX                ",
"                                        zX4X1.2 < t %.-.>.>.>.-.%.c c v N ^ 8.t.M.A.A.M.M.A.S.+X=X=X+XC.e.v.OX0XyX              ",
"                                        zX3X1.2 < t %.=.=.=.=.=.*.c c v N ^ 8.r.u.m.m.m.m.m.N.C.S.S.C.n.r.e.v.V.@XdX            ",
"                                        zX3X1.3 < 9 c v v c c c v c c v N ~ 6.w.t.t.t.t.t.t.t.y.y.y.y.t.t.e.9.i._.yXzX          ",
"                                        zX3XY , , 8 t c c c c c c c c v u i Q 6.w.w.w.w.w.w.w.q.q.q.q.q.q.e.b._.,XdX            ",
"                                        zX4X1.3 : 4 8 t c v c c c v v c t e r Q 6.8.7.7.7.7.7.7.7.7.7.0.7.v.OXyXhX              ",
"                                        zX6XF.K 0 4 4 8 t c y y y y y y 9 8 8 r ! Q Q Q ! ! ^ i.b.b.b.b.b.V.>XlX                ",
"                          zXzXzXzXzXzX      3X!.2.5 : 4 8 9 t y y y y y 9 9 7 e r r r r V V a.).>X>X>X>X>X0XuX                  ",
"                        hXhXhXhXhXhXhXhX    zXiXI.m 2 4 5 b ;.;.;.;.;.;.;.;.;.M b t 5 4 2 h 3.6XzXzXlXlXzXzX                    ",
"                      aX1X{.{.{.{.{.{.1XpX    aX.XP.1.h 5 <.P. X X X X X X X XW.P.<.w 5 K f.!.8XzXzXzXzXzX                      ",
"                    zXpX'.G.s.j.j.s.G.'.pXzX      sX!.K 0 2.4XgXgXiXiXiXiXiXiXgXrXI.m h F.9XgX                                  ",
"                  pXqX1X`.U.H.H.H.H.U.`.1XqX    zXzX#XY q R ~.5X5X2X2X2X2X2X2X9X1XF.h h T.hXzX                                  ",
"                lX5X^.E.{.5XqX8X8XqX5X{.E.E.5XlXzXzX<XT + g #.g.g.@.@.@.@.@.@.g.@.A - g T.hXzX                                  ",
"              xXpX1XU.L.*XhXlXlXlXlXhX*XL.U.1XaXlXfX}.R = * f j j j j j j j j j f * o C Q.hXzX                                  ",
"            fX5X#X'.}.#X0XyXdXdXdXdXyXqX#X}.'.}.{.'.H.U f a k z z l l l l l z k p & o C Q.hXzX                                  ",
"          zXaX'.G.E.8XdXtX0X-X-X&X&X-XwXdXqX^.j.s.s.a.{ ] P ] ] ' P P P ` ` P S f * o C Q.aXzX                                  ",
"          zXpX^.d.L.5XdXuX&X[.(././.).&XyXwX].l.h.k.l.K.H.H.H.j...] ' ] ] ] ' F l a * g g.~.2X                                  ",
"          zXpX`.s.G.*X0X0X%X(.J.h.s.l./.&X0X$X].).(.[.1XqXtX8X'.s.' P ] ] ] ] ` P l d s g T D.8XzX                              ",
"          zXpX`.s.l.].%X%X[.R.l.p.p.h.U.[.&X&X%X%X%X0XdXxXzXxX5XU.O.{ ] ] ] ] ] ] P l d $ - +.7XzX                              ",
"          zXpX`.s.l.].@X(.U.U.R.R.U.R.(.@X%X-X-X-X-X0XwXyXyXyXwX1X`.k.[ ' ] ] ] ] ' P z $ & +.7XzX                              ",
"          zXpX`.s.l.].[.L.d.G.).@X$X$X$X%X%X%X%X%X%X&X&X-X-X-X0XdXtXE...` ' ] ] ] ] ] D = - +.7XzX                              ",
"          zXpX`.s.l.[.[.s.U ..K.(.$X-X-X&X%X%X%X%X%X%X%X%X$X%X0XdXtXE.X.` ' ] ] ] ] ] I ; - +.7XzX                              ",
"          zXpX`.s.G.[.)...f j { k.).%X-X&X%X%X%X%X%X%X%X%X%X%X-X0X&XU.[ ` ] ] ] ] ] ] D ; - +.7XzX                              ",
"          zXpX`.s.l.(.E.U & * D X.K.].$X%X&X&X%X%X%X&X%X%X&X%X%X@X).k.[ ' ] ] ] ] ] P S * - +.7XzX                              ",
"          zXaX`.s.h.R.K.A + * D [ p.l./.$X-X-X-X-X-X-X-X-X-X-X[.U.h.X.{ ] ] ] ] ] P D j & - +.7XzX                              ",
"          zXaX`.s.p.K.j.F = p D ] ] [ l.].%X%X$X$X$X$X$X$X%X$X/.h.{ ] ] ' ] ] ] ' D l p # - +.7XzX                              ",
"          zXpX`.p.p.l.l...A z j l D ] p.K.R.R.R.R.R.R.R.R.R.R.l.X.P D l l D D D D S j p o + +.7XzX                              ",
"          zXpX`.d.p.l.K.G.d.U s ; l ] [ X.X.X.X.X.X.X.X.X.X.X.X.{ P j = = f j z j j f p o & +.7XzX                              ",
"          zXaX#XH.l.l.K.Y.K.O.S s j D D D D D D D D D D D D D D D S d & & p f f f d p s g G D.9XzX                              ",
"              wX1X`.G.h.l.Y.l.O.U z p = = = = = = = = = = = = ; p p ; = ; s f f f * $ s +.Q.<XsX                                ",
"              zXkX1XL.s.k.K.Y.K.d.A = & & & & & & & & & & & & & + & * d f f f f d = = G T.sXzX                                  ",
"                lXqX{.E.K.k.l.Y.G...A S A A A A A A A A A A A z p * ; f k f d = * C R D.#XkX                                    ",
"                    aX5XE.s.h.K.K.l.h.h.h.h.h.h.h.h.h.h.h.j.h...S a p f f f a & & R ~.8XaX                                      ",
"                    zXpX{.L.G.l.l.J.K.K.K.K.K.K.K.K.K.K.l.k.d.{ S p ; p p p s g G D.7XzX                                        ",
"                        wX1X`.l.p.p.h.h.h.h.h.h.h.h.h.h.p.] S s = & & & + + g +.Q.<XtX                                          ",
"                        zXkX1XH.p.X.o.o.o.o.o.o.o.o.X.p.a.U g = & # # # o o g T.sXzX                                            ",
"                          lXqX#XR.z.| / | | | | / |  .U.^.T.D.#.x % % % % % x E.fXzX                                            ",
"                              fX0XB.) ( _ _ _ _ ( _ c.,XpXcXwX]. .W E W E E / (.fXzX                                            ",
"                              zXyX|.Z.c.c.c.c.c.c.c.C.eXlXzXzX0XB.$.$.$.$.$.B.@XjX                                              ",
"                                  eX:X:X:X:X:X:X:X:XeXyX      tX;X;X;X;X;X;X;XeX                                                ",
"                                  lXlXlXlXlXzXlXlXlXlX          lXlXlXlXlXlXlX                                                  ",
"                                      zXzX      zX                  zX  zXzX                                                    ",
"                                                                                                                                ",
"                                                                                                                                "
};
