/* XPM */
static char *_7802f55b1b7429cf8edde695228b9426nPxfqOhn8L3lrTG[] = {
/* columns rows colors chars-per-pixel */
"64 64 168 2 ",
"   c None",
".  c black",
"X  c #030304",
"o  c #030305",
"O  c #030406",
"+  c #060606",
"@  c #09090A",
"#  c #0B0B11",
"$  c #0B0C11",
"%  c #0C0C13",
"&  c #0C0D13",
"*  c #0E0F17",
"=  c #0F0F17",
"-  c #0F1018",
";  c #0F1019",
":  c #131415",
">  c #131416",
",  c #101119",
"<  c #10111A",
"1  c #12131A",
"2  c #151618",
"3  c #161719",
"4  c #17181A",
"5  c #17191B",
"6  c #17191C",
"7  c #18191B",
"8  c #18191C",
"9  c #191A1C",
"0  c #191A1D",
"q  c #191B1D",
"w  c #1A1B1D",
"e  c #1A1B1E",
"r  c #1A1C1E",
"t  c #1C1E20",
"y  c #1C1E21",
"u  c #1D1E21",
"i  c #1E1F22",
"p  c #1C1D2C",
"a  c #1F212F",
"s  c #222427",
"d  c #232528",
"f  c #242629",
"g  c #25272A",
"h  c #20222F",
"j  c #26282B",
"k  c #27292D",
"l  c #272A2D",
"z  c #27293C",
"x  c #272A3D",
"c  c #282A3D",
"v  c #2E3135",
"b  c #2F3135",
"n  c #2F3136",
"m  c #343740",
"M  c #33364F",
"N  c #333650",
"B  c #343750",
"V  c #343751",
"C  c #353752",
"Z  c #353852",
"A  c #353853",
"S  c #373A56",
"D  c #373B56",
"F  c #3B3E53",
"G  c #3D4046",
"H  c #41444A",
"J  c #42454B",
"K  c #42464C",
"L  c #40445B",
"P  c #41455D",
"I  c #42465D",
"U  c #4B4F5B",
"Y  c #50555C",
"T  c #51555C",
"R  c #51565D",
"E  c #52575E",
"W  c #53575F",
"Q  c #53585F",
"!  c #404463",
"~  c #474B6B",
"^  c #4F546B",
"/  c #4C506E",
"(  c #535860",
")  c #545860",
"_  c #545960",
"`  c #545961",
"'  c #5A5E67",
"]  c #5A5F67",
"[  c #4E5270",
"{  c #4F5470",
"}  c #505571",
"|  c #515672",
" . c #525673",
".. c #525773",
"X. c #525774",
"o. c #535874",
"O. c #535875",
"+. c #5A5F71",
"@. c #595E76",
"#. c #5B6068",
"$. c #5B6069",
"%. c #5C6169",
"&. c #5C616A",
"*. c #5F646D",
"=. c #5F656D",
"-. c #5D6277",
";. c #5A6078",
":. c #5C617E",
">. c #5D627F",
",. c #5D637F",
"<. c #60666E",
"1. c #666B7B",
"2. c #666B7C",
"3. c #666C7C",
"4. c #676C7C",
"5. c #676D7C",
"6. c #696F78",
"7. c #6A6F78",
"8. c #6A6F79",
"9. c #686E7C",
"0. c #696E7D",
"q. c #696F7D",
"w. c #6A6F7D",
"e. c #6A7079",
"r. c #6D737E",
"t. c #6E747F",
"y. c #5D6380",
"u. c #5E6481",
"i. c #5F6481",
"p. c #6F7580",
"a. c #707680",
"s. c #717780",
"d. c #717781",
"f. c #727881",
"g. c #717882",
"h. c #727882",
"j. c #727982",
"k. c #737982",
"l. c #737983",
"z. c #737A83",
"x. c #737A84",
"c. c #747A84",
"v. c #7A818C",
"b. c #7B828D",
"n. c #7D848F",
"m. c #7E8590",
"M. c #7E8591",
"N. c #7F8691",
"B. c #7F8692",
"V. c #7F8693",
"C. c #818994",
"Z. c #838A95",
"A. c #878FA0",
"S. c #8B93A0",
"D. c #8B93A6",
"F. c #8C93A7",
"G. c #8C94A6",
"H. c #8C94A7",
"J. c #8D95A8",
"K. c #98A1AD",
"L. c #98A1AE",
"P. c #99A1AE",
"I. c #99A2AF",
"U. c #9CA5B3",
"Y. c #9DA6B4",
"T. c #9FA8B6",
"R. c #A1AAB8",
"E. c #A8B1C0",
/* pixels */
"                                                                                                                                ",
"                                                                                                                                ",
"                                                        . . . . . . . .                                                         ",
"                                                        w w w w w w w w                                                         ",
"                                                . . . w J ( ) E E ( ) K w . . .                                                 ",
"                                                4 w w v %.x.h.h.h.x.c.%.v 6 w 7                                                 ",
"                                        . . . 6 K ) ( ] 7.d.h.d.d.h.h.7.] ) ( K w . . .                                         ",
"                                        4 w w v %.c.h.d.0.2.1.2.2.1.1.0.p.h.c.%.v 7 w 7                                         ",
"                                    . 4 J ) ( ' 7.d.h.7.@.| | | | | | @.0.h.h.7.' E ) K 4 .                                     ",
"                                    3 v $.x.x.d.0.2.7.;.L M C M C C S G +.0.5.0.p.x.c.' v 3                                     ",
"                                . 4 J $.e.h.h.0.@.X.O.P h = < < < ; < a P O.X.@.0.h.h.e.%.H 3 .                                 ",
"                                3 v $.h.d.r.e.+.G C Z c & . . . . . . * c Z N P ;.0.p.d.h.%.v 3                                 ",
"                            . 4 J $.e.d.h.0.@.P z ; ; % O . . . . . . O & ; ; a L ;.0.t.h.e.$.J 4 .                             ",
"                            . r ) c.d.r.5.+.P x % o . . . . . . . . . . . . . & z L +.0.r.h.x.( r .                             ",
"                            . r ) h.d.5.@.L a % o . . . . . . . . . . . . . . o & h L @.7.d.x.( r .                             ",
"                            3 v ] d.d.5.X.Z < . . . . . . . . . . . . . . . . . . < C | 5.d.d.] v 3                             ",
"                        . 4 K %.e.p.t.7.O.Z ; . . . . . . . . . . . . . . . . . . < A O.1.h.p.7.%.K 4 .                         ",
"                        . r ) c.h.r.7.;.P x & . . . . . . . . . . . . . . . . . . & x P ;.5.r.d.x.) r .                         ",
"                        . r ) h.d.1.;.L h $ O . . . . . . . . . . . . . . . . . . O $ h G :.0.h.h.) r .                         ",
"                        . r E h.h.1...Z < . . . . . . . . . . . . . . . . . . . . . . ; A O.7.k.h.E r .                         ",
"                        . w E h.t.7.O.Z < . . . . . . . . . . . . . . . . . . . . . . < Z O.1.t.h.Q w .                         ",
"                        3 v ] p.e.;.P x & . . . . . . . . . . . . . . . . . . . . . . & c P ;.e.p.] v 3                         ",
"                    . w J %.7.0.@.P h $ o . . . . . . . . . . . . . . . . . . . . . . o $ h L @.0.7.%.K 7 .                     ",
"                    . r ) c.h.1.| C < . . . . . . . . . . . . . . . . . . . . . . . . . . < C | 1.h.c.) r .                     ",
"                    . r ) h.h.1.| C ; . . . . . . . . . . . . . . . . . . . . . . . . . . < C | 1.h.h.) r .                     ",
"                    . w E h.h.1.| C < . . . . . . . . . . . . . . . . . . . . . . . . . . < Z | 1.h.h.E w .                     ",
"                    . w E h.d.2.| N < . . . . . . . . . . . . . . . . . . . . . . . . . . < C | 2.d.h.E w .                     ",
"                    . w E h.d.2.| Z < . . . . . . . . . . . . . . . . . . . . . . . . . . < M | 2.d.h.E w .                     ",
"                    . w E h.d.2.| Z < . . . . . . . . . . . . . . . . . . . . . . . . . . < C X.2.d.h.E w .                     ",
"                    . w E h.d.2.| C < . . . . . . . . . . . . . . . . . . . . . . . . . . ; C | 2.d.h.E w .                     ",
"                    . w E h.d.2.| C < . . . . . . . . . . . . . . . . . . . . . . . . . . < C | 2.d.h.E w .                     ",
"                    . w E h.d.2. .C < . . . . . . . . . . . . . . . . . . . . . . . . . . < C | 2.d.h.E w .                     ",
"                    . w E h.d.2.| M < . . . . . . . . . . . . . . . . . . . . . . . . . . < C | 1.d.d.E w .                     ",
"                    . w E h.d.2.| Z < . . . . . . . . . . . . . . . . . . . . . . . . . . < C o.2.d.h.E w .                     ",
"                    . w E h.d.2.o.C < . . . . . . . . . . . . . . . . . . . . . . . . . . < C | 2.d.h.E w .                     ",
"                    . w E h.d.2.| C < . . . . . . . . . . . . . . . . . . . . . . . . . . < M | 2.d.h.E w .                     ",
"                    . w E h.d.2.| C < . . . . . . . . . . . . . . . . . . . . . . . . . . < C | 2.d.h.E w .                     ",
"                    . w E h.d.2.| C < . . . . . . . . . . . . . . . . . . . . . . . . . . < C | 2.d.h.E w .                     ",
"                    . w E h.d.2.| C < . . . . . . . . . . . . . . . . . . . . . . . . . . < C | 2.d.h.E w .                     ",
"                    . w E h.d.2.| C < . . . . . . . . . . . . . . . . . . . . . . . . . . < C | 2.d.h.E w .                     ",
"                    . w E h.d.2.| C < . . . . . . . . . . . . . . . . . . . . . . . . . . < C | 2.d.h.E w .                     ",
"                    . w E h.d.2.| C < . . . . . . . . . . . . . . . . . . . . . . . . . . < C | 2.d.h.E w .                     ",
"                    . w E h.d.2.| C < . . . . . . . . . . . . . . . . . . . . . . . . . . < C | 2.d.h.E w .                     ",
"                    . w E h.d.2.| C < . . . . . . . . . . . . . . . . . . . . . . . . . . < C | 2.d.h.E w .                     ",
"                    . w E h.d.2.| M < . . . . . . . . . . . . . . . . . . . . . . . . . . < C | 2.d.h.E w .                     ",
"                    . w E d.d.2.| C < . . . . . . . . . . . . . . . . . . . . . . . . . . < C X.2.d.h.E w .                     ",
"                    . w E h.d.2.o.C < . . . . . . . . . . . . . . . . . . . . . . . . . . < C | 2.d.h.E w .                     ",
"                    . w E h.d.1.| C < . . . . . . . . . . . . . . . . . . . . . . . . . . < M | 2.d.h.E w .                     ",
"                    . w E h.d.2.| C < . . . . . . . . . . . . . . . . . . . . . . . . . . < C | 2.d.h.E w .                     ",
"                    . w E h.d.2.| C < . . . . . . . . . . . . . . . . . . . . . . . . . . < C | 2.d.h.E w .                     ",
"                    . w Q h.d.2.| Z < . . . . . . . . . . . . . . . . . . . . . . . . . . < Z | 1.h.h.E w .                     ",
"                    . w W h.d.5...Z < . . . . . . . . . . . . . . . . . . . . . . . . . . < Z ..5.h.h.W r .                     ",
"                    . w Q h.h.0.| C < . . . . . . . . . . . . . . . . . . . . . . . . . . < Z ..2.h.h.Q r .                     ",
"                    . w U 5.1.-.| D p & & - ; - & < < & - < < & ; - - ; < & < - ; - < & ; p D [ -.1.1.U w .                     ",
"                . . . 1 F | / / ~ ! S M C C C M C C M C M C M C M C M N M C C M M C C M M A ! ~ / | | F < o . .                 ",
"                f f j m ^ u.:.:.:.:.u.i.u.u.u.u.i.i.u.u.u.i.y.i.y.i.i.u.i.i.y.u.u.i.i.u.u.u.,.:.:.:.:.^ n l k d                 ",
"            . s =.v.v.V.A.H.H.D.G.G.J.J.J.J.H.H.J.H.H.H.J.H.J.H.J.J.H.H.J.H.H.J.H.J.J.H.J.J.G.G.D.F.J.Z.C.b.b.<.d .             ",
"            . k n.E.T.P.K.K.K.K.K.P.K.K.K.K.K.K.K.P.P.P.P.K.P.P.P.P.K.K.P.P.P.P.K.P.P.K.K.P.K.K.L.L.U.P.P.U.Y.h.f .             ",
"            . k n.R.S.M.M.n.M.M.n.n.M.n.M.n.n.n.N.n.n.n.n.M.b.M.n.n.n.n.n.n.n.N.b.M.M.M.n.n.n.n.m.m.b.C.M.C.Z.<.i .             ",
"            . i ] h.$.E Y Y E E Y E E E E E E E R Q E Y E E E E E E E E Q R Y Q E Y E E E E E E E Y E E E E Q G > .             ",
"            . @ i d i w 7 w w w w w w w w w w w 9 r w w w w w w w w w w 9 r w w w w w w w w w w 8 w w w w r w : O .             ",
"            . . . . . . . . . . . . . . . . . . . . . . . . . . . . . . . . . . . . . . . . . . . . . . . . . . . .             ",
"                                                                                                                                ",
"                                                                                                                                "
};
